<svg xmlns="http://www.w3.org/2000/svg" xmlns:xlink="http://www.w3.org/1999/xlink" zoomAndPan="magnify" preserveAspectRatio="xMidYMid meet" version="1.0" viewBox="0 24.3 375 326.86"><defs><clipPath id="86e2a69089"><path d="M 0 24.296875 L 375 24.296875 L 375 350.546875 L 0 350.546875 Z M 0 24.296875 " clip-rule="nonzero"/></clipPath></defs><g clip-path="url(#86e2a69089)"><path fill="#fefaf4" d="M 375 187.734375 C 375 190.410156 374.925781 193.082031 374.773438 195.753906 C 374.625 198.425781 374.398438 201.089844 374.097656 203.753906 C 373.796875 206.414062 373.421875 209.066406 372.96875 211.714844 C 372.519531 214.359375 371.996094 216.992188 371.398438 219.617188 C 370.796875 222.238281 370.125 224.847656 369.378906 227.441406 C 368.636719 230.035156 367.816406 232.613281 366.925781 235.171875 C 366.035156 237.730469 365.074219 240.269531 364.039062 242.789062 C 363.003906 245.308594 361.902344 247.800781 360.726562 250.273438 C 359.554688 252.742188 358.308594 255.1875 356.996094 257.605469 C 355.6875 260.023438 354.308594 262.410156 352.859375 264.769531 C 351.414062 267.128906 349.902344 269.453125 348.324219 271.75 C 346.746094 274.042969 345.105469 276.300781 343.402344 278.523438 C 341.695312 280.75 339.929688 282.933594 338.101562 285.082031 C 336.273438 287.230469 334.386719 289.339844 332.441406 291.40625 C 330.492188 293.472656 328.488281 295.5 326.429688 297.480469 C 324.367188 299.460938 322.253906 301.398438 320.082031 303.289062 C 317.914062 305.179688 315.691406 307.023438 313.417969 308.820312 C 311.144531 310.617188 308.820312 312.363281 306.449219 314.058594 C 304.078125 315.753906 301.660156 317.402344 299.195312 318.992188 C 296.730469 320.585938 294.222656 322.125 291.667969 323.613281 C 289.117188 325.097656 286.527344 326.527344 283.894531 327.902344 C 281.261719 329.277344 278.59375 330.597656 275.886719 331.855469 C 273.179688 333.117188 270.441406 334.320312 267.667969 335.464844 C 264.890625 336.605469 262.089844 337.691406 259.253906 338.714844 C 256.417969 339.738281 253.554688 340.699219 250.667969 341.601562 C 247.777344 342.5 244.863281 343.339844 241.929688 344.117188 C 238.992188 344.890625 236.035156 345.605469 233.058594 346.253906 C 230.082031 346.90625 227.089844 347.492188 224.078125 348.011719 C 221.070312 348.535156 218.046875 348.992188 215.011719 349.382812 C 211.976562 349.777344 208.933594 350.105469 205.878906 350.367188 C 202.824219 350.628906 199.765625 350.824219 196.699219 350.957031 C 193.636719 351.085938 190.570312 351.152344 187.5 351.152344 C 184.429688 351.152344 181.363281 351.085938 178.300781 350.957031 C 175.234375 350.824219 172.175781 350.628906 169.121094 350.367188 C 166.066406 350.105469 163.023438 349.777344 159.988281 349.382812 C 156.953125 348.992188 153.929688 348.535156 150.921875 348.011719 C 147.910156 347.492188 144.917969 346.90625 141.941406 346.253906 C 138.964844 345.605469 136.007812 344.890625 133.070312 344.117188 C 130.136719 343.339844 127.222656 342.5 124.332031 341.601562 C 121.445312 340.699219 118.582031 339.738281 115.746094 338.714844 C 112.910156 337.691406 110.105469 336.605469 107.332031 335.464844 C 104.558594 334.320312 101.820312 333.117188 99.113281 331.855469 C 96.40625 330.597656 93.738281 329.277344 91.105469 327.902344 C 88.472656 326.527344 85.882812 325.097656 83.332031 323.613281 C 80.777344 322.125 78.269531 320.585938 75.804688 318.992188 C 73.339844 317.402344 70.921875 315.753906 68.550781 314.058594 C 66.179688 312.363281 63.855469 310.617188 61.582031 308.820312 C 59.308594 307.023438 57.085938 305.179688 54.917969 303.289062 C 52.746094 301.398438 50.632812 299.460938 48.570312 297.480469 C 46.511719 295.5 44.507812 293.472656 42.558594 291.40625 C 40.613281 289.339844 38.726562 287.230469 36.898438 285.082031 C 35.070312 282.933594 33.304688 280.75 31.597656 278.523438 C 29.894531 276.300781 28.253906 274.042969 26.675781 271.75 C 25.097656 269.453125 23.585938 267.128906 22.140625 264.769531 C 20.691406 262.410156 19.3125 260.023438 18.003906 257.605469 C 16.691406 255.1875 15.445312 252.742188 14.273438 250.273438 C 13.097656 247.800781 11.996094 245.308594 10.960938 242.789062 C 9.925781 240.269531 8.964844 237.730469 8.074219 235.171875 C 7.183594 232.613281 6.363281 230.035156 5.621094 227.441406 C 4.875 224.847656 4.203125 222.238281 3.601562 219.617188 C 3.003906 216.992188 2.480469 214.359375 2.03125 211.714844 C 1.578125 209.066406 1.203125 206.414062 0.902344 203.753906 C 0.601562 201.089844 0.375 198.425781 0.226562 195.753906 C 0.0742188 193.082031 0 190.410156 0 187.734375 C 0 185.0625 0.0742188 182.386719 0.226562 179.71875 C 0.375 177.046875 0.601562 174.378906 0.902344 171.71875 C 1.203125 169.054688 1.578125 166.402344 2.03125 163.757812 C 2.480469 161.113281 3.003906 158.476562 3.601562 155.855469 C 4.203125 153.230469 4.875 150.621094 5.621094 148.027344 C 6.363281 145.433594 7.183594 142.855469 8.074219 140.296875 C 8.964844 137.738281 9.925781 135.199219 10.960938 132.683594 C 11.996094 130.164062 13.097656 127.667969 14.273438 125.199219 C 15.445312 122.726562 16.691406 120.285156 18.003906 117.867188 C 19.3125 115.449219 20.691406 113.058594 22.140625 110.699219 C 23.585938 108.34375 25.097656 106.015625 26.675781 103.722656 C 28.253906 101.429688 29.894531 99.167969 31.597656 96.945312 C 33.304688 94.722656 35.070312 92.535156 36.898438 90.386719 C 38.726562 88.238281 40.613281 86.132812 42.558594 84.066406 C 44.507812 81.996094 46.511719 79.972656 48.570312 77.992188 C 50.632812 76.007812 52.746094 74.074219 54.917969 72.183594 C 57.085938 70.289062 59.308594 68.445312 61.582031 66.652344 C 63.855469 64.855469 66.179688 63.109375 68.550781 61.414062 C 70.921875 59.714844 73.339844 58.070312 75.804688 56.476562 C 78.269531 54.882812 80.777344 53.34375 83.332031 51.859375 C 85.882812 50.375 88.472656 48.941406 91.105469 47.566406 C 93.738281 46.191406 96.40625 44.875 99.113281 43.613281 C 101.820312 42.351562 104.558594 41.152344 107.332031 40.007812 C 110.105469 38.863281 112.910156 37.78125 115.746094 36.757812 C 118.582031 35.734375 121.445312 34.773438 124.332031 33.871094 C 127.222656 32.96875 130.136719 32.132812 133.070312 31.355469 C 136.007812 30.578125 138.964844 29.867188 141.941406 29.214844 C 144.917969 28.566406 147.910156 27.980469 150.921875 27.457031 C 153.929688 26.9375 156.953125 26.480469 159.988281 26.085938 C 163.023438 25.695312 166.066406 25.367188 169.121094 25.105469 C 172.175781 24.84375 175.234375 24.644531 178.300781 24.515625 C 181.363281 24.382812 184.429688 24.316406 187.5 24.316406 C 190.570312 24.316406 193.636719 24.382812 196.699219 24.515625 C 199.765625 24.644531 202.824219 24.84375 205.878906 25.105469 C 208.933594 25.367188 211.976562 25.695312 215.011719 26.085938 C 218.046875 26.480469 221.070312 26.9375 224.078125 27.457031 C 227.089844 27.980469 230.082031 28.566406 233.058594 29.214844 C 236.035156 29.867188 238.992188 30.578125 241.929688 31.355469 C 244.863281 32.132812 247.777344 32.96875 250.667969 33.871094 C 253.554688 34.773438 256.417969 35.734375 259.253906 36.757812 C 262.089844 37.78125 264.890625 38.863281 267.667969 40.007812 C 270.441406 41.152344 273.179688 42.351562 275.886719 43.613281 C 278.59375 44.875 281.261719 46.191406 283.894531 47.566406 C 286.527344 48.941406 289.117188 50.375 291.667969 51.859375 C 294.222656 53.34375 296.730469 54.882812 299.195312 56.476562 C 301.660156 58.070312 304.078125 59.714844 306.449219 61.414062 C 308.820312 63.109375 311.144531 64.855469 313.417969 66.652344 C 315.691406 68.445312 317.914062 70.289062 320.082031 72.183594 C 322.253906 74.074219 324.367188 76.007812 326.429688 77.992188 C 328.488281 79.972656 330.492188 81.996094 332.4375 84.066406 C 334.386719 86.132812 336.273438 88.238281 338.101562 90.386719 C 339.929688 92.535156 341.695312 94.722656 343.402344 96.945312 C 345.105469 99.167969 346.746094 101.429688 348.324219 103.722656 C 349.902344 106.015625 351.414062 108.34375 352.859375 110.699219 C 354.308594 113.058594 355.6875 115.449219 356.996094 117.867188 C 358.308594 120.285156 359.554688 122.726562 360.726562 125.199219 C 361.902344 127.667969 363.003906 130.164062 364.039062 132.683594 C 365.074219 135.199219 366.035156 137.738281 366.925781 140.296875 C 367.816406 142.855469 368.636719 145.433594 369.378906 148.027344 C 370.125 150.621094 370.796875 153.230469 371.398438 155.855469 C 371.996094 158.476562 372.519531 161.113281 372.96875 163.757812 C 373.421875 166.402344 373.796875 169.054688 374.097656 171.71875 C 374.398438 174.378906 374.625 177.046875 374.773438 179.71875 C 374.925781 182.386719 375 185.0625 375 187.734375 Z M 375 187.734375 " fill-opacity="1" fill-rule="nonzero"/></g><path fill="#c94528" d="M 373.902344 170.484375 C 374.53125 176.128906 375 181.933594 375 187.734375 C 375 191.027344 374.84375 194.480469 374.6875 197.773438 C 364.800781 280.265625 284.78125 344.566406 187.65625 344.566406 C 90.535156 344.566406 10.511719 280.265625 0.628906 197.773438 C 0.15625 194.480469 0 191.1875 0 187.734375 C 0 181.933594 0.3125 176.128906 1.097656 170.484375 C 0.785156 173.777344 0.628906 177.070312 0.628906 180.363281 C 0.628906 270.226562 84.257812 343.15625 187.34375 343.15625 C 290.429688 343.15625 374.058594 270.226562 374.058594 180.363281 C 374.214844 177.070312 374.058594 173.777344 373.902344 170.484375 Z M 373.902344 170.484375 " fill-opacity="1" fill-rule="evenodd"/><path fill="#f0aa3a" d="M 222.960938 304.574219 C 211.507812 306.925781 199.582031 308.023438 187.34375 308.023438 C 148.273438 308.023438 112.65625 295.636719 85.667969 275.246094 C 85.511719 275.246094 85.042969 275.246094 84.886719 275.5625 C 84.726562 275.875 84.726562 276.34375 85.042969 276.5 C 112.1875 297.046875 148.117188 309.4375 187.5 309.4375 C 199.894531 309.4375 211.820312 308.179688 223.273438 305.828125 C 223.585938 305.828125 223.902344 305.359375 223.902344 305.042969 C 223.746094 304.730469 223.429688 304.574219 222.960938 304.574219 Z M 311.453125 254.546875 C 296.546875 272.109375 276.308594 286.382812 252.929688 295.792969 C 252.613281 295.949219 252.457031 296.417969 252.613281 296.734375 C 252.773438 297.046875 253.242188 297.203125 253.554688 297.046875 C 277.25 287.636719 297.488281 273.207031 312.710938 255.328125 C 313.023438 255.015625 312.867188 254.546875 312.550781 254.386719 C 312.082031 254.074219 311.609375 254.230469 311.453125 254.546875 Z M 75.628906 266.933594 C 50.523438 244.195312 35.304688 213.613281 35.304688 180.207031 C 35.304688 109.632812 103.554688 52.390625 187.5 52.390625 C 222.332031 52.390625 254.339844 62.269531 279.917969 78.738281 C 280.230469 78.894531 280.699219 78.894531 280.859375 78.582031 C 281.015625 78.269531 281.015625 77.796875 280.699219 77.640625 C 254.8125 61.015625 222.488281 51.136719 187.5 51.136719 C 102.613281 51.136719 33.890625 109.164062 33.890625 180.363281 C 33.890625 214.238281 49.425781 244.980469 74.6875 268.03125 C 75 268.347656 75.46875 268.347656 75.628906 268.03125 C 75.785156 267.71875 75.785156 267.25 75.628906 266.933594 Z M 317.730469 114.183594 C 331.695312 133.472656 339.695312 156.054688 339.695312 180.207031 C 339.695312 191.8125 337.8125 203.105469 334.363281 213.769531 C 334.203125 214.082031 334.519531 214.554688 334.832031 214.710938 C 335.144531 214.867188 335.617188 214.554688 335.773438 214.238281 C 339.226562 203.417969 341.109375 191.96875 341.109375 180.207031 C 341.109375 155.742188 332.949219 132.84375 318.984375 113.242188 C 318.828125 112.925781 318.359375 112.925781 318.042969 113.085938 C 317.574219 113.398438 317.574219 113.867188 317.730469 114.183594 Z M 317.730469 114.183594 " fill-opacity="1" fill-rule="evenodd"/><path fill="#718b5f" d="M 53.976562 185.226562 C 53.976562 185.226562 49.269531 190.558594 44.402344 190.714844 C 39.382812 190.871094 32.320312 184.753906 30.597656 192.753906 C 29.027344 200.753906 26.359375 212.359375 34.832031 215.496094 C 43.304688 218.632812 48.796875 210.003906 52.25 211.886719 C 55.699219 213.769531 57.269531 219.570312 55.386719 222.238281 C 53.503906 224.90625 47.070312 223.964844 48.640625 227.414062 C 50.210938 230.863281 57.425781 230.863281 61.347656 232.433594 C 65.273438 234.15625 60.722656 240.117188 63.230469 244.820312 C 65.742188 249.683594 72.488281 247.800781 76.097656 243.566406 C 79.707031 239.332031 83.472656 236.667969 85.667969 238.707031 C 88.023438 240.746094 81.589844 250.9375 93.828125 252.507812 C 106.066406 254.074219 168.828125 143.351562 168.828125 143.351562 L 200.679688 72.9375 C 200.679688 72.9375 202.09375 59.605469 195.660156 59.449219 C 189.226562 59.292969 181.695312 67.761719 181.378906 60.074219 C 181.066406 52.390625 178.714844 56.3125 172.125 56.3125 C 165.535156 56.15625 168.359375 50.039062 163.492188 47.058594 C 158.785156 44.078125 153.296875 43.765625 147.332031 47.84375 C 141.054688 52.078125 136.347656 53.800781 139.644531 62.585938 C 143.097656 71.523438 140.585938 74.816406 134.308594 74.503906 C 128.191406 74.191406 119.875 71.367188 115.480469 77.171875 C 111.085938 82.972656 110.773438 94.109375 110.773438 94.109375 C 110.773438 94.109375 107.164062 88.460938 103.554688 91.128906 C 99.949219 93.792969 96.496094 95.363281 93.671875 88.933594 C 90.847656 82.503906 87.394531 79.992188 80.648438 81.246094 C 73.902344 82.503906 65.429688 83.757812 66.839844 93.011719 C 68.410156 102.105469 57.113281 99.910156 53.976562 107.4375 C 50.679688 114.964844 60.25 112.613281 58.996094 120.613281 C 57.582031 128.609375 51.621094 126.257812 52.25 132.375 C 52.875 138.492188 61.976562 141.785156 71.390625 154.957031 C 80.804688 168.132812 53.976562 185.226562 53.976562 185.226562 Z M 53.976562 185.226562 " fill-opacity="1" fill-rule="evenodd"/><path fill="#6c3919" d="M 62.289062 206.867188 C 62.289062 206.867188 77.039062 203.261719 90.21875 196.203125 C 92.730469 194.792969 94.769531 194.164062 96.183594 193.851562 C 97.4375 193.695312 98.378906 193.851562 99.007812 194.164062 C 99.789062 194.636719 100.105469 195.421875 100.261719 196.203125 C 100.417969 197.144531 100.417969 198.085938 100.261719 198.558594 C 98.535156 200.28125 82.84375 215.496094 74.058594 219.414062 C 73.746094 219.570312 73.585938 220.042969 73.746094 220.355469 C 73.902344 220.671875 74.371094 220.828125 74.6875 220.671875 C 84.101562 216.433594 101.515625 199.339844 101.515625 199.339844 C 101.671875 199.183594 101.671875 199.183594 101.671875 199.027344 C 101.671875 199.027344 101.988281 197.617188 101.671875 196.046875 C 101.515625 194.949219 100.890625 193.851562 99.789062 193.066406 C 99.007812 192.441406 97.75 192.125 95.867188 192.441406 C 94.300781 192.753906 92.101562 193.382812 89.433594 194.949219 C 76.414062 202.007812 61.820312 205.613281 61.820312 205.613281 C 61.507812 205.769531 61.191406 206.085938 61.347656 206.398438 C 61.507812 206.710938 61.976562 206.867188 62.289062 206.867188 Z M 130.074219 103.203125 C 130.074219 103.203125 137.917969 122.179688 145.449219 136.296875 C 145.605469 136.609375 146.078125 136.765625 146.390625 136.609375 C 146.703125 136.453125 146.863281 136.136719 146.703125 135.667969 C 139.171875 121.554688 131.328125 102.734375 131.328125 102.734375 C 131.171875 102.417969 130.859375 102.261719 130.386719 102.417969 C 130.074219 102.417969 129.917969 102.890625 130.074219 103.203125 Z M 77.824219 101.792969 C 77.824219 101.792969 85.042969 110.417969 95.242188 124.847656 C 97.75 128.453125 99.476562 130.492188 100.890625 131.589844 C 101.988281 132.375 102.613281 132.6875 103.242188 132.6875 C 104.027344 132.6875 104.65625 132.21875 104.8125 131.433594 C 105.125 130.179688 104.8125 128.140625 104.8125 128.140625 C 104.8125 128.140625 104.8125 127.984375 104.8125 127.984375 C 104.8125 127.984375 95.082031 110.730469 91.476562 102.578125 C 91.160156 102.105469 90.847656 101.949219 90.375 102.105469 C 90.0625 102.261719 89.90625 102.578125 90.0625 103.046875 C 93.515625 110.886719 102.613281 127.042969 103.398438 128.609375 C 103.398438 128.925781 103.554688 130.023438 103.554688 130.804688 C 103.554688 130.960938 103.554688 131.277344 103.398438 131.433594 C 103.398438 131.433594 103.398438 131.589844 103.242188 131.589844 C 102.929688 131.589844 102.457031 131.277344 101.832031 130.804688 C 100.574219 129.394531 98.847656 127.511719 96.496094 124.0625 C 86.140625 109.632812 78.921875 101.007812 78.921875 101.007812 C 78.765625 100.695312 78.296875 100.695312 77.980469 100.851562 C 77.667969 101.164062 77.667969 101.636719 77.824219 101.792969 Z M 71.234375 115.90625 C 71.234375 115.90625 83.945312 130.492188 86.609375 132.375 C 86.925781 132.6875 87.394531 132.53125 87.550781 132.21875 C 87.867188 131.902344 87.710938 131.433594 87.394531 131.277344 C 84.886719 129.394531 72.332031 114.964844 72.332031 114.964844 C 72.019531 114.652344 71.703125 114.652344 71.390625 114.964844 C 71.078125 115.121094 71.078125 115.59375 71.234375 115.90625 Z M 122.699219 110.730469 C 122.699219 110.730469 126.152344 114.964844 131.800781 127.511719 C 131.800781 127.984375 132.269531 128.140625 132.582031 127.984375 C 132.898438 127.828125 133.054688 127.355469 132.898438 127.042969 C 127.25 114.183594 123.796875 109.789062 123.796875 109.789062 C 123.484375 109.632812 123.011719 109.476562 122.699219 109.789062 C 122.386719 109.949219 122.386719 110.417969 122.699219 110.730469 Z M 110.460938 95.207031 C 110.460938 95.207031 111.085938 98.183594 112.34375 99.597656 C 112.972656 100.382812 113.914062 100.851562 114.855469 100.539062 C 115.636719 100.539062 116.578125 99.753906 117.679688 98.65625 C 120.03125 96.304688 122.542969 92.382812 123.796875 89.558594 C 124.738281 87.363281 125.210938 85.796875 126.777344 84.855469 C 127.71875 84.226562 128.976562 84.070312 131.015625 84.070312 C 133.523438 84.070312 135.09375 84.226562 136.347656 85.011719 C 137.605469 85.796875 138.230469 87.207031 139.015625 89.714844 C 139.488281 91.910156 139.957031 94.890625 141.214844 98.183594 C 142.9375 103.203125 146.078125 108.535156 152.824219 111.359375 C 155.179688 112.300781 157.0625 112.457031 158.472656 112.144531 C 160.828125 111.515625 162.238281 109.632812 162.867188 107.4375 C 163.808594 104.457031 163.492188 101.007812 163.492188 101.007812 C 163.492188 101.007812 163.492188 100.851562 163.492188 100.851562 C 163.492188 100.851562 156.277344 84.226562 152.667969 73.875 C 152.511719 73.5625 152.195312 73.25 151.726562 73.40625 C 151.414062 73.5625 151.253906 74.035156 151.414062 74.347656 C 154.863281 84.226562 161.609375 99.910156 162.238281 101.320312 C 162.238281 101.949219 162.394531 104.617188 161.609375 107.125 C 161.140625 108.851562 160.042969 110.417969 158.316406 110.886719 C 156.902344 111.046875 155.335938 110.730469 153.453125 109.949219 C 147.175781 107.28125 144.195312 102.261719 142.625 97.714844 C 141.527344 94.578125 140.898438 91.441406 140.273438 89.402344 C 139.332031 86.421875 138.390625 84.855469 136.976562 83.914062 C 135.566406 82.972656 133.683594 82.660156 130.859375 82.660156 C 128.503906 82.660156 126.933594 82.972656 125.835938 83.757812 C 124.269531 84.699219 123.484375 86.421875 122.386719 89.089844 C 121.285156 91.753906 118.777344 95.519531 116.738281 97.714844 C 115.953125 98.65625 115.167969 99.28125 114.539062 99.441406 C 114.382812 99.441406 114.070312 99.441406 113.914062 99.28125 C 113.597656 98.96875 113.285156 98.65625 112.972656 98.183594 C 112.1875 96.929688 111.871094 95.046875 111.871094 95.046875 C 111.714844 94.578125 111.402344 94.421875 111.085938 94.421875 C 110.617188 94.578125 110.460938 94.890625 110.460938 95.207031 Z M 157.21875 63.210938 C 157.21875 63.210938 160.828125 83.285156 166.316406 98.65625 C 166.476562 98.96875 166.789062 99.28125 167.257812 99.125 C 167.574219 98.96875 167.886719 98.65625 167.730469 98.183594 C 162.238281 82.816406 158.785156 62.898438 158.785156 62.898438 C 158.785156 62.585938 158.316406 62.269531 158.003906 62.269531 C 157.375 62.429688 157.0625 62.898438 157.21875 63.210938 Z M 157.21875 63.210938 " fill-opacity="0.57" fill-rule="evenodd"/><path fill="#718b5f" d="M 40.167969 165.777344 C 41.894531 156.683594 50.210938 147.273438 64.015625 145.390625 C 77.980469 143.507812 93.671875 143.980469 104.96875 154.488281 C 116.265625 164.996094 118.621094 177.070312 114.382812 184.285156 C 110.144531 191.5 94.769531 200.125 78.921875 198.714844 C 63.074219 197.300781 36.871094 184.285156 40.167969 165.777344 Z M 40.167969 165.777344 " fill-opacity="1" fill-rule="evenodd"/><path fill="#718b5f" d="M 75.3125 125.789062 C 77.824219 118.417969 89.121094 109.164062 103.085938 109.949219 C 117.050781 110.574219 132.269531 113.867188 141.371094 126.257812 C 150.472656 138.648438 150.941406 153.390625 145.449219 159.664062 C 139.957031 165.9375 123.796875 172.679688 108.421875 168.289062 C 93.042969 163.898438 69.351562 143.351562 75.3125 125.789062 Z M 75.3125 125.789062 " fill-opacity="1" fill-rule="evenodd"/><path fill="#6c3919" d="M 64.171875 146.019531 C 68.722656 145.390625 73.429688 145.078125 78.296875 145.234375 C 78.453125 145.234375 78.765625 145.078125 78.921875 144.921875 C 79.078125 144.765625 79.078125 144.449219 78.921875 144.136719 C 75.472656 138.332031 73.902344 132.0625 75.941406 126.101562 C 78.453125 118.730469 89.433594 109.949219 103.085938 110.574219 C 116.738281 111.203125 131.800781 114.496094 140.742188 126.726562 C 146.234375 134.097656 148.429688 142.097656 148.273438 148.683594 C 148.273438 153.074219 147.019531 156.839844 144.980469 159.191406 C 140.429688 164.523438 128.035156 170.011719 115.324219 168.757812 C 115.167969 168.757812 114.855469 168.757812 114.695312 169.074219 C 114.539062 169.230469 114.382812 169.542969 114.539062 169.699219 C 116.265625 175.1875 115.953125 180.207031 113.753906 183.972656 C 112.1875 186.792969 108.734375 189.773438 104.339844 192.285156 C 97.59375 196.203125 88.335938 198.871094 78.921875 197.929688 C 71.078125 197.300781 60.722656 193.695312 52.71875 188.050781 C 52.40625 187.890625 51.933594 187.890625 51.777344 188.207031 C 51.621094 188.519531 51.621094 188.988281 51.933594 189.148438 C 60.09375 194.949219 70.761719 198.558594 78.765625 199.339844 C 88.492188 200.28125 97.90625 197.460938 104.96875 193.382812 C 109.675781 190.714844 113.285156 187.421875 115.011719 184.441406 C 117.207031 180.835938 117.679688 175.816406 116.109375 170.328125 C 129.132812 171.113281 141.371094 165.621094 145.921875 160.132812 C 148.273438 157.46875 149.527344 153.546875 149.6875 148.839844 C 149.84375 141.941406 147.488281 133.472656 141.996094 125.945312 C 132.742188 113.398438 117.363281 109.949219 103.085938 109.320312 C 88.808594 108.535156 77.195312 117.945312 74.527344 125.628906 C 72.488281 131.589844 73.902344 137.863281 77.039062 143.824219 C 72.644531 143.667969 68.253906 144.136719 64.015625 144.605469 C 63.703125 144.605469 63.390625 145.078125 63.390625 145.390625 C 63.546875 145.863281 63.859375 146.175781 64.171875 146.019531 Z M 64.171875 146.019531 " fill-opacity="1" fill-rule="evenodd"/><path fill="#fefaf4" d="M 42.519531 163.742188 C 41.265625 168.757812 49.582031 179.109375 67.46875 184.753906 C 85.355469 190.402344 100.417969 187.734375 106.539062 184.597656 C 112.5 181.460938 114.382812 170.171875 108.421875 160.605469 C 102.457031 151.195312 89.121094 145.703125 73.585938 145.863281 C 56.957031 146.332031 44.71875 154.171875 42.519531 163.742188 Z M 42.519531 163.742188 " fill-opacity="0.6" fill-rule="evenodd"/><path fill="#fefaf4" d="M 78.136719 123.75 C 76.097656 128.453125 82.21875 140.058594 98.847656 149 C 115.480469 157.9375 130.699219 158.09375 137.132812 156.054688 C 143.566406 154.015625 147.644531 143.351562 143.410156 132.84375 C 139.332031 122.335938 127.25 114.496094 112.027344 111.828125 C 95.710938 109.164062 82.21875 114.808594 78.136719 123.75 Z M 78.136719 123.75 " fill-opacity="0.6" fill-rule="evenodd"/><path fill="#f0aa3a" d="M 42.519531 163.742188 C 41.265625 168.757812 49.582031 179.109375 67.46875 184.753906 C 85.355469 190.402344 100.417969 187.734375 106.539062 184.597656 C 112.5 181.460938 114.382812 170.171875 108.421875 160.605469 C 102.457031 151.195312 89.121094 145.703125 73.585938 145.863281 C 56.957031 146.332031 44.71875 154.171875 42.519531 163.742188 Z M 42.519531 163.742188 " fill-opacity="0.15" fill-rule="evenodd"/><path fill="#f0aa3a" d="M 78.136719 123.75 C 76.097656 128.453125 82.21875 140.058594 98.847656 149 C 115.480469 157.9375 130.699219 158.09375 137.132812 156.054688 C 143.566406 154.015625 147.644531 143.351562 143.410156 132.84375 C 139.332031 122.335938 127.25 114.496094 112.027344 111.828125 C 95.710938 109.164062 82.21875 114.808594 78.136719 123.75 Z M 78.136719 123.75 " fill-opacity="0.15" fill-rule="evenodd"/><path fill="#718b5f" d="M 63.703125 167.347656 L 62.605469 172.050781 C 62.449219 172.679688 62.917969 173.148438 63.546875 173.308594 C 64.171875 173.464844 64.800781 172.992188 64.957031 172.367188 L 66.054688 167.660156 C 66.214844 167.035156 65.742188 166.40625 65.113281 166.25 C 64.488281 166.25 63.859375 166.71875 63.703125 167.347656 Z M 70.292969 168.757812 L 71.234375 173.464844 C 71.390625 174.089844 72.019531 174.5625 72.644531 174.40625 C 73.273438 174.25 73.746094 173.621094 73.585938 172.992188 L 72.644531 168.289062 C 72.488281 167.660156 71.863281 167.347656 71.234375 167.347656 C 70.605469 167.503906 70.136719 168.132812 70.292969 168.757812 Z M 77.039062 168.132812 L 80.019531 173.777344 C 80.335938 174.40625 80.960938 174.5625 81.589844 174.25 C 82.21875 173.933594 82.375 173.308594 82.0625 172.679688 L 79.078125 167.035156 C 78.765625 166.40625 78.136719 166.25 77.511719 166.5625 C 76.882812 166.878906 76.726562 167.503906 77.039062 168.132812 Z M 60.40625 158.25 L 62.289062 162.484375 C 62.605469 163.113281 63.230469 163.269531 63.859375 163.113281 C 64.332031 162.957031 64.644531 162.171875 64.332031 161.703125 L 62.605469 157.308594 C 62.289062 156.683594 61.664062 156.527344 61.035156 156.683594 C 60.40625 156.996094 60.25 157.625 60.40625 158.25 Z M 85.667969 169.230469 L 87.550781 173.621094 C 87.867188 174.25 88.492188 174.40625 89.121094 174.25 C 89.75 173.933594 89.90625 173.308594 89.75 172.679688 L 87.867188 168.289062 C 87.550781 167.660156 86.925781 167.347656 86.296875 167.660156 C 85.667969 167.976562 85.511719 168.601562 85.667969 169.230469 Z M 93.828125 169.542969 L 95.082031 174.25 C 95.242188 174.875 95.867188 175.1875 96.496094 175.03125 C 97.125 174.875 97.4375 174.25 97.28125 173.621094 L 96.023438 168.914062 C 95.867188 168.289062 95.242188 167.976562 94.769531 168.132812 C 94.140625 168.289062 93.671875 168.914062 93.828125 169.542969 Z M 68.410156 157.625 C 68.410156 157.625 69.820312 160.917969 69.980469 162.015625 C 69.980469 162.644531 70.605469 163.113281 71.234375 163.113281 C 71.863281 162.957031 72.175781 162.328125 72.175781 161.703125 C 72.019531 160.445312 70.449219 156.839844 70.449219 156.839844 C 70.292969 156.210938 69.507812 155.898438 69.039062 156.210938 C 68.410156 156.371094 68.097656 157.152344 68.410156 157.625 Z M 79.707031 162.328125 L 78.453125 157.308594 C 78.296875 156.683594 77.667969 156.371094 77.039062 156.527344 C 76.414062 156.683594 76.097656 157.308594 76.253906 157.78125 L 77.511719 162.800781 C 77.667969 163.425781 78.296875 163.898438 78.921875 163.742188 C 79.550781 163.582031 79.863281 162.957031 79.707031 162.328125 Z M 84.414062 159.191406 L 86.925781 163.269531 C 87.082031 163.742188 87.867188 163.898438 88.335938 163.582031 C 88.808594 163.269531 89.121094 162.484375 88.652344 162.015625 L 86.296875 157.9375 C 85.984375 157.46875 85.355469 157.152344 84.726562 157.625 C 84.257812 157.9375 84.101562 158.566406 84.414062 159.191406 Z M 92.257812 159.035156 L 91.945312 163.898438 C 91.945312 164.523438 92.417969 165.152344 93.042969 165.152344 C 93.671875 165.152344 94.300781 164.679688 94.300781 164.054688 L 94.613281 159.191406 C 94.613281 158.566406 94.140625 157.9375 93.515625 157.9375 C 92.886719 157.9375 92.417969 158.410156 92.257812 159.035156 Z M 92.257812 159.035156 " fill-opacity="1" fill-rule="evenodd"/><path fill="#718b5f" d="M 98.378906 131.121094 L 96.496094 135.511719 C 96.183594 136.136719 96.496094 136.765625 97.125 137.078125 C 97.75 137.394531 98.378906 137.078125 98.691406 136.453125 L 100.574219 132.0625 C 100.890625 131.433594 100.574219 130.804688 99.949219 130.492188 C 99.320312 130.335938 98.691406 130.648438 98.378906 131.121094 Z M 104.65625 133.785156 L 104.65625 138.648438 C 104.65625 139.273438 105.125 139.746094 105.753906 139.746094 C 106.378906 139.746094 106.851562 139.273438 106.851562 138.648438 L 106.851562 133.785156 C 106.851562 133.160156 106.378906 132.6875 105.753906 132.6875 C 105.125 132.6875 104.65625 133.160156 104.65625 133.785156 Z M 111.246094 134.414062 L 113.128906 140.53125 C 113.285156 141.15625 113.914062 141.46875 114.539062 141.3125 C 115.167969 141.15625 115.480469 140.53125 115.324219 139.902344 L 113.441406 133.785156 C 113.285156 133.160156 112.65625 132.84375 112.027344 133 C 111.402344 133.160156 111.085938 133.785156 111.246094 134.414062 Z M 96.808594 121.710938 L 97.75 126.257812 C 97.90625 126.886719 98.535156 127.199219 99.164062 127.199219 C 99.789062 126.886719 100.261719 126.257812 100.105469 125.628906 L 99.164062 121.238281 C 99.007812 120.613281 98.378906 120.140625 97.75 120.296875 C 97.125 120.457031 96.808594 121.082031 96.808594 121.710938 Z M 119.71875 137.078125 L 120.816406 141.785156 C 120.816406 142.410156 121.445312 142.882812 122.070312 142.726562 C 122.699219 142.566406 123.011719 141.941406 122.855469 141.3125 L 121.757812 136.609375 C 121.757812 135.980469 121.128906 135.511719 120.503906 135.667969 C 119.875 135.824219 119.5625 136.453125 119.71875 137.078125 Z M 127.5625 138.960938 L 127.875 143.824219 C 127.875 144.449219 128.503906 144.921875 129.132812 144.921875 C 129.757812 144.921875 130.230469 144.292969 130.230469 143.667969 L 129.917969 138.804688 C 129.917969 138.175781 129.289062 137.707031 128.660156 137.707031 C 128.035156 137.707031 127.5625 138.332031 127.5625 138.960938 Z M 104.8125 122.492188 C 104.8125 122.492188 105.597656 125.945312 105.4375 127.042969 C 105.4375 127.667969 105.910156 128.140625 106.539062 128.296875 C 107.164062 128.296875 107.636719 127.828125 107.792969 127.199219 C 107.792969 125.945312 107.007812 122.023438 107.007812 122.023438 C 106.851562 121.554688 106.222656 121.082031 105.597656 121.238281 C 104.96875 121.394531 104.65625 121.867188 104.8125 122.492188 Z M 115.011719 129.238281 L 114.855469 124.0625 C 114.855469 123.433594 114.226562 122.964844 113.597656 122.964844 C 112.972656 122.964844 112.5 123.59375 112.5 124.21875 L 112.8125 129.394531 C 112.8125 130.023438 113.441406 130.492188 114.070312 130.492188 C 114.539062 130.492188 115.011719 129.863281 115.011719 129.238281 Z M 120.1875 127.042969 L 121.757812 131.433594 C 121.914062 132.0625 122.699219 132.375 123.167969 132.0625 C 123.640625 131.746094 124.269531 131.121094 123.953125 130.648438 L 122.386719 126.101562 C 122.070312 125.628906 121.445312 125.316406 120.816406 125.472656 C 120.34375 125.789062 120.03125 126.414062 120.1875 127.042969 Z M 128.035156 128.453125 L 126.777344 133.160156 C 126.621094 133.785156 126.933594 134.414062 127.5625 134.570312 C 128.191406 134.726562 128.816406 134.414062 128.976562 133.785156 L 130.230469 129.082031 C 130.386719 128.453125 130.074219 127.828125 129.445312 127.667969 C 128.816406 127.355469 128.191406 127.828125 128.035156 128.453125 Z M 128.035156 128.453125 " fill-opacity="1" fill-rule="evenodd"/><path fill="#c94528" d="M 122.855469 160.445312 C 122.855469 160.445312 108.105469 173.777344 108.421875 189.148438 C 108.421875 189.148438 93.359375 191.027344 90.535156 194.949219 C 87.710938 198.871094 83.316406 212.359375 84.257812 221.609375 C 85.199219 230.863281 95.554688 236.351562 95.554688 236.351562 C 95.554688 236.351562 89.75 248.898438 93.828125 254.546875 C 97.90625 260.191406 106.222656 268.503906 106.222656 268.503906 C 106.222656 268.503906 104.183594 277.285156 113.285156 284.96875 C 122.386719 292.5 133.839844 290.144531 151.726562 279.796875 C 151.726562 279.796875 154.238281 288.421875 163.652344 292.8125 C 173.066406 297.203125 182.480469 299.085938 186.402344 297.203125 C 190.324219 295.320312 202.40625 285.753906 202.40625 285.753906 C 202.40625 285.753906 214.644531 275.71875 225.628906 278.070312 C 236.609375 280.421875 241.632812 279.953125 249.789062 274.460938 C 257.792969 268.972656 266.265625 259.878906 265.636719 255.015625 C 265.167969 250.152344 264.382812 237.136719 253.085938 231.175781 C 253.085938 231.175781 260.144531 225.375 262.1875 217.375 C 264.226562 209.378906 303.609375 146.644531 303.609375 146.644531 C 303.609375 146.644531 308.316406 115.28125 305.960938 106.8125 C 303.453125 98.5 299.527344 89.089844 295.136719 86.421875 C 290.742188 83.757812 270.1875 93.949219 270.1875 93.949219 C 270.1875 93.949219 266.738281 78.425781 248.222656 76.855469 C 248.222656 76.855469 241.632812 56.9375 235.042969 52.703125 C 228.453125 48.46875 216.527344 55.058594 211.191406 58.820312 C 205.859375 62.585938 195.816406 71.210938 195.816406 71.210938 L 175.261719 92.226562 C 175.261719 92.226562 161.296875 89.089844 155.960938 97.085938 C 150.472656 105.554688 148.117188 109.632812 150.941406 122.179688 C 153.765625 134.726562 122.855469 160.445312 122.855469 160.445312 Z M 122.855469 160.445312 " fill-opacity="1" fill-rule="evenodd"/><path fill="#6c3919" d="M 122.855469 160.445312 C 122.855469 160.445312 108.105469 173.777344 108.421875 189.148438 C 108.421875 189.148438 93.359375 191.027344 90.535156 194.949219 C 87.710938 198.871094 83.316406 212.359375 84.257812 221.609375 C 85.199219 230.863281 95.554688 236.351562 95.554688 236.351562 C 95.554688 236.351562 89.75 248.898438 93.828125 254.546875 C 97.90625 260.191406 106.222656 268.503906 106.222656 268.503906 C 106.222656 268.503906 104.183594 277.285156 113.285156 284.96875 C 122.386719 292.5 133.839844 290.144531 151.726562 279.796875 C 151.726562 279.796875 154.238281 288.421875 163.652344 292.8125 C 173.066406 297.203125 182.480469 299.085938 186.402344 297.203125 C 190.324219 295.320312 202.40625 285.753906 202.40625 285.753906 C 202.40625 285.753906 214.644531 275.71875 225.628906 278.070312 C 236.609375 280.421875 241.632812 279.953125 249.789062 274.460938 C 257.792969 268.972656 266.265625 259.878906 265.636719 255.015625 C 265.167969 250.152344 264.382812 237.136719 253.085938 231.175781 C 253.085938 231.175781 260.144531 225.375 262.1875 217.375 C 264.226562 209.378906 303.609375 146.644531 303.609375 146.644531 C 303.609375 146.644531 308.316406 115.28125 305.960938 106.8125 C 303.453125 98.5 299.527344 89.089844 295.136719 86.421875 C 290.742188 83.757812 270.1875 93.949219 270.1875 93.949219 C 270.1875 93.949219 266.738281 78.425781 248.222656 76.855469 C 248.222656 76.855469 241.632812 56.9375 235.042969 52.703125 C 228.453125 48.46875 216.527344 55.058594 211.191406 58.820312 C 205.859375 62.585938 195.816406 71.210938 195.816406 71.210938 L 175.261719 92.226562 C 175.261719 92.226562 161.296875 89.089844 155.960938 97.085938 C 150.472656 105.554688 148.117188 109.632812 150.941406 122.179688 C 153.765625 134.726562 122.855469 160.445312 122.855469 160.445312 Z M 122.855469 160.445312 " fill-opacity="0.39" fill-rule="evenodd"/><path fill="#f0aa3a" d="M 122.855469 160.445312 C 122.855469 160.445312 108.105469 173.777344 108.421875 189.148438 C 108.421875 189.148438 93.359375 191.027344 90.535156 194.949219 C 87.710938 198.871094 83.316406 212.359375 84.257812 221.609375 C 85.199219 230.863281 95.554688 236.351562 95.554688 236.351562 C 95.554688 236.351562 89.75 248.898438 93.828125 254.546875 C 97.90625 260.191406 106.222656 268.503906 106.222656 268.503906 C 106.222656 268.503906 104.183594 277.285156 113.285156 284.96875 C 122.386719 292.5 133.839844 290.144531 151.726562 279.796875 C 151.726562 279.796875 154.238281 288.421875 163.652344 292.8125 C 173.066406 297.203125 182.480469 299.085938 186.402344 297.203125 C 190.324219 295.320312 202.40625 285.753906 202.40625 285.753906 C 202.40625 285.753906 214.644531 275.71875 225.628906 278.070312 C 236.609375 280.421875 241.632812 279.953125 249.789062 274.460938 C 257.792969 268.972656 266.265625 259.878906 265.636719 255.015625 C 265.167969 250.152344 264.382812 237.136719 253.085938 231.175781 C 253.085938 231.175781 260.144531 225.375 262.1875 217.375 C 264.226562 209.378906 303.609375 146.644531 303.609375 146.644531 C 303.609375 146.644531 308.316406 115.28125 305.960938 106.8125 C 303.453125 98.5 299.527344 89.089844 295.136719 86.421875 C 290.742188 83.757812 270.1875 93.949219 270.1875 93.949219 C 270.1875 93.949219 266.738281 78.425781 248.222656 76.855469 C 248.222656 76.855469 241.632812 56.9375 235.042969 52.703125 C 228.453125 48.46875 216.527344 55.058594 211.191406 58.820312 C 205.859375 62.585938 195.816406 71.210938 195.816406 71.210938 L 175.261719 92.226562 C 175.261719 92.226562 161.296875 89.089844 155.960938 97.085938 C 150.472656 105.554688 148.117188 109.632812 150.941406 122.179688 C 153.765625 134.726562 122.855469 160.445312 122.855469 160.445312 Z M 122.855469 160.445312 " fill-opacity="0.54" fill-rule="evenodd"/><path fill="#6c3919" d="M 107.636719 267.71875 C 107.636719 267.71875 112.972656 254.074219 116.738281 249.683594 C 118.621094 247.644531 120.503906 245.761719 122.699219 244.664062 C 124.738281 243.566406 126.777344 243.253906 128.816406 243.878906 C 130.542969 244.507812 133.054688 246.234375 136.035156 248.429688 C 140.429688 251.722656 145.449219 256.113281 149.371094 258.9375 C 152.980469 261.601562 156.746094 264.894531 157.21875 269.128906 C 157.53125 271.796875 156.277344 274.933594 152.824219 278.226562 C 152.511719 278.539062 152.511719 279.011719 152.824219 279.167969 C 153.136719 279.480469 153.609375 279.480469 153.765625 279.167969 C 157.6875 275.402344 158.945312 271.953125 158.628906 268.816406 C 158.160156 264.269531 154.238281 260.503906 150.3125 257.683594 C 146.546875 255.015625 141.527344 250.625 137.132812 247.332031 C 134.152344 244.980469 131.328125 243.253906 129.601562 242.625 C 124.894531 241.058594 120.1875 244.195312 116.109375 248.742188 C 112.34375 253.132812 106.695312 267.089844 106.695312 267.089844 C 106.539062 267.40625 106.695312 267.875 107.164062 268.03125 C 107.007812 268.191406 107.480469 268.03125 107.636719 267.71875 Z M 182.007812 239.332031 C 178.871094 239.019531 168.671875 238.234375 163.335938 238.078125 C 160.667969 238.078125 157.6875 239.175781 154.863281 240.746094 C 150.785156 242.941406 147.488281 245.605469 147.488281 245.605469 C 147.175781 245.917969 147.175781 246.234375 147.332031 246.546875 C 147.488281 246.859375 147.960938 246.859375 148.273438 246.703125 C 148.273438 246.703125 151.414062 244.039062 155.335938 242 C 157.84375 240.585938 160.667969 239.488281 163.023438 239.488281 C 168.515625 239.644531 179.8125 240.585938 182.007812 240.746094 C 182.480469 241.84375 184.363281 245.292969 188.285156 249.371094 C 190.324219 251.410156 193.304688 252.507812 196.601562 252.820312 C 201.464844 253.289062 206.800781 252.035156 209.9375 249.996094 C 212.449219 248.273438 214.644531 244.507812 216.839844 240.746094 C 218.097656 238.707031 219.351562 236.667969 220.605469 235.253906 C 221.390625 234.3125 222.332031 233.6875 223.273438 233.214844 C 228.609375 231.335938 241.632812 228.355469 251.203125 231.492188 C 251.515625 231.648438 251.988281 231.492188 252.144531 231.019531 C 252.300781 230.707031 252.144531 230.238281 251.671875 230.078125 C 241.789062 226.785156 228.296875 229.765625 222.804688 231.804688 C 220.605469 232.589844 218.566406 234.941406 216.839844 237.921875 C 214.332031 241.84375 212.132812 246.703125 209.152344 248.742188 C 206.328125 250.78125 201.308594 251.878906 196.757812 251.410156 C 193.777344 251.09375 191.109375 250.152344 189.226562 248.273438 C 185.460938 244.351562 183.734375 241.058594 183.261719 239.960938 C 183.261719 239.804688 183.261719 239.644531 183.261719 239.488281 C 183.261719 239.488281 181.066406 233.84375 182.320312 228.355469 C 182.636719 226.785156 183.890625 224.589844 185.460938 222.238281 C 189.226562 216.59375 195.503906 210.003906 198.640625 206.867188 C 198.953125 206.554688 198.953125 206.085938 198.640625 205.929688 C 198.328125 205.613281 197.855469 205.613281 197.699219 205.929688 C 194.402344 209.222656 188.285156 215.964844 184.363281 221.609375 C 182.636719 224.121094 181.378906 226.472656 181.066406 228.199219 C 180.28125 232.746094 181.539062 237.449219 182.007812 239.332031 Z M 96.652344 235.253906 C 96.652344 235.253906 97.75 232.902344 99.476562 230.550781 C 100.574219 228.980469 101.988281 227.570312 103.398438 226.785156 C 104.496094 226.160156 106.851562 225.84375 109.675781 225.375 C 116.265625 224.589844 124.894531 224.277344 124.894531 224.277344 C 125.210938 224.277344 125.523438 223.964844 125.523438 223.492188 C 125.523438 223.179688 125.210938 222.867188 124.738281 222.867188 C 124.738281 222.867188 116.109375 223.023438 109.363281 223.964844 C 106.378906 224.277344 103.871094 224.90625 102.613281 225.53125 C 100.890625 226.316406 99.320312 228.039062 98.222656 229.765625 C 96.496094 232.273438 95.242188 234.785156 95.242188 234.785156 C 95.082031 235.097656 95.242188 235.570312 95.554688 235.726562 C 96.183594 235.726562 96.496094 235.570312 96.652344 235.253906 Z M 130.859375 228.199219 C 130.859375 228.199219 130.859375 225.21875 131.328125 221.925781 C 131.640625 219.886719 132.269531 217.691406 133.367188 216.433594 C 136.191406 212.828125 146.546875 207.027344 146.546875 207.027344 C 146.863281 206.867188 147.019531 206.398438 146.863281 206.085938 C 146.703125 205.769531 146.234375 205.613281 145.921875 205.769531 C 145.921875 205.769531 135.25 211.886719 132.269531 215.496094 C 131.015625 217.0625 130.386719 219.414062 129.917969 221.609375 C 129.289062 224.90625 129.445312 228.199219 129.445312 228.199219 C 129.445312 228.511719 129.757812 228.824219 130.230469 228.824219 C 130.699219 228.980469 131.015625 228.667969 130.859375 228.199219 Z M 225.472656 205.457031 C 225.472656 205.457031 234.726562 210.003906 238.023438 218.160156 C 239.59375 221.769531 239.433594 227.570312 239.433594 227.570312 C 239.433594 227.882812 239.75 228.355469 240.0625 228.355469 C 240.375 228.355469 240.847656 228.039062 240.847656 227.726562 C 240.847656 227.726562 241.003906 221.609375 239.433594 217.847656 C 235.828125 209.222656 226.097656 204.515625 226.097656 204.515625 C 225.785156 204.359375 225.3125 204.515625 225.15625 204.828125 C 225 205.144531 225.15625 205.300781 225.472656 205.457031 Z M 110.144531 189.929688 C 110.144531 189.929688 119.089844 189.460938 124.894531 192.125 C 130.699219 194.792969 134.308594 198.714844 136.976562 201.851562 C 137.289062 202.164062 137.605469 202.164062 137.917969 202.007812 C 138.230469 201.695312 138.230469 201.378906 138.074219 201.066406 C 135.40625 197.617188 131.640625 193.695312 125.523438 190.871094 C 119.402344 188.050781 109.988281 188.519531 109.988281 188.519531 C 109.675781 188.519531 109.363281 188.832031 109.363281 189.304688 C 109.519531 189.617188 109.832031 189.929688 110.144531 189.929688 Z M 269.875 107.910156 C 269.875 107.910156 279.132812 107.59375 284.308594 112.144531 C 286.347656 114.023438 287.917969 116.847656 288.859375 119.515625 C 290.429688 123.75 291.054688 127.828125 291.054688 127.828125 C 291.054688 128.140625 291.527344 128.453125 291.839844 128.453125 C 292.15625 128.453125 292.46875 127.984375 292.46875 127.667969 C 292.46875 127.667969 291.839844 123.433594 290.273438 119.042969 C 289.171875 116.0625 287.449219 113.085938 285.25 111.046875 C 279.601562 106.183594 269.875 106.496094 269.875 106.496094 C 269.5625 106.496094 269.246094 106.8125 269.246094 107.28125 C 269.089844 107.59375 269.402344 107.910156 269.875 107.910156 Z M 239.277344 108.691406 C 239.277344 108.691406 259.832031 98.65625 268.148438 96.148438 C 268.460938 95.988281 268.777344 95.675781 268.621094 95.207031 C 268.460938 94.890625 268.148438 94.578125 267.679688 94.734375 C 259.363281 97.246094 238.652344 107.4375 238.652344 107.4375 C 238.335938 107.59375 238.179688 108.066406 238.335938 108.378906 C 238.652344 108.691406 238.964844 108.851562 239.277344 108.691406 Z M 239.277344 108.691406 " fill-opacity="1" fill-rule="evenodd"/><path fill="#6c3919" d="M 92.257812 249.054688 C 93.515625 250.3125 97.4375 254.546875 101.203125 256.269531 C 105.753906 258.464844 111.085938 255.171875 114.382812 252.035156 C 117.679688 248.898438 113.914062 255.328125 111.714844 263.640625 C 109.519531 271.953125 113.441406 275.089844 120.1875 280.265625 C 127.09375 285.441406 133.839844 282.773438 140.273438 280.734375 C 146.703125 278.539062 153.921875 274.148438 156.277344 270.699219 C 158.628906 267.25 156.277344 278.695312 157.6875 284.03125 C 159.101562 289.363281 170.710938 290.617188 178.242188 290.929688 C 185.773438 291.242188 185.460938 284.34375 192.679688 281.832031 C 199.738281 279.324219 231.746094 273.050781 237.710938 272.265625 C 243.671875 271.328125 231.902344 261.757812 231.902344 261.757812 C 231.902344 261.757812 244.613281 265.523438 251.988281 263.328125 C 257.949219 261.601562 261.402344 260.035156 265.480469 255.800781 C 265.636719 260.660156 257.480469 269.601562 249.476562 274.933594 C 241.476562 280.421875 236.296875 280.894531 225.3125 278.539062 C 214.332031 276.1875 202.09375 286.226562 202.09375 286.226562 C 202.09375 286.226562 189.855469 295.792969 186.085938 297.671875 C 182.164062 299.554688 172.90625 297.671875 163.335938 293.28125 C 153.921875 288.890625 151.414062 280.265625 151.414062 280.265625 C 133.523438 290.460938 122.226562 292.96875 112.972656 285.441406 C 103.871094 277.914062 105.910156 268.972656 105.910156 268.972656 C 105.910156 268.972656 97.59375 260.660156 93.515625 255.015625 C 92.574219 253.132812 92.257812 251.09375 92.257812 249.054688 Z M 149.6875 244.980469 C 149.6875 244.980469 153.453125 234.472656 159.414062 234 C 165.375 233.53125 169.925781 235.882812 173.066406 233.53125 C 176.203125 231.019531 177.300781 221.453125 181.222656 217.535156 C 185.144531 213.613281 191.578125 203.730469 184.675781 201.851562 C 177.773438 200.125 170.710938 222.707031 162.082031 220.355469 C 153.453125 218.160156 160.984375 200.4375 160.984375 200.4375 L 184.203125 179.109375 L 211.976562 178.796875 L 241.316406 181.460938 L 246.183594 151.039062 L 265.167969 145.703125 L 272.542969 148.683594 C 272.542969 148.683594 265.953125 152.292969 263.128906 156.683594 C 260.460938 161.074219 262.5 169.386719 257.636719 172.050781 C 252.773438 174.71875 253.554688 177.855469 252.457031 185.226562 C 251.359375 192.597656 250.105469 202.632812 240.375 203.105469 C 230.648438 203.574219 229.078125 200.59375 221.390625 206.242188 C 213.546875 211.886719 204.132812 214.398438 200.210938 204.828125 C 200.210938 204.828125 189.382812 215.964844 185.773438 221.769531 C 182.164062 227.570312 180.4375 229.609375 183.105469 239.644531 L 166.945312 239.019531 C 166.945312 239.019531 161.925781 238.390625 158.316406 240.117188 C 154.863281 241.84375 149.6875 244.980469 149.6875 244.980469 Z M 253.085938 231.175781 C 251.203125 230.394531 242.730469 227.726562 225.628906 232.117188 C 225.628906 232.117188 233.785156 228.980469 235.511719 225.375 C 237.238281 221.925781 234.886719 213.925781 236.453125 214.082031 C 238.023438 214.082031 241.003906 221.769531 243.828125 224.277344 C 246.652344 226.785156 254.183594 223.804688 259.519531 219.414062 C 260.304688 218.789062 261.085938 218.316406 261.871094 218.160156 C 259.988281 224.90625 254.339844 230.078125 253.085938 231.175781 Z M 102.300781 226.316406 C 102.300781 226.316406 105.910156 220.671875 111.402344 219.730469 C 116.894531 218.789062 122.386719 222.707031 126.152344 219.570312 C 129.917969 216.433594 133.839844 210.003906 136.507812 207.027344 C 139.332031 204.046875 134.464844 198.242188 134.464844 198.242188 C 134.464844 198.242188 136.507812 198.085938 140.113281 200.4375 C 143.722656 202.792969 150.15625 197.929688 156.433594 193.539062 C 162.710938 189.148438 146.703125 206.398438 146.703125 206.398438 C 146.703125 206.398438 132.898438 213.769531 131.640625 218.632812 C 130.386719 223.335938 131.328125 226.628906 127.5625 224.90625 C 123.953125 223.023438 116.738281 223.023438 102.300781 226.316406 Z M 241.476562 113.242188 C 241.476562 113.242188 246.964844 121.710938 258.261719 121.394531 C 269.5625 121.082031 273.796875 126.414062 278.191406 133.785156 C 282.582031 141.15625 252.929688 140.84375 252.929688 140.84375 L 233.472656 133.316406 C 233.628906 133.316406 241.476562 113.242188 241.476562 113.242188 Z M 269.71875 93.792969 C 269.402344 94.890625 268.933594 96.148438 268.304688 97.246094 C 265.953125 101.007812 263.285156 106.8125 270.660156 107.125 C 277.875 107.59375 286.347656 109.320312 289.644531 119.515625 C 292.9375 129.707031 292.625 115.90625 292.625 115.90625 C 292.625 115.90625 286.976562 106.8125 279.445312 103.988281 C 271.914062 101.164062 273.011719 95.832031 279.289062 92.851562 C 285.566406 90.03125 294.507812 90.8125 298.429688 97.085938 C 300.628906 100.382812 302.824219 101.949219 304.394531 102.734375 C 301.882812 95.675781 298.585938 88.933594 294.980469 86.738281 C 290.585938 84.070312 270.03125 94.265625 270.03125 94.265625 C 270.03125 94.265625 269.875 94.109375 269.71875 93.792969 Z M 246.183594 72.621094 L 243.042969 74.972656 C 243.042969 74.972656 241.316406 83.285156 247.59375 83.757812 C 252.773438 84.070312 258.578125 83.285156 265.796875 86.265625 C 262.65625 82.1875 257.164062 77.953125 247.90625 77.171875 C 247.90625 77.171875 247.28125 75.289062 246.183594 72.621094 Z M 246.183594 72.621094 " fill-opacity="0.37" fill-rule="evenodd"/><path fill="#f0aa3a" d="M 120.03125 254.074219 C 121.757812 249.214844 121.601562 245.917969 127.5625 249.054688 C 133.523438 252.191406 141.527344 255.800781 138.230469 258.9375 C 134.9375 262.074219 126.933594 260.035156 122.699219 262.855469 C 118.460938 265.679688 119.5625 255.171875 120.03125 254.074219 Z M 246.339844 239.019531 C 252.613281 241.214844 257.480469 242 256.066406 247.644531 C 254.65625 253.132812 249.476562 255.171875 244.140625 249.839844 C 238.808594 244.664062 238.335938 236.195312 246.339844 239.019531 Z M 136.347656 232.433594 C 132.898438 229.140625 131.640625 228.199219 134.625 222.707031 C 137.605469 217.375 138.703125 224.121094 145.136719 230.394531 C 151.570312 236.824219 145.449219 240.902344 136.347656 232.433594 Z M 206.171875 226.472656 C 207.269531 222.394531 219.820312 214.082031 223.273438 215.808594 C 226.882812 217.375 219.195312 224.90625 215.113281 228.667969 C 211.035156 232.273438 204.757812 231.492188 206.171875 226.472656 Z M 94.300781 204.828125 C 92.101562 201.695312 97.28125 193.222656 102.773438 194.164062 C 108.261719 195.105469 117.519531 194.007812 114.382812 197.773438 C 111.402344 201.378906 97.28125 209.222656 94.300781 204.828125 Z M 130.074219 171.269531 C 131.484375 169.074219 134.625 168.601562 136.976562 169.230469 C 139.332031 169.855469 140.898438 171.425781 139.171875 173.621094 C 136.035156 177.855469 128.035156 174.40625 130.074219 171.269531 Z M 264.695312 111.988281 C 262.972656 110.105469 265.636719 109.476562 269.089844 110.105469 C 272.542969 110.730469 276.621094 112.457031 277.71875 115.4375 C 279.917969 121.238281 269.5625 117.476562 264.695312 111.988281 Z M 264.695312 111.988281 " fill-opacity="0.47" fill-rule="evenodd"/><path fill="#718b5f" d="M 268.933594 134.726562 C 268.933594 134.726562 281.171875 130.960938 285.878906 124.53125 C 290.585938 118.101562 290.585938 110.417969 297.332031 107.4375 C 304.078125 104.457031 307.21875 113.085938 311.296875 111.988281 C 315.375 110.886719 317.730469 104.144531 324.632812 106.8125 C 331.539062 109.476562 332.949219 116.222656 332.949219 122.023438 C 332.949219 127.828125 335.617188 126.101562 341.894531 129.550781 C 348.167969 133 347.386719 138.019531 343.933594 143.507812 C 340.480469 149 344.875 149.78125 350.050781 153.859375 C 355.230469 157.9375 353.035156 162.957031 347.699219 171.738281 C 342.207031 180.519531 359.625 183.1875 333.261719 195.734375 C 306.902344 208.125 290.898438 195.261719 290.898438 195.261719 C 290.898438 195.261719 251.515625 150.878906 268.933594 134.726562 Z M 268.933594 134.726562 " fill-opacity="1" fill-rule="evenodd"/><path fill="#6c3919" d="M 271.445312 167.816406 C 271.601562 167.976562 271.757812 167.976562 271.914062 168.132812 C 275.367188 170.328125 280.699219 171.738281 281.957031 172.050781 C 284.78125 170.171875 312.082031 152.449219 326.988281 138.492188 C 327.300781 138.175781 327.773438 138.175781 327.929688 138.492188 C 328.242188 138.804688 328.242188 139.273438 327.929688 139.433594 C 312.082031 154.332031 282.425781 173.308594 282.425781 173.308594 C 282.425781 173.464844 282.113281 173.464844 281.957031 173.464844 C 281.957031 173.464844 276.777344 172.210938 272.855469 170.171875 C 272.386719 169.386719 271.914062 168.601562 271.445312 167.816406 Z M 268.777344 162.171875 C 268.933594 162.015625 268.933594 161.859375 269.089844 161.859375 C 270.34375 160.445312 272.855469 158.878906 276.933594 157.152344 C 298.746094 148.371094 313.808594 130.492188 313.808594 130.492188 C 314.121094 130.179688 314.433594 130.179688 314.75 130.335938 C 315.0625 130.648438 315.0625 130.960938 314.90625 131.277344 C 314.90625 131.277344 299.527344 149.46875 277.40625 158.40625 C 274.269531 159.664062 272.070312 160.917969 270.816406 162.015625 C 270.1875 162.644531 269.71875 163.113281 269.5625 163.582031 C 269.246094 163.113281 268.933594 162.644531 268.777344 162.171875 Z M 268.777344 162.171875 " fill-opacity="0.57" fill-rule="evenodd"/><path fill="#fefaf4" d="M 254.496094 210.789062 C 253.714844 198.085938 259.519531 183.34375 272.070312 168.445312 C 284.78125 153.703125 304.238281 150.722656 314.277344 155.742188 C 324.320312 160.917969 331.695312 177.699219 329.183594 196.359375 C 326.671875 215.023438 318.515625 233.84375 303.453125 241.371094 C 288.074219 249.054688 256.539062 245.761719 254.496094 210.789062 Z M 254.496094 210.789062 " fill-opacity="1" fill-rule="evenodd"/><path fill="#f0aa3a" d="M 329.65625 189.929688 C 329.65625 192.125 329.496094 194.324219 329.183594 196.519531 C 326.671875 215.179688 318.515625 234 303.453125 241.527344 C 288.074219 249.214844 256.378906 245.917969 254.496094 210.945312 C 254.339844 209.222656 254.496094 207.339844 254.496094 205.457031 L 254.65625 205.144531 C 254.65625 205.144531 259.046875 233.058594 286.507812 232.902344 C 309.886719 232.902344 323.378906 207.652344 329.65625 189.929688 Z M 329.65625 189.929688 " fill-opacity="0.17" fill-rule="evenodd"/><path fill="#f0aa3a" d="M 328.085938 199.496094 C 325.105469 216.75 317.257812 233.84375 303.136719 240.746094 C 291.054688 246.703125 268.933594 245.917969 259.519531 227.726562 C 259.363281 227.414062 258.890625 227.257812 258.578125 227.414062 C 258.261719 227.570312 258.105469 228.039062 258.261719 228.355469 C 267.992188 247.175781 291.214844 248.117188 303.765625 241.84375 C 318.199219 234.628906 326.359375 217.21875 329.339844 199.496094 C 329.339844 199.183594 329.183594 198.714844 328.714844 198.714844 C 328.242188 198.714844 328.085938 199.183594 328.085938 199.496094 Z M 328.085938 199.496094 " fill-opacity="1" fill-rule="evenodd"/><path fill="#f0aa3a" d="M 256.851562 213.925781 C 256.851562 213.925781 262.34375 230.078125 281.800781 233.058594 C 299.214844 235.726562 317.886719 225.21875 328.871094 192.597656 C 329.027344 192.285156 328.871094 191.8125 328.398438 191.65625 C 328.085938 191.5 327.613281 191.65625 327.457031 192.125 C 316.789062 223.804688 298.746094 234.3125 281.957031 231.648438 C 263.441406 228.824219 258.105469 213.457031 258.105469 213.457031 C 257.949219 213.140625 257.636719 212.828125 257.164062 212.984375 C 256.851562 213.300781 256.695312 213.613281 256.851562 213.925781 Z M 256.851562 213.925781 " fill-opacity="1" fill-rule="evenodd"/><path fill="#f0aa3a" d="M 272.070312 209.378906 C 268.460938 202.792969 273.011719 194.164062 279.445312 189.148438 C 285.878906 184.128906 295.292969 184.597656 300.785156 187.890625 C 307.375 191.65625 311.453125 203.417969 303.453125 211.730469 C 295.449219 220.042969 279.445312 223.179688 272.070312 209.378906 Z M 272.070312 209.378906 " fill-opacity="1" fill-rule="evenodd"/><path fill="#c94528" d="M 197.070312 112.300781 C 197.070312 112.300781 185.144531 110.417969 175.417969 100.695312 C 165.847656 90.972656 164.277344 77.640625 165.847656 75.914062 C 167.417969 74.191406 198.796875 70.269531 211.507812 69.328125 C 226.097656 68.074219 246.023438 66.820312 247.28125 69.015625 C 248.691406 71.210938 248.691406 97.871094 227.355469 108.378906 C 212.449219 115.75 197.070312 112.300781 197.070312 112.300781 Z M 197.070312 112.300781 " fill-opacity="1" fill-rule="evenodd"/><path fill="#c94528" d="M 233.160156 256.742188 C 233.160156 256.742188 241.789062 265.210938 243.984375 278.695312 C 246.183594 292.183594 239.59375 303.945312 237.394531 304.417969 C 235.199219 304.886719 207.269531 289.675781 196.445312 283.246094 C 183.890625 275.71875 166.945312 265.210938 167.101562 262.699219 C 167.257812 260.035156 182.792969 238.390625 206.171875 242.3125 C 222.804688 244.980469 233.160156 256.742188 233.160156 256.742188 Z M 233.160156 256.742188 " fill-opacity="1" fill-rule="evenodd"/><path fill="#f0aa3a" d="M 172.75 75.601562 C 172.75 75.601562 173.691406 81.089844 176.988281 87.050781 C 180.28125 93.167969 185.929688 99.597656 195.1875 101.792969 C 211.035156 105.398438 221.390625 101.949219 230.019531 95.519531 C 233.945312 92.539062 236.453125 87.675781 237.867188 83.601562 C 238.808594 80.777344 238.964844 78.269531 238.652344 77.171875 C 238.335938 75.914062 237.238281 74.660156 235.828125 73.875 C 233.785156 72.777344 231.121094 72.464844 228.921875 73.40625 C 225.3125 74.972656 221.546875 77.484375 215.898438 76.855469 C 214.488281 76.699219 213.230469 77.484375 211.820312 78.425781 C 211.191406 78.894531 210.40625 79.367188 209.78125 79.679688 C 209.152344 79.992188 208.523438 80.148438 207.898438 79.992188 C 207.269531 79.835938 206.640625 79.523438 206.015625 78.738281 C 205.230469 77.796875 204.445312 76.542969 203.660156 74.660156 C 203.503906 74.347656 203.035156 74.191406 202.71875 74.347656 C 202.40625 74.503906 202.25 74.972656 202.40625 75.289062 C 203.976562 79.050781 205.542969 80.777344 206.957031 81.246094 C 208.523438 81.875 209.9375 81.246094 211.347656 80.464844 C 212.132812 79.992188 212.917969 79.367188 213.703125 78.894531 C 214.332031 78.582031 214.957031 78.269531 215.585938 78.269531 C 221.546875 78.894531 225.628906 76.230469 229.394531 74.660156 C 231.277344 73.875 233.472656 74.191406 235.042969 75.132812 C 236.140625 75.757812 236.925781 76.542969 237.238281 77.484375 C 237.550781 78.582031 237.238281 80.777344 236.453125 83.128906 C 235.355469 87.050781 233.003906 91.597656 229.238281 94.421875 C 220.921875 100.695312 211.035156 103.832031 195.660156 100.382812 C 186.871094 98.5 181.539062 92.226562 178.398438 86.421875 C 175.261719 80.621094 174.320312 75.289062 174.320312 75.289062 C 174.320312 74.972656 173.847656 74.660156 173.535156 74.660156 C 173.066406 74.816406 172.75 75.132812 172.75 75.601562 Z M 172.75 75.601562 " fill-opacity="0.5" fill-rule="evenodd"/><path fill="#f0aa3a" d="M 231.433594 300.808594 C 231.433594 300.808594 233.785156 295.792969 234.570312 288.890625 C 235.355469 281.992188 234.570312 273.363281 228.296875 266.308594 C 217.46875 254.230469 207.113281 250.9375 196.285156 251.09375 C 191.421875 251.25 186.402344 253.605469 183.105469 256.269531 C 180.753906 257.996094 179.183594 259.878906 178.714844 261.132812 C 178.242188 262.386719 178.398438 263.957031 179.183594 265.367188 C 180.125 267.40625 182.164062 269.289062 184.519531 269.757812 C 188.285156 270.542969 192.992188 270.699219 197.226562 274.460938 C 198.167969 275.402344 199.738281 275.5625 201.464844 275.5625 C 202.25 275.5625 203.035156 275.5625 203.816406 275.71875 C 204.445312 275.875 205.074219 276.03125 205.542969 276.5 C 206.015625 276.972656 206.328125 277.597656 206.328125 278.539062 C 206.484375 279.636719 206.328125 281.207031 205.859375 283.246094 C 205.699219 283.558594 206.015625 284.03125 206.328125 284.03125 C 206.640625 284.1875 207.113281 283.871094 207.113281 283.558594 C 208.054688 279.636719 207.742188 277.285156 206.957031 276.03125 C 206.015625 274.621094 204.601562 274.304688 202.875 274.148438 C 201.933594 274.148438 200.992188 274.148438 200.050781 273.992188 C 199.269531 273.835938 198.640625 273.835938 198.167969 273.363281 C 193.777344 269.289062 188.753906 269.128906 184.832031 268.347656 C 182.949219 267.875 181.222656 266.308594 180.4375 264.738281 C 179.96875 263.640625 179.8125 262.542969 180.125 261.601562 C 180.4375 260.503906 182.007812 258.9375 184.046875 257.367188 C 187.1875 255.015625 191.894531 252.664062 196.445312 252.507812 C 206.800781 252.191406 216.839844 255.484375 227.355469 267.25 C 233.316406 273.992188 234.101562 282.148438 233.316406 288.734375 C 232.53125 295.320312 230.179688 300.183594 230.179688 300.183594 C 230.019531 300.496094 230.179688 300.96875 230.492188 301.125 C 230.960938 301.28125 231.277344 301.125 231.433594 300.808594 Z M 231.433594 300.808594 " fill-opacity="0.5" fill-rule="evenodd"/><path fill="#f0aa3a" d="M 224.214844 90.03125 C 223.429688 91.128906 222.019531 90.03125 221.234375 88.777344 C 220.605469 87.519531 220.292969 85.480469 220.921875 85.011719 C 221.703125 84.382812 225.628906 87.992188 224.214844 90.03125 Z M 215.113281 93.011719 C 214.015625 93.949219 212.917969 92.382812 212.761719 90.972656 C 212.449219 89.558594 212.761719 87.519531 213.546875 87.207031 C 214.332031 87.050781 216.996094 91.597656 215.113281 93.011719 Z M 205.699219 94.109375 C 204.445312 94.578125 203.976562 92.695312 204.132812 91.285156 C 204.289062 89.875 205.386719 87.992188 206.171875 87.992188 C 207.113281 88.148438 208.054688 93.324219 205.699219 94.109375 Z M 196.914062 93.011719 C 195.503906 93.011719 195.660156 91.128906 196.445312 89.875 C 197.226562 88.617188 198.640625 87.207031 199.425781 87.519531 C 200.210938 87.835938 199.269531 93.011719 196.914062 93.011719 Z M 188.914062 87.835938 C 187.65625 87.363281 188.441406 85.640625 189.539062 84.699219 C 190.636719 83.757812 192.679688 82.972656 193.148438 83.601562 C 193.933594 84.070312 191.109375 88.617188 188.914062 87.835938 Z M 188.914062 87.835938 " fill-opacity="1" fill-rule="evenodd"/><path fill="#f0aa3a" d="M 198.167969 259.09375 C 199.425781 258.621094 200.050781 260.347656 199.738281 261.917969 C 199.582031 263.328125 198.640625 265.210938 197.699219 265.210938 C 196.914062 265.054688 195.816406 260.035156 198.167969 259.09375 Z M 207.269531 261.917969 C 208.683594 261.757812 208.683594 263.640625 208.054688 265.054688 C 207.425781 266.308594 206.015625 267.875 205.230469 267.5625 C 204.445312 267.25 204.917969 262.074219 207.269531 261.917969 Z M 215.585938 266.464844 C 216.996094 266.777344 216.214844 268.660156 215.273438 269.601562 C 214.171875 270.699219 212.449219 271.640625 211.664062 271.011719 C 210.878906 270.542969 213.230469 265.835938 215.585938 266.464844 Z M 222.175781 272.582031 C 223.273438 273.363281 222.019531 274.777344 220.761719 275.402344 C 219.507812 276.03125 217.3125 276.1875 216.996094 275.5625 C 216.371094 274.933594 220.136719 271.167969 222.175781 272.582031 Z M 225.472656 281.519531 C 226.253906 282.617188 224.527344 283.558594 223.117188 283.714844 C 221.703125 283.871094 219.664062 283.246094 219.507812 282.460938 C 219.351562 281.519531 224.214844 279.480469 225.472656 281.519531 Z M 225.472656 281.519531 " fill-opacity="1" fill-rule="evenodd"/><path fill="#718b5f" d="M 237.710938 240.746094 C 240.691406 235.570312 240.691406 231.175781 239.75 228.511719 C 239.277344 227.101562 238.652344 226.160156 237.867188 225.6875 C 237.082031 225.0625 236.296875 224.90625 235.511719 225.21875 C 234.886719 225.375 234.101562 225.84375 233.785156 226.941406 C 233.003906 228.667969 232.84375 232.589844 233.160156 235.882812 C 233.316406 238.078125 233.785156 240.117188 234.257812 240.902344 C 234.726562 241.683594 235.355469 242 235.828125 242 C 236.609375 241.84375 237.238281 241.683594 237.710938 240.746094 Z M 126.933594 237.136719 C 126.777344 237.765625 126.933594 238.234375 127.40625 238.707031 C 127.71875 239.019531 128.503906 239.332031 129.445312 239.488281 C 132.113281 239.804688 137.917969 239.332031 141.527344 238.707031 C 143.410156 238.390625 144.820312 237.921875 145.292969 237.449219 C 145.921875 236.980469 146.390625 236.351562 146.546875 235.726562 C 146.703125 235.097656 146.546875 234.3125 146.234375 233.6875 C 145.449219 232.433594 143.253906 230.863281 139.171875 230.707031 C 134.78125 230.394531 130.859375 232.589844 128.816406 234.472656 C 127.5625 235.410156 127.09375 236.351562 126.933594 237.136719 Z M 236.453125 228.039062 C 235.667969 229.921875 235.828125 234.3125 236.296875 237.136719 C 237.710938 233.6875 237.710938 230.863281 237.082031 229.140625 C 236.925781 228.824219 236.609375 228.355469 236.453125 228.039062 Z M 143.722656 235.097656 C 143.253906 235.410156 142.46875 235.570312 141.527344 235.882812 C 138.703125 236.511719 134.152344 236.980469 131.171875 236.824219 C 130.859375 236.824219 130.542969 236.824219 130.230469 236.824219 C 130.542969 236.511719 130.859375 236.195312 131.328125 235.882812 C 133.054688 234.472656 135.722656 233.214844 138.703125 233.53125 C 140.742188 233.6875 142.15625 234.15625 142.9375 234.628906 C 143.410156 234.628906 143.722656 234.941406 143.722656 235.097656 Z M 178.554688 220.984375 C 184.203125 221.453125 187.972656 221.453125 190.480469 221.296875 C 192.363281 221.140625 193.621094 220.671875 194.246094 220.355469 C 195.03125 219.886719 195.503906 219.414062 195.660156 218.789062 C 195.816406 218.316406 195.816406 217.847656 195.660156 217.375 C 195.503906 216.75 194.875 216.121094 194.089844 215.496094 C 193.148438 214.867188 191.894531 214.398438 190.796875 214.238281 C 189.226562 214.082031 186.246094 214.710938 183.578125 215.496094 C 180.910156 216.277344 178.398438 217.375 177.613281 217.847656 C 176.671875 218.472656 176.832031 219.257812 176.832031 219.730469 C 176.988281 220.199219 177.300781 220.828125 178.554688 220.984375 Z M 192.519531 218.003906 C 192.207031 218.160156 191.738281 218.316406 191.265625 218.316406 C 189.539062 218.632812 187.027344 218.789062 183.261719 218.472656 C 183.578125 218.316406 183.890625 218.316406 184.203125 218.160156 C 186.402344 217.535156 188.914062 216.90625 190.324219 217.0625 C 190.953125 217.21875 191.894531 217.691406 192.519531 218.003906 Z M 119.402344 200.125 C 124.738281 197.929688 127.71875 194.949219 128.976562 192.125 C 129.917969 190.089844 130.074219 188.207031 129.601562 186.792969 C 129.289062 185.855469 128.660156 185.226562 128.035156 184.753906 C 127.25 184.285156 126.464844 184.128906 125.367188 184.441406 C 123.796875 184.914062 121.914062 186.636719 120.503906 188.832031 C 118.460938 191.96875 117.050781 196.046875 116.894531 197.773438 C 116.894531 198.871094 117.207031 199.496094 117.679688 199.8125 C 117.992188 200.28125 118.621094 200.4375 119.402344 200.125 Z M 119.875 196.832031 C 120.03125 196.359375 120.03125 195.890625 120.34375 195.421875 C 121.128906 193.382812 122.386719 190.871094 123.796875 189.148438 C 124.582031 188.207031 125.367188 187.421875 126.152344 187.109375 C 126.464844 187.109375 126.621094 187.109375 126.777344 187.109375 C 127.09375 187.421875 127.09375 188.050781 127.09375 188.675781 C 127.09375 191.027344 125.050781 194.324219 119.875 196.832031 Z M 119.875 196.832031 " fill-opacity="1" fill-rule="evenodd"/><path fill="#f0aa3a" d="M 127.09375 162.328125 C 132.898438 161.859375 145.921875 158.410156 149.53125 164.679688 C 150.15625 165.777344 150.472656 169.230469 150 170.484375 C 148.429688 174.5625 145.761719 177.855469 144.039062 181.777344 C 143.253906 183.34375 142.625 185.855469 144.351562 187.109375 C 147.804688 189.617188 155.648438 183.816406 157.0625 189.460938 C 157.53125 191.1875 157.0625 193.222656 156.746094 195.105469 C 155.335938 201.695312 148.273438 215.023438 158.945312 217.375 C 160.199219 217.691406 161.453125 217.691406 162.867188 217.535156 C 167.417969 216.75 169.925781 212.671875 171.808594 209.066406 C 175.730469 201.695312 180.597656 188.832031 190.796875 189.460938 C 201.621094 190.089844 199.894531 204.046875 208.210938 207.808594 C 218.253906 212.359375 221.863281 197.617188 229.863281 195.734375 C 237.550781 193.851562 244.925781 205.457031 252.457031 200.59375 C 255.125 198.871094 255.597656 195.261719 255.125 192.441406 C 254.496094 188.519531 252.457031 185.070312 250.417969 181.777344 C 249.007812 179.582031 247.125 177.226562 246.652344 174.5625 C 245.867188 168.289062 254.027344 171.894531 255.753906 167.503906 C 257.480469 162.957031 251.046875 158.878906 253.714844 154.332031 C 254.8125 152.449219 257.480469 151.820312 259.363281 151.820312 C 264.539062 151.507812 269.402344 152.761719 274.738281 151.664062 C 278.503906 150.878906 281.957031 149.3125 281.328125 144.921875 C 279.757812 134.414062 266.738281 128.765625 257.792969 126.414062 C 254.496094 125.472656 250.261719 125.628906 247.28125 123.75 C 241.003906 119.515625 250.730469 111.515625 243.515625 107.753906 C 238.808594 105.242188 233.628906 105.085938 228.609375 106.8125 C 225.628906 107.753906 222.644531 109.632812 219.507812 109.949219 C 215.429688 110.417969 214.332031 106.339844 211.820312 104.144531 C 209.152344 101.949219 205.386719 101.792969 202.09375 102.105469 C 198.167969 102.578125 194.246094 103.988281 191.109375 106.339844 C 186.089844 110.105469 181.695312 115.90625 175.417969 117.632812 C 164.90625 120.457031 153.453125 114.339844 144.351562 122.652344 C 142.3125 124.53125 140.273438 127.511719 141.054688 130.492188 C 141.683594 133 144.351562 135.667969 142.9375 138.332031 C 141.527344 141 138.546875 142.253906 135.878906 143.507812 C 131.640625 145.390625 127.40625 147.273438 123.640625 149.9375 C 120.972656 151.820312 117.835938 154.644531 118.304688 158.410156 C 118.933594 162.015625 124.109375 162.484375 127.09375 162.328125 Z M 127.09375 162.328125 " fill-opacity="1" fill-rule="evenodd"/><path fill="#fefaf4" d="M 214.957031 169.855469 C 213.546875 169.542969 210.40625 170.171875 209.625 170.640625 C 207.425781 171.738281 205.074219 172.679688 202.71875 173.148438 C 200.050781 173.777344 197.386719 174.089844 194.71875 174.5625 C 192.363281 175.03125 190.011719 175.347656 187.972656 176.445312 C 187.34375 176.757812 185.773438 177.542969 186.246094 178.484375 C 187.027344 180.519531 192.679688 180.050781 194.402344 180.207031 C 199.425781 180.835938 206.015625 181.933594 210.878906 179.738281 C 213.230469 178.640625 216.371094 177.542969 217.9375 175.503906 C 220.136719 171.894531 217.15625 170.328125 214.957031 169.855469 Z M 239.121094 148.371094 C 231.589844 145.234375 223.273438 151.195312 220.921875 155.898438 C 217.9375 161.703125 225.3125 165.464844 230.179688 164.523438 C 235.042969 163.582031 247.75 151.976562 239.121094 148.371094 Z M 206.484375 112.300781 C 205.542969 112.300781 203.816406 112.769531 203.660156 112.925781 C 203.191406 113.085938 202.71875 113.242188 202.25 113.554688 C 200.992188 114.183594 199.894531 115.4375 199.109375 116.535156 C 197.542969 118.886719 196.914062 121.710938 194.71875 123.59375 C 188.753906 128.453125 179.339844 128.925781 172.75 132.84375 C 170.398438 134.257812 163.492188 138.492188 165.847656 142.097656 C 167.257812 144.136719 170.398438 144.136719 172.4375 144.136719 C 178.242188 143.824219 183.734375 141.785156 189.539062 141.3125 C 195.972656 140.84375 200.523438 144.921875 206.484375 146.019531 C 213.546875 147.273438 222.019531 143.667969 227.667969 139.902344 C 229.550781 138.648438 231.121094 137.394531 232.53125 135.667969 C 233.472656 134.570312 234.101562 133.316406 234.570312 131.902344 C 234.886719 130.804688 235.042969 129.550781 235.042969 128.296875 C 234.101562 119.984375 224.84375 122.179688 219.351562 119.515625 C 214.644531 117.003906 212.761719 112.457031 206.484375 112.300781 Z M 206.484375 112.300781 " fill-opacity="0.29" fill-rule="evenodd"/></svg>