<svg xmlns="http://www.w3.org/2000/svg" xmlns:xlink="http://www.w3.org/1999/xlink" width="500" zoomAndPan="magnify" viewBox="0 0 375 374.999991" height="500" preserveAspectRatio="xMidYMid meet" version="1.0"><path fill="#000000" d="M 12.242188 111.140625 C 12.390625 110.875 12.714844 110.757812 13.007812 110.859375 C 13.304688 110.960938 13.464844 111.269531 13.40625 111.566406 C 11.109375 123.589844 10.300781 136.496094 10.992188 150.3125 L 10.992188 150.328125 C 11.464844 167.78125 16.21875 185.21875 25.28125 202.644531 L 25.28125 202.65625 C 33.039062 218.550781 43.984375 233.207031 58.128906 246.644531 C 63.191406 251.542969 70.238281 257.046875 79.261719 263.125 L 79.289062 263.140625 C 84.558594 267.144531 94.976562 272.292969 110.5625 278.589844 C 153 291.378906 190.160156 289.304688 222.003906 272.382812 C 222.195312 272.277344 222.429688 272.277344 222.621094 272.394531 C 222.800781 272.5 222.917969 272.691406 222.933594 272.898438 C 222.945312 273.027344 222.917969 273.148438 222.84375 273.265625 C 222.800781 273.324219 222.753906 273.382812 222.695312 273.441406 C 205.640625 287.40625 186.539062 296.574219 165.421875 300.960938 L 165.40625 300.960938 C 142.4375 305.152344 121.996094 304.402344 104.085938 298.722656 C 95.976562 297.164062 84.882812 293.042969 70.828125 286.375 L 70.796875 286.363281 C 64.234375 282.757812 58.011719 278.695312 52.09375 274.207031 C 35.15625 261.257812 21.851562 243.980469 12.15625 222.390625 C 3.589844 202.628906 0 181.113281 1.382812 157.789062 C 1.558594 150.652344 3.648438 139.480469 7.652344 124.324219 C 8.460938 121.085938 9.992188 116.714844 12.214844 111.226562 Z M 243.226562 111.859375 C 243.046875 112.15625 243.152344 112.535156 243.429688 112.714844 C 274.011719 131.84375 294.378906 162.984375 304.515625 206.160156 C 306.84375 222.757812 307.59375 234.339844 306.769531 240.902344 L 306.769531 240.933594 C 306.003906 251.792969 304.765625 260.636719 303.058594 267.464844 C 299.324219 282.976562 293.804688 297.058594 286.503906 309.703125 C 284.886719 312.511719 283.179688 315.234375 281.382812 317.898438 L 281.367188 317.914062 C 270.816406 334.46875 258.089844 347.316406 243.210938 356.453125 L 243.195312 356.46875 C 231.585938 363.957031 220.003906 369.726562 208.453125 373.746094 C 208.304688 373.789062 208.1875 373.890625 208.113281 374.023438 C 207.996094 374.230469 207.996094 374.496094 208.140625 374.6875 C 208.273438 374.894531 208.511719 374.996094 208.746094 374.953125 C 214.601562 374.128906 219.136719 373.257812 222.359375 372.347656 C 237.5 368.226562 248.214844 364.460938 254.484375 361.046875 C 275.363281 350.582031 292.214844 336.703125 305.003906 319.414062 C 308.136719 315.074219 310.992188 310.671875 313.550781 306.226562 C 322.324219 291.042969 327.769531 275.265625 329.902344 258.917969 C 330.84375 251.542969 331.242188 244.125 331.078125 236.636719 L 331.078125 236.59375 C 329.84375 221.125 327.871094 209.484375 325.179688 201.6875 C 321.160156 183.320312 311.582031 165.21875 296.453125 147.382812 L 296.4375 147.371094 C 282.089844 131.285156 264.609375 119.335938 244.003906 111.535156 C 243.695312 111.476562 243.371094 111.59375 243.226562 111.859375 Z M 243.226562 111.859375 " fill-opacity="1" fill-rule="nonzero"/><path fill="#fc4100" d="M 34.289062 299.136719 C 34.464844 298.839844 34.847656 298.722656 35.15625 298.898438 L 35.257812 298.972656 C 44.515625 306.964844 55.289062 314.117188 67.589844 320.429688 L 67.605469 320.429688 C 82.953125 328.757812 100.4375 333.351562 120.050781 334.203125 L 120.066406 334.203125 C 137.710938 335.425781 155.886719 333.277344 174.589844 327.757812 C 181.375 325.828125 189.644531 322.476562 199.429688 317.707031 L 199.460938 317.691406 C 205.566406 315.132812 215.21875 308.6875 228.464844 298.355469 C 242.371094 285.289062 253.394531 271.691406 261.546875 257.5625 C 272.332031 238.875 278.085938 219.273438 278.808594 198.742188 C 278.808594 198.640625 278.835938 198.535156 278.898438 198.449219 C 278.925781 198.40625 278.957031 198.359375 278.984375 198.332031 C 279.148438 198.15625 279.398438 198.09375 279.632812 198.167969 C 279.851562 198.242188 280.03125 198.433594 280.058594 198.667969 C 283.621094 220.417969 282.015625 241.535156 275.246094 262.007812 L 275.246094 262.023438 C 271.90625 271.351562 268.035156 279.84375 263.621094 287.496094 C 257.617188 297.882812 250.628906 306.730469 242.621094 314.027344 C 237.222656 320.265625 228.113281 327.800781 215.308594 336.632812 L 215.28125 336.644531 C 208.878906 340.515625 202.242188 343.886719 195.398438 346.757812 C 175.707031 354.9375 154.105469 357.835938 130.558594 355.4375 L 130.546875 355.4375 C 109.175781 352.996094 88.738281 345.359375 69.222656 332.496094 C 63.117188 328.773438 54.507812 321.386719 43.367188 310.332031 C 40.96875 308.007812 37.953125 304.507812 34.304688 299.839844 C 34.171875 299.636719 34.15625 299.355469 34.289062 299.136719 Z M 200.34375 101.089844 C 204.125 108.046875 207.496094 115.1875 210.453125 122.5 C 212.367188 127.398438 213.777344 132.507812 214.707031 137.832031 C 215.589844 143.175781 215.808594 148.796875 215.339844 154.683594 L 212.5 180.40625 C 212.277344 183.054688 212.203125 185.558594 212.277344 187.910156 C 212.308594 194.296875 214.382812 199.273438 218.488281 202.863281 C 227.332031 209.265625 239.3125 208.617188 254.410156 200.921875 C 259.265625 198.226562 263.164062 194.710938 266.109375 190.371094 C 267.519531 188.207031 268.523438 185.851562 269.097656 183.292969 L 269.566406 179.316406 L 269.226562 175.066406 L 267.992188 170.519531 L 265.8125 165.707031 L 262.722656 160.644531 C 260.371094 157.183594 257.515625 153.578125 254.171875 149.84375 C 246.210938 140.601562 230.804688 126.472656 207.921875 107.429688 L 200.34375 101.089844 M 134.472656 0.0625 L 134.386719 0.09375 C 128.824219 2.109375 124.570312 3.917969 121.613281 5.476562 C 107.675781 12.675781 97.992188 18.589844 92.5625 23.253906 C 74.332031 37.855469 60.761719 54.953125 51.875 74.539062 C 42.351562 96.203125 38.453125 117.65625 40.1875 138.90625 C 40.808594 146.308594 41.984375 153.652344 43.691406 160.9375 L 43.707031 160.96875 C 48.164062 175.875 52.535156 186.867188 56.816406 193.929688 C 64.601562 211.03125 77.746094 226.703125 96.242188 240.949219 L 96.257812 240.964844 C 113.664062 253.707031 133.269531 261.726562 155.0625 265.039062 C 155.136719 265.054688 155.210938 265.054688 155.28125 265.039062 C 155.398438 265.007812 155.519531 264.949219 155.605469 264.847656 C 155.753906 264.699219 155.8125 264.480469 155.769531 264.289062 C 155.722656 264.082031 155.578125 263.90625 155.371094 263.832031 C 121.464844 251.527344 95.035156 225.347656 76.082031 185.277344 C 70.3125 169.503906 67.148438 158.316406 66.605469 151.710938 L 66.605469 151.679688 C 65.074219 140.910156 64.441406 131.992188 64.675781 124.957031 C 65.175781 105.457031 68.722656 87.519531 75.316406 71.097656 L 75.316406 71.082031 C 82.171875 52.671875 91.929688 37.457031 104.570312 25.417969 L 104.585938 25.402344 C 114.359375 15.617188 124.480469 7.566406 134.945312 1.226562 C 135.210938 1.0625 135.3125 0.738281 135.210938 0.460938 C 135.078125 0.164062 134.785156 0.00390625 134.472656 0.0625 Z M 263.371094 48.125 C 263.371094 48.140625 263.402344 48.140625 263.429688 48.140625 C 263.460938 48.140625 263.488281 48.140625 263.519531 48.140625 C 263.472656 48.125 263.445312 48.125 263.414062 48.125 C 263.414062 48.125 263.386719 48.125 263.371094 48.125 Z M 263.769531 48.242188 C 263.84375 48.316406 263.914062 48.359375 263.976562 48.375 C 263.914062 48.316406 263.84375 48.273438 263.769531 48.242188 Z M 255.160156 34.070312 C 256.292969 34.910156 257.589844 36.457031 259.042969 38.722656 C 259.707031 39.679688 260.972656 42.355469 262.855469 46.757812 C 263.179688 47.402344 263.445312 47.859375 263.664062 48.125 C 263.871094 48.082031 264.179688 48.007812 264.59375 47.875 C 267.226562 46.917969 268.832031 46.375 269.359375 46.269531 C 270.757812 45.902344 272.054688 45.683594 273.230469 45.609375 C 273.644531 45.550781 274.085938 45.519531 274.554688 45.519531 C 276.496094 45.519531 278.867188 46.007812 281.632812 46.976562 C 289.683594 50.347656 295.1875 55.203125 298.144531 61.515625 C 300.792969 67.300781 299.734375 74.554688 294.964844 83.296875 C 297.292969 84.328125 299.71875 85.445312 302.25 86.636719 L 302.265625 86.652344 C 308.8125 90.257812 315.039062 94.304688 320.941406 98.792969 C 337.832031 111.726562 351.121094 128.960938 360.804688 150.503906 C 369.371094 170.195312 372.960938 191.695312 371.578125 214.976562 C 371.402344 222.097656 369.3125 233.238281 365.308594 248.378906 C 364.5 251.601562 362.984375 255.957031 360.777344 261.433594 C 360.761719 261.449219 360.761719 261.476562 360.746094 261.492188 C 360.703125 261.550781 360.660156 261.609375 360.585938 261.640625 C 360.539062 261.667969 360.480469 261.667969 360.4375 261.667969 C 360.378906 261.667969 360.304688 261.652344 360.246094 261.625 C 360.144531 261.566406 360.070312 261.449219 360.070312 261.34375 C 360.070312 261.316406 360.070312 261.269531 360.070312 261.242188 C 362.367188 249.203125 363.175781 236.269531 362.484375 222.4375 L 362.484375 222.421875 C 362.011719 204.921875 357.246094 187.441406 348.164062 169.988281 L 348.164062 169.972656 C 340.394531 154.050781 329.417969 139.363281 315.257812 125.914062 C 310.183594 121 303.132812 115.496094 294.097656 109.402344 L 294.082031 109.386719 C 288.800781 105.371094 278.367188 100.21875 262.78125 93.921875 C 244.476562 88.402344 227.140625 85.636719 210.804688 85.636719 C 189.1875 85.636719 169.277344 90.464844 151.101562 100.132812 C 151.042969 100.160156 150.984375 100.175781 150.925781 100.175781 C 150.824219 100.175781 150.734375 100.132812 150.660156 100.058594 C 150.542969 99.941406 150.53125 99.761719 150.601562 99.617188 L 150.691406 99.511719 C 166.65625 86.445312 184.421875 77.585938 203.964844 72.921875 C 202.34375 71.316406 200.34375 69.09375 197.972656 66.253906 C 195.324219 63.046875 193.234375 59.839844 191.703125 56.632812 C 189.378906 51.570312 189.570312 47.066406 192.265625 43.105469 C 194.882812 39.75 198.710938 37.972656 203.773438 37.765625 C 203.949219 37.75 204.140625 37.75 204.34375 37.75 C 205.949219 37.75 208.054688 38 210.671875 38.5 L 224.375 41.886719 C 225.535156 42.078125 226.476562 42.179688 227.214844 42.179688 C 227.90625 42.179688 228.40625 42.089844 228.714844 41.914062 C 229.699219 41.386719 230.332031 40.929688 230.585938 40.515625 C 233.527344 35.910156 235.410156 33.335938 236.21875 32.820312 C 237.867188 31.304688 239.824219 30.40625 242.0625 30.097656 C 242.753906 30.011719 243.429688 29.980469 244.121094 29.980469 C 247.992188 29.964844 251.6875 31.335938 255.160156 34.070312 Z M 228.125 60.855469 C 222.710938 60.855469 218.324219 65.238281 218.324219 70.65625 C 218.324219 76.070312 222.710938 80.457031 228.125 80.457031 C 233.542969 80.457031 237.925781 76.070312 237.925781 70.65625 C 237.925781 65.253906 233.542969 60.855469 228.125 60.855469 Z M 228.125 60.855469 " fill-opacity="1" fill-rule="nonzero"/></svg>