<svg xmlns="http://www.w3.org/2000/svg" xmlns:xlink="http://www.w3.org/1999/xlink" width="500" zoomAndPan="magnify" viewBox="0 0 375 374.999991" height="500" preserveAspectRatio="xMidYMid meet" version="1.0"><rect x="-37.5" width="450" fill="#ffffff" y="-37.499999" height="449.999989" fill-opacity="1"/><rect x="-37.5" width="450" fill="#ffffff" y="-37.499999" height="449.999989" fill-opacity="1"/><path fill="#82b9be" d="M 375.007812 187.503906 C 375.007812 190.570312 374.929688 193.640625 374.78125 196.703125 C 374.628906 199.769531 374.40625 202.828125 374.105469 205.882812 C 373.804688 208.9375 373.425781 211.980469 372.976562 215.015625 C 372.527344 218.050781 372.003906 221.074219 371.402344 224.082031 C 370.804688 227.09375 370.132812 230.085938 369.386719 233.0625 C 368.640625 236.039062 367.824219 238.996094 366.933594 241.933594 C 366.042969 244.867188 365.078125 247.78125 364.046875 250.671875 C 363.011719 253.558594 361.90625 256.421875 360.734375 259.257812 C 359.558594 262.09375 358.316406 264.898438 357.003906 267.671875 C 355.691406 270.445312 354.3125 273.183594 352.867188 275.890625 C 351.417969 278.597656 349.90625 281.265625 348.332031 283.898438 C 346.753906 286.53125 345.113281 289.121094 343.40625 291.675781 C 341.703125 294.226562 339.933594 296.734375 338.105469 299.199219 C 336.28125 301.664062 334.390625 304.082031 332.445312 306.453125 C 330.5 308.824219 328.496094 311.148438 326.433594 313.421875 C 324.375 315.695312 322.257812 317.917969 320.089844 320.089844 C 317.917969 322.257812 315.695312 324.375 313.421875 326.433594 C 311.148438 328.496094 308.824219 330.5 306.453125 332.445312 C 304.082031 334.390625 301.664062 336.28125 299.199219 338.105469 C 296.734375 339.933594 294.226562 341.703125 291.675781 343.40625 C 289.121094 345.113281 286.53125 346.753906 283.898438 348.332031 C 281.265625 349.90625 278.597656 351.417969 275.890625 352.867188 C 273.183594 354.3125 270.445312 355.691406 267.671875 357.003906 C 264.898438 358.316406 262.09375 359.558594 259.257812 360.734375 C 256.421875 361.90625 253.558594 363.011719 250.671875 364.046875 C 247.78125 365.078125 244.867188 366.042969 241.933594 366.933594 C 238.996094 367.824219 236.039062 368.640625 233.0625 369.386719 C 230.085938 370.132812 227.09375 370.804688 224.082031 371.402344 C 221.074219 372.003906 218.050781 372.527344 215.015625 372.976562 C 211.980469 373.425781 208.9375 373.804688 205.882812 374.105469 C 202.828125 374.40625 199.769531 374.628906 196.703125 374.78125 C 193.640625 374.929688 190.570312 375.007812 187.503906 375.007812 C 184.433594 375.007812 181.367188 374.929688 178.304688 374.78125 C 175.238281 374.628906 172.179688 374.40625 169.125 374.105469 C 166.070312 373.804688 163.027344 373.425781 159.992188 372.976562 C 156.957031 372.527344 153.933594 372.003906 150.921875 371.402344 C 147.914062 370.804688 144.921875 370.132812 141.945312 369.386719 C 138.96875 368.640625 136.011719 367.824219 133.074219 366.933594 C 130.136719 366.042969 127.222656 365.078125 124.335938 364.046875 C 121.445312 363.011719 118.582031 361.90625 115.75 360.734375 C 112.914062 359.558594 110.109375 358.316406 107.335938 357.003906 C 104.5625 355.691406 101.820312 354.3125 99.113281 352.867188 C 96.410156 351.417969 93.738281 349.90625 91.105469 348.332031 C 88.476562 346.753906 85.882812 345.113281 83.332031 343.40625 C 80.78125 341.703125 78.273438 339.933594 75.808594 338.105469 C 73.34375 336.28125 70.925781 334.390625 68.550781 332.445312 C 66.179688 330.5 63.859375 328.496094 61.582031 326.433594 C 59.308594 324.375 57.089844 322.257812 54.917969 320.089844 C 52.75 317.917969 50.632812 315.695312 48.574219 313.421875 C 46.511719 311.148438 44.507812 308.824219 42.5625 306.453125 C 40.613281 304.082031 38.726562 301.664062 36.898438 299.199219 C 35.070312 296.734375 33.304688 294.226562 31.601562 291.675781 C 29.894531 289.121094 28.253906 286.53125 26.675781 283.898438 C 25.097656 281.265625 23.585938 278.597656 22.140625 275.890625 C 20.695312 273.183594 19.3125 270.445312 18.003906 267.671875 C 16.691406 264.898438 15.445312 262.09375 14.273438 259.257812 C 13.097656 256.421875 11.996094 253.558594 10.960938 250.671875 C 9.925781 247.78125 8.964844 244.867188 8.074219 241.933594 C 7.183594 238.996094 6.363281 236.039062 5.621094 233.0625 C 4.875 230.085938 4.203125 227.09375 3.601562 224.082031 C 3.003906 221.074219 2.480469 218.050781 2.03125 215.015625 C 1.578125 211.980469 1.203125 208.9375 0.902344 205.882812 C 0.601562 202.828125 0.375 199.769531 0.226562 196.703125 C 0.0742188 193.640625 0 190.570312 0 187.503906 C 0 184.433594 0.0742188 181.367188 0.226562 178.304688 C 0.375 175.238281 0.601562 172.179688 0.902344 169.125 C 1.203125 166.070312 1.578125 163.027344 2.03125 159.992188 C 2.480469 156.957031 3.003906 153.933594 3.601562 150.921875 C 4.203125 147.914062 4.875 144.921875 5.621094 141.945312 C 6.363281 138.96875 7.183594 136.011719 8.074219 133.074219 C 8.964844 130.136719 9.925781 127.222656 10.960938 124.335938 C 11.996094 121.445312 13.097656 118.582031 14.273438 115.75 C 15.445312 112.914062 16.691406 110.109375 18.003906 107.335938 C 19.3125 104.5625 20.695312 101.820312 22.140625 99.113281 C 23.585938 96.410156 25.097656 93.738281 26.675781 91.105469 C 28.253906 88.476562 29.894531 85.882812 31.601562 83.332031 C 33.304688 80.78125 35.070312 78.273438 36.898438 75.808594 C 38.726562 73.34375 40.613281 70.925781 42.5625 68.550781 C 44.507812 66.179688 46.511719 63.859375 48.574219 61.582031 C 50.632812 59.308594 52.75 57.089844 54.917969 54.917969 C 57.089844 52.75 59.308594 50.632812 61.582031 48.574219 C 63.859375 46.511719 66.179688 44.507812 68.550781 42.5625 C 70.925781 40.613281 73.34375 38.726562 75.808594 36.898438 C 78.273438 35.070312 80.78125 33.304688 83.332031 31.601562 C 85.882812 29.894531 88.476562 28.253906 91.105469 26.675781 C 93.738281 25.097656 96.410156 23.585938 99.113281 22.140625 C 101.820312 20.695312 104.5625 19.3125 107.335938 18.003906 C 110.109375 16.691406 112.914062 15.445312 115.75 14.273438 C 118.582031 13.097656 121.445312 11.996094 124.335938 10.960938 C 127.222656 9.925781 130.136719 8.964844 133.074219 8.074219 C 136.011719 7.183594 138.96875 6.363281 141.945312 5.621094 C 144.921875 4.875 147.914062 4.203125 150.921875 3.601562 C 153.933594 3.003906 156.957031 2.480469 159.992188 2.03125 C 163.027344 1.578125 166.070312 1.203125 169.125 0.902344 C 172.179688 0.601562 175.238281 0.375 178.304688 0.226562 C 181.367188 0.0742188 184.433594 0 187.503906 0 C 190.570312 0 193.640625 0.0742188 196.703125 0.226562 C 199.769531 0.375 202.828125 0.601562 205.882812 0.902344 C 208.9375 1.203125 211.980469 1.578125 215.015625 2.03125 C 218.050781 2.480469 221.074219 3.003906 224.082031 3.601562 C 227.09375 4.203125 230.085938 4.875 233.0625 5.621094 C 236.039062 6.363281 238.996094 7.183594 241.933594 8.074219 C 244.867188 8.964844 247.78125 9.925781 250.671875 10.960938 C 253.558594 11.996094 256.421875 13.097656 259.257812 14.273438 C 262.09375 15.445312 264.898438 16.691406 267.671875 18.003906 C 270.445312 19.3125 273.183594 20.695312 275.890625 22.140625 C 278.597656 23.585938 281.265625 25.097656 283.898438 26.675781 C 286.53125 28.253906 289.121094 29.894531 291.675781 31.601562 C 294.226562 33.304688 296.734375 35.070312 299.199219 36.898438 C 301.664062 38.726562 304.082031 40.613281 306.453125 42.5625 C 308.824219 44.507812 311.148438 46.511719 313.421875 48.574219 C 315.695312 50.632812 317.917969 52.75 320.089844 54.917969 C 322.257812 57.089844 324.375 59.308594 326.433594 61.582031 C 328.496094 63.859375 330.5 66.179688 332.445312 68.550781 C 334.390625 70.925781 336.28125 73.34375 338.105469 75.808594 C 339.933594 78.273438 341.703125 80.78125 343.40625 83.332031 C 345.113281 85.882812 346.753906 88.476562 348.332031 91.105469 C 349.90625 93.738281 351.417969 96.410156 352.867188 99.113281 C 354.3125 101.820312 355.691406 104.5625 357.003906 107.335938 C 358.316406 110.109375 359.558594 112.914062 360.734375 115.75 C 361.90625 118.582031 363.011719 121.445312 364.046875 124.335938 C 365.078125 127.222656 366.042969 130.136719 366.933594 133.074219 C 367.824219 136.011719 368.640625 138.96875 369.386719 141.945312 C 370.132812 144.921875 370.804688 147.914062 371.402344 150.921875 C 372.003906 153.933594 372.527344 156.957031 372.976562 159.992188 C 373.425781 163.027344 373.804688 166.070312 374.105469 169.125 C 374.40625 172.179688 374.628906 175.238281 374.78125 178.304688 C 374.929688 181.367188 375.007812 184.433594 375.007812 187.503906 Z M 375.007812 187.503906 " fill-opacity="1" fill-rule="nonzero"/><path fill="#fddec2" d="M 185.617188 199.371094 C 176.789062 199.132812 129.609375 194.414062 126.316406 147.050781 C 123.019531 99.691406 134.167969 58.882812 154.925781 59.15625 C 175.679688 59.433594 186.882812 55.578125 186.882812 65.214844 C 186.882812 55.578125 198.082031 59.433594 218.839844 59.15625 C 239.59375 58.882812 248.214844 99.691406 244.921875 147.050781 C 241.625 194.414062 194.449219 199.609375 185.617188 199.371094 Z M 185.617188 199.371094 " fill-opacity="1" fill-rule="evenodd"/><path fill="#954744" d="M 189.476562 41.089844 C 169.070312 19.289062 153.535156 42.710938 141.476562 55.234375 C 129.417969 67.757812 117.589844 86.769531 97.183594 95.351562 C 76.777344 103.929688 94.742188 121.816406 94.566406 137.421875 C 94.390625 153.027344 94.574219 157.339844 79.3125 171.214844 C 64.046875 185.089844 75.21875 204.257812 80.671875 209.121094 C 80.671875 209.121094 74.1875 188.347656 81.703125 182.75 C 81.703125 182.75 72.347656 230.710938 126.28125 241.085938 C 126.28125 241.085938 119.933594 234.992188 120.949219 226.859375 C 120.949219 226.859375 129.421875 241.09375 153.648438 243.632812 C 153.648438 243.632812 167.375 222.964844 163.816406 193.652344 C 163.816406 193.652344 137.09375 174.648438 137.832031 154.316406 C 137.832031 154.316406 132.359375 155.160156 129.105469 151.285156 C 129.105469 151.285156 145.125 151.859375 151.632812 126.917969 C 158.140625 101.976562 161.933594 65.921875 188.230469 71.613281 C 214.527344 77.308594 211.101562 65.984375 220.152344 93.820312 C 229.203125 121.65625 240.328125 105.871094 242.449219 134.160156 C 244.570312 162.449219 220.996094 188.851562 212.511719 193.097656 C 212.511719 193.097656 204.382812 230.996094 223.714844 239.957031 C 243.042969 248.914062 253.886719 252.214844 261.433594 251.507812 C 268.976562 250.800781 289.488281 235.003906 288.308594 221.332031 C 287.128906 207.65625 273.925781 197.285156 288.308594 180.074219 C 302.6875 162.867188 303.152344 148.425781 291.128906 134.515625 C 279.105469 120.609375 295.371094 125.324219 293.957031 103.398438 C 292.542969 81.472656 269.894531 84.652344 250.375 63.234375 C 230.855469 41.816406 212.417969 14.164062 189.476562 41.089844 Z M 189.476562 41.089844 " fill-opacity="1" fill-rule="evenodd"/><path fill="#fddec2" d="M 187.789062 248.777344 L 188.226562 248.84375 L 188.679688 248.777344 L 188.414062 248.773438 Z M 187.789062 248.777344 " fill-opacity="1" fill-rule="evenodd"/><path fill="#fddec2" d="M 161.90625 186.726562 L 159.316406 212.289062 C 167.582031 220.3125 183.738281 221.28125 188.414062 221.390625 C 193.023438 221.285156 208.804688 220.335938 217.167969 212.613281 L 214.546875 186.726562 L 188.226562 190.058594 Z M 161.90625 186.726562 " fill-opacity="1" fill-rule="evenodd"/><path fill="#ed7a71" d="M 153.5 219.746094 C 116.128906 236.4375 89.617188 247.070312 75.472656 274.023438 C 71.207031 282.144531 65.023438 304.273438 60.046875 325.007812 C 93.054688 355.617188 137.09375 374.484375 185.542969 374.980469 C 186.804688 374.972656 187.503906 374.96875 187.503906 374.96875 C 187.503906 374.96875 188.203125 374.972656 189.464844 374.980469 C 237.910156 374.484375 281.953125 355.613281 314.960938 325.007812 C 309.984375 304.273438 303.796875 282.144531 299.535156 274.023438 C 285.390625 247.070312 258.878906 236.4375 221.507812 219.746094 L 187.503906 217.398438 Z M 153.5 219.746094 " fill-opacity="1" fill-rule="evenodd"/><path fill="#d74947" d="M 188.414062 206.632812 C 183.703125 206.519531 167.316406 205.535156 159.113281 197.332031 C 159.113281 197.332031 155.683594 196.691406 155.265625 200.796875 C 154.847656 204.902344 154.429688 221.667969 154.429688 221.667969 C 154.429688 221.667969 159.5 233.519531 187.523438 234.003906 L 187.523438 234.019531 C 187.824219 234.019531 188.117188 234.015625 188.414062 234.015625 C 188.707031 234.015625 189.003906 234.019531 189.300781 234.019531 L 189.300781 234.003906 C 217.324219 233.519531 222.398438 221.667969 222.398438 221.667969 C 222.398438 221.667969 221.976562 204.902344 221.558594 200.796875 C 221.140625 196.691406 217.710938 197.332031 217.710938 197.332031 C 209.507812 205.535156 193.125 206.519531 188.414062 206.632812 Z M 188.414062 206.632812 " fill-opacity="1" fill-rule="evenodd"/><path fill="#954744" d="M 186.785156 135.609375 C 186.351562 134.851562 186.613281 133.886719 187.371094 133.449219 C 188.125 133.015625 189.09375 133.277344 189.527344 134.035156 C 191.519531 137.492188 194.285156 139.265625 196.378906 140.609375 C 199.121094 142.371094 201.011719 143.585938 200.171875 146.550781 L 200.144531 146.652344 C 199.480469 148.894531 197.960938 150.695312 196.066406 151.78125 C 194.160156 152.875 191.863281 153.25 189.671875 152.628906 L 189.582031 152.601562 C 188.742188 152.355469 188.261719 151.476562 188.507812 150.636719 C 188.753906 149.796875 189.636719 149.316406 190.472656 149.566406 C 190.5 149.574219 190.46875 149.5625 190.527344 149.578125 C 191.867188 149.957031 193.292969 149.714844 194.492188 149.027344 C 195.710938 148.328125 196.683594 147.179688 197.105469 145.757812 C 197.113281 145.730469 197.105469 145.757812 197.121094 145.695312 C 197.324219 144.984375 196.238281 144.285156 194.664062 143.277344 C 192.300781 141.757812 189.171875 139.75 186.785156 135.609375 Z M 186.785156 135.609375 " fill-opacity="1" fill-rule="nonzero"/><path fill="#954744" d="M 198.4375 161.878906 C 199.175781 161.410156 200.152344 161.632812 200.617188 162.375 C 201.085938 163.113281 200.863281 164.089844 200.121094 164.554688 C 199.996094 164.636719 199.871094 164.707031 199.742188 164.777344 C 197.734375 165.839844 193.226562 166.695312 188.445312 165.914062 C 183.640625 165.128906 178.472656 162.730469 175.070312 157.316406 C 174.800781 156.890625 174.546875 156.453125 174.3125 156.003906 C 173.90625 155.230469 174.203125 154.273438 174.976562 153.867188 C 175.75 153.457031 176.707031 153.757812 177.113281 154.53125 C 177.320312 154.917969 177.53125 155.285156 177.746094 155.628906 C 180.578125 160.128906 184.914062 162.128906 188.953125 162.789062 C 193.015625 163.453125 196.691406 162.804688 198.269531 161.972656 C 198.335938 161.9375 198.394531 161.902344 198.4375 161.878906 Z M 198.4375 161.878906 " fill-opacity="1" fill-rule="nonzero"/><path fill="#954744" d="M 215.480469 128.445312 C 215.480469 128.992188 215.445312 129.539062 215.371094 130.078125 C 215.300781 130.617188 215.195312 131.140625 215.054688 131.648438 C 214.910156 132.15625 214.738281 132.636719 214.535156 133.09375 C 214.328125 133.550781 214.097656 133.972656 213.835938 134.363281 C 213.574219 134.75 213.292969 135.097656 212.984375 135.402344 C 212.679688 135.707031 212.355469 135.964844 212.015625 136.175781 C 211.675781 136.386719 211.324219 136.546875 210.964844 136.652344 C 210.601562 136.761719 210.238281 136.8125 209.867188 136.8125 C 209.5 136.8125 209.136719 136.761719 208.773438 136.652344 C 208.414062 136.546875 208.0625 136.386719 207.722656 136.175781 C 207.382812 135.964844 207.058594 135.707031 206.75 135.402344 C 206.445312 135.097656 206.160156 134.75 205.902344 134.363281 C 205.640625 133.972656 205.40625 133.550781 205.203125 133.09375 C 205 132.636719 204.824219 132.15625 204.683594 131.648438 C 204.542969 131.140625 204.4375 130.617188 204.367188 130.078125 C 204.292969 129.539062 204.257812 128.992188 204.257812 128.445312 C 204.257812 127.894531 204.292969 127.351562 204.367188 126.8125 C 204.4375 126.273438 204.542969 125.75 204.683594 125.242188 C 204.824219 124.734375 205 124.25 205.203125 123.792969 C 205.40625 123.335938 205.640625 122.914062 205.902344 122.523438 C 206.160156 122.136719 206.445312 121.789062 206.75 121.484375 C 207.058594 121.179688 207.382812 120.921875 207.722656 120.710938 C 208.0625 120.5 208.414062 120.34375 208.773438 120.234375 C 209.136719 120.128906 209.5 120.074219 209.867188 120.074219 C 210.238281 120.074219 210.601562 120.128906 210.964844 120.234375 C 211.324219 120.34375 211.675781 120.5 212.015625 120.710938 C 212.355469 120.921875 212.679688 121.179688 212.984375 121.484375 C 213.292969 121.789062 213.574219 122.136719 213.835938 122.523438 C 214.097656 122.914062 214.328125 123.335938 214.535156 123.792969 C 214.738281 124.25 214.910156 124.734375 215.054688 125.242188 C 215.195312 125.75 215.300781 126.273438 215.371094 126.8125 C 215.445312 127.351562 215.480469 127.894531 215.480469 128.445312 Z M 215.480469 128.445312 " fill-opacity="1" fill-rule="nonzero"/><path fill="#954744" d="M 219.621094 116.394531 C 220.234375 117.015625 220.226562 118.019531 219.601562 118.632812 C 218.980469 119.246094 217.976562 119.238281 217.363281 118.613281 C 215.371094 116.589844 213.046875 115.382812 210.683594 115.089844 C 208.40625 114.808594 206.0625 115.378906 203.917969 116.890625 C 203.203125 117.394531 202.214844 117.222656 201.710938 116.507812 C 201.207031 115.789062 201.378906 114.800781 202.09375 114.300781 C 204.917969 112.3125 208.023438 111.566406 211.066406 111.941406 C 214.136719 112.320312 217.113281 113.84375 219.621094 116.394531 Z M 219.621094 116.394531 " fill-opacity="1" fill-rule="nonzero"/><path fill="#954744" d="M 175.03125 128.445312 C 175.03125 128.992188 174.992188 129.539062 174.921875 130.078125 C 174.851562 130.617188 174.742188 131.140625 174.601562 131.648438 C 174.460938 132.15625 174.289062 132.636719 174.082031 133.09375 C 173.878906 133.550781 173.644531 133.972656 173.386719 134.363281 C 173.125 134.75 172.84375 135.097656 172.535156 135.402344 C 172.230469 135.707031 171.90625 135.964844 171.566406 136.175781 C 171.226562 136.386719 170.875 136.546875 170.511719 136.652344 C 170.152344 136.761719 169.785156 136.8125 169.417969 136.8125 C 169.050781 136.8125 168.683594 136.761719 168.324219 136.652344 C 167.960938 136.546875 167.609375 136.386719 167.269531 136.175781 C 166.929688 135.964844 166.605469 135.707031 166.300781 135.402344 C 165.996094 135.097656 165.710938 134.75 165.449219 134.363281 C 165.191406 133.972656 164.957031 133.550781 164.753906 133.09375 C 164.546875 132.636719 164.375 132.15625 164.234375 131.648438 C 164.09375 131.140625 163.988281 130.617188 163.914062 130.078125 C 163.84375 129.539062 163.808594 128.992188 163.808594 128.445312 C 163.808594 127.894531 163.84375 127.351562 163.914062 126.8125 C 163.988281 126.273438 164.09375 125.75 164.234375 125.242188 C 164.375 124.734375 164.546875 124.25 164.753906 123.792969 C 164.957031 123.335938 165.191406 122.914062 165.449219 122.523438 C 165.710938 122.136719 165.996094 121.789062 166.300781 121.484375 C 166.605469 121.179688 166.929688 120.921875 167.269531 120.710938 C 167.609375 120.5 167.960938 120.34375 168.324219 120.234375 C 168.683594 120.128906 169.050781 120.074219 169.417969 120.074219 C 169.785156 120.074219 170.152344 120.128906 170.511719 120.234375 C 170.875 120.34375 171.226562 120.5 171.566406 120.710938 C 171.90625 120.921875 172.230469 121.179688 172.535156 121.484375 C 172.84375 121.789062 173.125 122.136719 173.386719 122.523438 C 173.644531 122.914062 173.878906 123.335938 174.082031 123.792969 C 174.289062 124.25 174.460938 124.734375 174.601562 125.242188 C 174.742188 125.75 174.851562 126.273438 174.921875 126.8125 C 174.992188 127.351562 175.03125 127.894531 175.03125 128.445312 Z M 175.03125 128.445312 " fill-opacity="1" fill-rule="nonzero"/><path fill="#954744" d="M 161.921875 118.613281 C 161.308594 119.238281 160.308594 119.246094 159.683594 118.632812 C 159.058594 118.019531 159.050781 117.015625 159.664062 116.394531 C 162.175781 113.84375 165.148438 112.320312 168.21875 111.941406 C 171.261719 111.566406 174.371094 112.3125 177.191406 114.300781 C 177.90625 114.800781 178.078125 115.789062 177.574219 116.507812 C 177.070312 117.222656 176.082031 117.394531 175.367188 116.890625 C 173.222656 115.378906 170.882812 114.808594 168.605469 115.089844 C 166.238281 115.382812 163.914062 116.589844 161.921875 118.613281 Z M 161.921875 118.613281 " fill-opacity="1" fill-rule="nonzero"/><path fill="#ed7a71" d="M 220.796875 143.648438 C 220.496094 143.710938 220.203125 143.792969 219.917969 143.894531 C 219.632812 143.992188 219.359375 144.109375 219.097656 144.246094 C 218.835938 144.378906 218.59375 144.53125 218.367188 144.691406 C 218.140625 144.855469 217.933594 145.03125 217.753906 145.21875 C 217.570312 145.40625 217.414062 145.597656 217.28125 145.800781 C 217.148438 146.003906 217.042969 146.207031 216.96875 146.417969 C 216.890625 146.628906 216.847656 146.835938 216.828125 147.046875 C 216.8125 147.253906 216.824219 147.460938 216.863281 147.660156 C 216.90625 147.863281 216.976562 148.054688 217.078125 148.242188 C 217.175781 148.425781 217.304688 148.597656 217.457031 148.761719 C 217.609375 148.921875 217.789062 149.070312 217.988281 149.203125 C 218.191406 149.335938 218.414062 149.449219 218.652344 149.546875 C 218.894531 149.644531 219.152344 149.722656 219.425781 149.785156 C 219.699219 149.84375 219.980469 149.882812 220.273438 149.902344 C 220.566406 149.921875 220.867188 149.921875 221.167969 149.898438 C 221.472656 149.875 221.773438 149.832031 222.074219 149.769531 C 222.371094 149.707031 222.664062 149.628906 222.953125 149.527344 C 223.238281 149.425781 223.511719 149.308594 223.773438 149.175781 C 224.035156 149.039062 224.277344 148.890625 224.503906 148.726562 C 224.730469 148.5625 224.933594 148.386719 225.117188 148.203125 C 225.300781 148.015625 225.457031 147.820312 225.589844 147.621094 C 225.722656 147.417969 225.824219 147.210938 225.902344 147.003906 C 225.976562 146.792969 226.023438 146.582031 226.042969 146.375 C 226.058594 146.164062 226.046875 145.960938 226.003906 145.757812 C 225.964844 145.558594 225.894531 145.363281 225.792969 145.179688 C 225.695312 144.996094 225.566406 144.820312 225.414062 144.660156 C 225.261719 144.496094 225.082031 144.351562 224.882812 144.21875 C 224.679688 144.085938 224.457031 143.96875 224.214844 143.871094 C 223.972656 143.773438 223.71875 143.695312 223.445312 143.636719 C 223.171875 143.578125 222.886719 143.535156 222.59375 143.519531 C 222.300781 143.5 222.003906 143.5 221.703125 143.523438 C 221.398438 143.542969 221.097656 143.585938 220.796875 143.648438 Z M 220.796875 143.648438 " fill-opacity="1" fill-rule="nonzero"/><path fill="#ed7a71" d="M 159.277344 143.652344 C 159.578125 143.714844 159.871094 143.792969 160.15625 143.894531 C 160.441406 143.996094 160.714844 144.113281 160.976562 144.246094 C 161.238281 144.382812 161.484375 144.53125 161.710938 144.695312 C 161.933594 144.859375 162.140625 145.035156 162.324219 145.21875 C 162.503906 145.40625 162.664062 145.601562 162.792969 145.800781 C 162.925781 146.003906 163.03125 146.210938 163.105469 146.417969 C 163.183594 146.628906 163.230469 146.839844 163.246094 147.046875 C 163.265625 147.257812 163.253906 147.460938 163.210938 147.664062 C 163.167969 147.863281 163.097656 148.058594 163 148.242188 C 162.898438 148.425781 162.773438 148.601562 162.617188 148.761719 C 162.464844 148.925781 162.289062 149.070312 162.085938 149.203125 C 161.882812 149.335938 161.664062 149.453125 161.421875 149.550781 C 161.179688 149.648438 160.921875 149.726562 160.648438 149.785156 C 160.375 149.84375 160.09375 149.886719 159.800781 149.902344 C 159.507812 149.921875 159.210938 149.921875 158.90625 149.898438 C 158.605469 149.878906 158.304688 149.835938 158.003906 149.773438 C 157.703125 149.710938 157.410156 149.628906 157.125 149.527344 C 156.835938 149.429688 156.5625 149.3125 156.300781 149.175781 C 156.042969 149.042969 155.796875 148.890625 155.570312 148.730469 C 155.34375 148.566406 155.140625 148.390625 154.957031 148.203125 C 154.773438 148.015625 154.617188 147.824219 154.484375 147.621094 C 154.355469 147.417969 154.25 147.214844 154.171875 147.003906 C 154.097656 146.792969 154.050781 146.585938 154.03125 146.375 C 154.015625 146.167969 154.027344 145.960938 154.070312 145.761719 C 154.113281 145.558594 154.183594 145.367188 154.28125 145.179688 C 154.382812 144.996094 154.507812 144.824219 154.660156 144.660156 C 154.816406 144.5 154.992188 144.351562 155.195312 144.21875 C 155.394531 144.085938 155.617188 143.972656 155.859375 143.875 C 156.101562 143.777344 156.359375 143.699219 156.628906 143.636719 C 156.902344 143.578125 157.1875 143.539062 157.480469 143.519531 C 157.773438 143.5 158.070312 143.5 158.375 143.523438 C 158.675781 143.546875 158.976562 143.589844 159.277344 143.652344 Z M 159.277344 143.652344 " fill-opacity="1" fill-rule="nonzero"/></svg>