<svg xmlns="http://www.w3.org/2000/svg" xmlns:xlink="http://www.w3.org/1999/xlink" width="500" zoomAndPan="magnify" viewBox="0 0 375 374.999991" height="500" preserveAspectRatio="xMidYMid meet" version="1.0"><defs><clipPath id="01a052dec7"><path d="M 8.671875 17 L 366.421875 17 L 366.421875 375 L 8.671875 375 Z M 8.671875 17 " clip-rule="nonzero"/></clipPath></defs><rect x="-37.5" width="450" fill="#ffffff" y="-37.499999" height="449.999989" fill-opacity="1"/><rect x="-37.5" width="450" fill="#ffffff" y="-37.499999" height="449.999989" fill-opacity="1"/><g clip-path="url(#01a052dec7)"><path fill="#82b9be" d="M 366.449219 195.9375 C 366.449219 198.867188 366.375 201.789062 366.230469 204.714844 C 366.089844 207.636719 365.871094 210.554688 365.585938 213.46875 C 365.300781 216.378906 364.941406 219.285156 364.511719 222.179688 C 364.082031 225.074219 363.582031 227.957031 363.011719 230.828125 C 362.4375 233.699219 361.796875 236.554688 361.085938 239.390625 C 360.375 242.230469 359.59375 245.050781 358.746094 247.851562 C 357.894531 250.652344 356.976562 253.429688 355.992188 256.1875 C 355.003906 258.941406 353.953125 261.671875 352.832031 264.375 C 351.710938 267.078125 350.523438 269.753906 349.273438 272.398438 C 348.019531 275.046875 346.707031 277.660156 345.324219 280.238281 C 343.945312 282.820312 342.503906 285.367188 340.996094 287.878906 C 339.492188 290.386719 337.925781 292.859375 336.300781 295.292969 C 334.675781 297.726562 332.988281 300.117188 331.246094 302.46875 C 329.5 304.820312 327.699219 307.125 325.84375 309.390625 C 323.988281 311.652344 322.074219 313.867188 320.109375 316.035156 C 318.144531 318.203125 316.125 320.324219 314.054688 322.390625 C 311.984375 324.460938 309.867188 326.480469 307.695312 328.445312 C 305.527344 330.410156 303.3125 332.320312 301.046875 334.179688 C 298.785156 336.035156 296.476562 337.835938 294.125 339.578125 C 291.773438 341.320312 289.382812 343.007812 286.949219 344.632812 C 284.515625 346.257812 282.042969 347.824219 279.53125 349.328125 C 277.019531 350.832031 274.472656 352.273438 271.890625 353.65625 C 269.308594 355.035156 266.695312 356.347656 264.050781 357.601562 C 261.402344 358.851562 258.726562 360.039062 256.023438 361.15625 C 253.316406 362.277344 250.585938 363.332031 247.832031 364.316406 C 245.074219 365.304688 242.296875 366.21875 239.496094 367.070312 C 236.691406 367.917969 233.871094 368.699219 231.03125 369.410156 C 228.191406 370.121094 225.335938 370.761719 222.464844 371.335938 C 219.59375 371.90625 216.710938 372.40625 213.816406 372.835938 C 210.921875 373.265625 208.015625 373.621094 205.101562 373.910156 C 202.1875 374.195312 199.269531 374.410156 196.347656 374.554688 C 193.421875 374.699219 190.496094 374.769531 187.570312 374.769531 C 184.640625 374.769531 181.714844 374.699219 178.792969 374.554688 C 175.867188 374.410156 172.949219 374.195312 170.035156 373.910156 C 167.121094 373.621094 164.21875 373.265625 161.320312 372.835938 C 158.425781 372.40625 155.542969 371.90625 152.671875 371.335938 C 149.800781 370.761719 146.945312 370.121094 144.105469 369.410156 C 141.265625 368.699219 138.445312 367.917969 135.644531 367.070312 C 132.84375 366.21875 130.0625 365.304688 127.308594 364.316406 C 124.550781 363.332031 121.820312 362.277344 119.117188 361.15625 C 116.410156 360.039062 113.734375 358.851562 111.089844 357.601562 C 108.441406 356.347656 105.828125 355.035156 103.246094 353.65625 C 100.664062 352.273438 98.117188 350.832031 95.605469 349.328125 C 93.097656 347.824219 90.625 346.257812 88.191406 344.632812 C 85.753906 343.007812 83.363281 341.320312 81.011719 339.578125 C 78.660156 337.835938 76.351562 336.035156 74.089844 334.179688 C 71.828125 332.320312 69.609375 330.410156 67.441406 328.445312 C 65.273438 326.480469 63.152344 324.460938 61.082031 322.390625 C 59.011719 320.324219 56.996094 318.203125 55.027344 316.035156 C 53.0625 313.867188 51.152344 311.652344 49.292969 309.390625 C 47.4375 307.125 45.636719 304.820312 43.894531 302.46875 C 42.148438 300.117188 40.464844 297.726562 38.835938 295.292969 C 37.210938 292.859375 35.644531 290.386719 34.140625 287.878906 C 32.636719 285.367188 31.191406 282.820312 29.8125 280.238281 C 28.433594 277.660156 27.117188 275.046875 25.863281 272.398438 C 24.613281 269.753906 23.425781 267.078125 22.308594 264.375 C 21.1875 261.671875 20.132812 258.941406 19.148438 256.1875 C 18.160156 253.429688 17.242188 250.652344 16.394531 247.851562 C 15.542969 245.050781 14.761719 242.230469 14.050781 239.390625 C 13.339844 236.554688 12.699219 233.699219 12.128906 230.828125 C 11.558594 227.957031 11.054688 225.074219 10.625 222.179688 C 10.199219 219.285156 9.839844 216.378906 9.550781 213.46875 C 9.265625 210.554688 9.050781 207.636719 8.90625 204.714844 C 8.761719 201.789062 8.691406 198.867188 8.691406 195.9375 C 8.691406 193.011719 8.761719 190.085938 8.90625 187.164062 C 9.050781 184.242188 9.265625 181.324219 9.550781 178.410156 C 9.839844 175.5 10.199219 172.59375 10.625 169.699219 C 11.054688 166.804688 11.558594 163.921875 12.128906 161.050781 C 12.699219 158.179688 13.339844 155.324219 14.050781 152.488281 C 14.761719 149.648438 15.542969 146.828125 16.394531 144.027344 C 17.242188 141.226562 18.160156 138.449219 19.148438 135.691406 C 20.132812 132.9375 21.1875 130.207031 22.308594 127.503906 C 23.425781 124.800781 24.613281 122.125 25.863281 119.480469 C 27.117188 116.832031 28.433594 114.21875 29.8125 111.640625 C 31.191406 109.058594 32.636719 106.511719 34.140625 104 C 35.644531 101.492188 37.210938 99.019531 38.835938 96.585938 C 40.464844 94.152344 42.148438 91.761719 43.894531 89.410156 C 45.636719 87.058594 47.4375 84.753906 49.292969 82.488281 C 51.152344 80.226562 53.0625 78.011719 55.027344 75.84375 C 56.996094 73.675781 59.011719 71.554688 61.082031 69.488281 C 63.152344 67.417969 65.273438 65.398438 67.441406 63.433594 C 69.609375 61.46875 71.828125 59.558594 74.089844 57.699219 C 76.351562 55.84375 78.660156 54.042969 81.011719 52.300781 C 83.363281 50.558594 85.753906 48.871094 88.191406 47.246094 C 90.625 45.621094 93.097656 44.054688 95.605469 42.550781 C 98.117188 41.046875 100.664062 39.605469 103.246094 38.222656 C 105.828125 36.84375 108.441406 35.527344 111.089844 34.277344 C 113.734375 33.027344 116.410156 31.839844 119.117188 30.722656 C 121.820312 29.601562 124.550781 28.546875 127.308594 27.5625 C 130.0625 26.574219 132.84375 25.65625 135.644531 24.808594 C 138.445312 23.957031 141.265625 23.179688 144.105469 22.46875 C 146.945312 21.757812 149.800781 21.113281 152.671875 20.542969 C 155.542969 19.972656 158.425781 19.472656 161.320312 19.042969 C 164.21875 18.613281 167.121094 18.257812 170.035156 17.96875 C 172.949219 17.683594 175.867188 17.46875 178.792969 17.324219 C 181.714844 17.179688 184.640625 17.109375 187.570312 17.109375 C 190.496094 17.109375 193.421875 17.179688 196.347656 17.324219 C 199.269531 17.46875 202.1875 17.683594 205.101562 17.96875 C 208.015625 18.257812 210.921875 18.613281 213.816406 19.042969 C 216.710938 19.472656 219.59375 19.972656 222.464844 20.542969 C 225.335938 21.113281 228.191406 21.757812 231.03125 22.46875 C 233.871094 23.179688 236.691406 23.957031 239.496094 24.808594 C 242.296875 25.65625 245.074219 26.574219 247.832031 27.5625 C 250.585938 28.546875 253.316406 29.601562 256.023438 30.722656 C 258.726562 31.839844 261.402344 33.027344 264.050781 34.277344 C 266.695312 35.527344 269.308594 36.84375 271.890625 38.222656 C 274.472656 39.605469 277.019531 41.046875 279.53125 42.550781 C 282.042969 44.054688 284.515625 45.621094 286.949219 47.246094 C 289.382812 48.871094 291.773438 50.558594 294.125 52.300781 C 296.476562 54.042969 298.785156 55.84375 301.046875 57.699219 C 303.3125 59.558594 305.527344 61.46875 307.695312 63.433594 C 309.867188 65.398438 311.984375 67.417969 314.054688 69.488281 C 316.125 71.554688 318.144531 73.675781 320.109375 75.84375 C 322.074219 78.011719 323.988281 80.226562 325.84375 82.488281 C 327.699219 84.753906 329.5 87.058594 331.246094 89.410156 C 332.988281 91.761719 334.675781 94.152344 336.300781 96.585938 C 337.925781 99.019531 339.492188 101.492188 340.996094 104 C 342.503906 106.511719 343.945312 109.058594 345.324219 111.640625 C 346.707031 114.21875 348.019531 116.832031 349.273438 119.480469 C 350.523438 122.125 351.710938 124.800781 352.832031 127.503906 C 353.953125 130.207031 355.003906 132.9375 355.992188 135.691406 C 356.976562 138.449219 357.894531 141.226562 358.746094 144.027344 C 359.59375 146.828125 360.375 149.648438 361.085938 152.488281 C 361.796875 155.324219 362.4375 158.179688 363.011719 161.050781 C 363.582031 163.921875 364.082031 166.804688 364.511719 169.699219 C 364.941406 172.59375 365.300781 175.5 365.585938 178.410156 C 365.871094 181.324219 366.089844 184.242188 366.230469 187.164062 C 366.375 190.085938 366.449219 193.011719 366.449219 195.9375 Z M 366.449219 195.9375 " fill-opacity="1" fill-rule="nonzero"/></g><path fill="#fddec2" d="M 158.734375 198.011719 L 156.046875 223.332031 L 140.894531 241.671875 L 164.886719 267.574219 C 164.886719 267.574219 206.4375 264.445312 208.664062 262.585938 C 210.890625 260.730469 215.375 217.207031 215.375 217.207031 L 204.679688 189.515625 C 191.746094 198.519531 174.304688 201.613281 158.734375 198.015625 Z M 158.734375 198.011719 " fill-opacity="1" fill-rule="evenodd"/><path fill="#ebc5a4" d="M 158.734375 198.011719 L 157.277344 211.746094 C 157.277344 211.746094 183.980469 229.6875 212.121094 208.785156 L 204.679688 189.515625 C 191.746094 198.519531 174.304688 201.613281 158.734375 198.011719 Z M 158.734375 198.011719 " fill-opacity="1" fill-rule="evenodd"/><path fill="#ed7a71" d="M 215.375 217.207031 C 187.46875 270.3125 143.308594 251.371094 156.046875 223.332031 C 156.046875 223.332031 112.308594 231.574219 76.671875 265.542969 C 64.203125 277.425781 59.363281 296.664062 56.023438 317.097656 C 88.707031 352.554688 135.539062 374.769531 187.566406 374.769531 C 243.070312 374.769531 292.65625 349.496094 325.464844 309.832031 C 305.1875 251.082031 306.621094 261.71875 215.375 217.207031 Z M 215.375 217.207031 " fill-opacity="1" fill-rule="evenodd"/><path fill="#ebc5a4" d="M 156.046875 223.332031 C 156.046875 223.472656 149.066406 225.035156 148.671875 225.144531 C 145.589844 241.929688 152.761719 255.785156 171.398438 256.414062 C 192.839844 257.140625 212.941406 237.5 224.53125 221.640625 C 221.582031 220.222656 218.539062 218.75 215.375 217.207031 C 207.816406 226.46875 190.558594 248.464844 170.585938 246.875 C 152.554688 245.441406 156.3125 223.597656 156.046875 223.332031 Z M 156.046875 223.332031 " fill-opacity="1" fill-rule="evenodd"/><path fill="#fddec2" d="M 122.335938 163.242188 C 127.832031 190.46875 132.949219 208.566406 163.851562 212.980469 C 194.75 217.390625 213.714844 206.574219 222.929688 172.671875 C 222.929688 172.671875 251.21875 170.214844 239.609375 140.222656 L 225.910156 157.953125 C 225.910156 157.953125 234.785156 116.886719 223.367188 102.609375 C 223.367188 102.609375 199.648438 112.007812 175.730469 81.164062 C 175.730469 81.164062 179.957031 105.902344 217.234375 112.132812 C 217.234375 112.132812 179.347656 122.949219 149.59375 83.195312 C 149.59375 83.195312 120.980469 87.59375 120.113281 149.085938 L 114.613281 130.660156 C 114.613281 130.660156 107.308594 126.347656 105.617188 134.21875 C 103.929688 142.085938 105.578125 165.425781 122.335938 163.242188 Z M 122.335938 163.242188 " fill-opacity="1" fill-rule="evenodd"/><path fill="#954744" d="M 181.933594 50.199219 C 193.269531 20.984375 223.164062 -0.0507812 258.765625 9.253906 C 294.367188 18.5625 275.519531 66.847656 279.3125 101.058594 C 283.101562 135.269531 323.3125 156.957031 329.582031 111.800781 C 329.582031 111.800781 338.398438 138.125 313.453125 150.679688 C 313.453125 150.679688 333.375 160.652344 338.363281 146.367188 C 338.363281 146.367188 336.867188 167.023438 308.757812 165.296875 C 308.757812 165.296875 320.628906 179.195312 300.140625 185.976562 C 279.652344 192.761719 269.867188 181.265625 259.1875 174.332031 C 249.332031 167.933594 241.433594 178.707031 231.722656 170.097656 C 238.875 166.621094 246.714844 158.582031 239.609375 140.222656 L 225.910156 157.949219 C 225.910156 157.949219 234.785156 116.886719 223.367188 102.609375 C 223.367188 102.609375 199.648438 112.007812 175.730469 81.164062 C 175.730469 81.164062 179.957031 105.898438 217.234375 112.132812 C 217.234375 112.132812 179.347656 122.949219 149.59375 83.195312 C 149.59375 83.195312 120.980469 87.59375 120.113281 149.085938 L 114.613281 130.660156 C 114.613281 130.660156 95.984375 43.820312 181.933594 50.199219 Z M 181.933594 50.199219 " fill-opacity="1" fill-rule="evenodd"/><path fill="#954744" d="M 158.792969 139.40625 C 159.050781 138.585938 159.921875 138.128906 160.742188 138.382812 C 161.558594 138.640625 162.019531 139.511719 161.761719 140.332031 C 160.71875 143.644531 159.558594 146.890625 158.441406 150.015625 C 156.601562 155.164062 154.886719 159.972656 154.171875 163.644531 C 153.511719 167.046875 153.691406 169.347656 155.542969 169.707031 C 161.269531 170.820312 161.773438 168.113281 161.773438 168.105469 C 161.949219 167.265625 162.769531 166.726562 163.609375 166.898438 C 164.449219 167.074219 164.988281 167.898438 164.816406 168.738281 C 164.8125 168.753906 163.710938 174.464844 154.957031 172.761719 C 150.800781 171.953125 150.097656 168.3125 151.117188 163.0625 C 151.882812 159.121094 153.636719 154.21875 155.511719 148.96875 C 156.632812 145.824219 157.800781 142.554688 158.792969 139.40625 Z M 158.792969 139.40625 " fill-opacity="1" fill-rule="nonzero"/><path fill="#954744" d="M 134.714844 129.695312 C 133.964844 130.105469 133.023438 129.835938 132.609375 129.085938 C 132.195312 128.335938 132.46875 127.394531 133.21875 126.980469 C 142.585938 121.796875 151.097656 127.804688 151.121094 127.820312 C 151.828125 128.308594 152.003906 129.273438 151.515625 129.980469 C 151.027344 130.6875 150.0625 130.863281 149.355469 130.375 C 149.335938 130.363281 142.378906 125.453125 134.714844 129.695312 Z M 134.714844 129.695312 " fill-opacity="1" fill-rule="nonzero"/><path fill="#954744" d="M 147.269531 144.378906 C 147.269531 144.917969 147.230469 145.457031 147.15625 145.984375 C 147.082031 146.515625 146.96875 147.03125 146.820312 147.53125 C 146.671875 148.03125 146.488281 148.507812 146.269531 148.957031 C 146.054688 149.40625 145.808594 149.824219 145.535156 150.203125 C 145.257812 150.585938 144.960938 150.929688 144.636719 151.230469 C 144.3125 151.53125 143.972656 151.785156 143.613281 151.992188 C 143.253906 152.199219 142.882812 152.355469 142.5 152.460938 C 142.117188 152.566406 141.734375 152.617188 141.34375 152.617188 C 140.953125 152.617188 140.570312 152.566406 140.1875 152.460938 C 139.804688 152.355469 139.4375 152.199219 139.074219 151.992188 C 138.714844 151.785156 138.375 151.53125 138.050781 151.230469 C 137.726562 150.929688 137.429688 150.585938 137.152344 150.203125 C 136.878906 149.824219 136.632812 149.40625 136.417969 148.957031 C 136.199219 148.507812 136.019531 148.03125 135.867188 147.53125 C 135.71875 147.03125 135.609375 146.515625 135.53125 145.984375 C 135.457031 145.457031 135.417969 144.917969 135.417969 144.378906 C 135.417969 143.835938 135.457031 143.300781 135.53125 142.769531 C 135.609375 142.242188 135.71875 141.726562 135.867188 141.226562 C 136.019531 140.726562 136.199219 140.25 136.417969 139.800781 C 136.632812 139.351562 136.878906 138.933594 137.152344 138.550781 C 137.429688 138.167969 137.726562 137.828125 138.050781 137.527344 C 138.375 137.226562 138.714844 136.972656 139.074219 136.765625 C 139.4375 136.558594 139.804688 136.402344 140.1875 136.296875 C 140.570312 136.191406 140.953125 136.140625 141.34375 136.140625 C 141.734375 136.140625 142.117188 136.191406 142.5 136.296875 C 142.882812 136.402344 143.253906 136.558594 143.613281 136.765625 C 143.972656 136.972656 144.3125 137.226562 144.636719 137.527344 C 144.960938 137.828125 145.257812 138.167969 145.535156 138.550781 C 145.808594 138.933594 146.054688 139.351562 146.269531 139.800781 C 146.488281 140.25 146.671875 140.726562 146.820312 141.226562 C 146.96875 141.726562 147.082031 142.242188 147.15625 142.769531 C 147.230469 143.300781 147.269531 143.835938 147.269531 144.378906 Z M 147.269531 144.378906 " fill-opacity="1" fill-rule="nonzero"/><path fill="#954744" d="M 179.808594 128.246094 C 179.058594 128.65625 178.117188 128.386719 177.703125 127.636719 C 177.289062 126.886719 177.5625 125.945312 178.3125 125.53125 C 187.679688 120.347656 196.1875 126.355469 196.214844 126.371094 C 196.917969 126.859375 197.097656 127.824219 196.609375 128.53125 C 196.121094 129.234375 195.15625 129.414062 194.449219 128.925781 C 194.429688 128.914062 187.472656 124.003906 179.808594 128.246094 Z M 179.808594 128.246094 " fill-opacity="1" fill-rule="nonzero"/><path fill="#954744" d="M 192.359375 142.929688 C 192.359375 143.46875 192.320312 144.003906 192.246094 144.535156 C 192.167969 145.066406 192.058594 145.582031 191.910156 146.082031 C 191.757812 146.582031 191.578125 147.058594 191.359375 147.507812 C 191.144531 147.957031 190.898438 148.371094 190.625 148.753906 C 190.347656 149.136719 190.050781 149.480469 189.726562 149.78125 C 189.402344 150.082031 189.0625 150.335938 188.703125 150.542969 C 188.339844 150.75 187.972656 150.90625 187.589844 151.011719 C 187.207031 151.117188 186.824219 151.167969 186.433594 151.167969 C 186.042969 151.167969 185.660156 151.117188 185.277344 151.011719 C 184.894531 150.90625 184.523438 150.75 184.164062 150.542969 C 183.804688 150.335938 183.464844 150.082031 183.140625 149.78125 C 182.816406 149.480469 182.519531 149.136719 182.242188 148.753906 C 181.96875 148.371094 181.722656 147.957031 181.507812 147.507812 C 181.289062 147.058594 181.105469 146.582031 180.957031 146.082031 C 180.808594 145.582031 180.695312 145.066406 180.621094 144.535156 C 180.546875 144.003906 180.507812 143.46875 180.507812 142.929688 C 180.507812 142.386719 180.546875 141.851562 180.621094 141.320312 C 180.695312 140.789062 180.808594 140.277344 180.957031 139.777344 C 181.105469 139.277344 181.289062 138.800781 181.507812 138.351562 C 181.722656 137.902344 181.96875 137.484375 182.242188 137.101562 C 182.519531 136.71875 182.816406 136.378906 183.140625 136.078125 C 183.464844 135.777344 183.804688 135.523438 184.164062 135.316406 C 184.523438 135.109375 184.894531 134.953125 185.277344 134.847656 C 185.660156 134.742188 186.042969 134.6875 186.433594 134.6875 C 186.824219 134.6875 187.207031 134.742188 187.589844 134.847656 C 187.972656 134.953125 188.339844 135.109375 188.703125 135.316406 C 189.0625 135.523438 189.402344 135.777344 189.726562 136.078125 C 190.050781 136.378906 190.347656 136.71875 190.625 137.101562 C 190.898438 137.484375 191.144531 137.902344 191.359375 138.351562 C 191.578125 138.800781 191.757812 139.277344 191.910156 139.777344 C 192.058594 140.277344 192.167969 140.789062 192.246094 141.320312 C 192.320312 141.851562 192.359375 142.386719 192.359375 142.929688 Z M 192.359375 142.929688 " fill-opacity="1" fill-rule="nonzero"/><path fill="#954744" d="M 151.875 184.382812 C 151.894531 184.402344 152.003906 184.46875 152.199219 184.578125 C 153.882812 185.523438 158.414062 187.265625 163.703125 187.652344 C 168.878906 188.03125 174.734375 187.082031 179.128906 182.6875 C 180.257812 181.558594 181.296875 180.203125 182.207031 178.585938 C 182.625 177.839844 183.574219 177.570312 184.324219 177.992188 C 184.878906 178.300781 185.167969 178.902344 185.109375 179.5 C 185.035156 181.644531 183.289062 217.859375 149.898438 186.78125 C 149.8125 186.710938 149.734375 186.644531 149.671875 186.582031 L 149.679688 186.578125 C 149.089844 185.988281 149.070312 185.035156 149.644531 184.421875 C 150.226562 183.800781 151.207031 183.765625 151.832031 184.351562 L 151.871094 184.386719 Z M 163.484375 190.753906 C 161.78125 190.628906 160.148438 190.375 158.632812 190.046875 C 174.4375 201.589844 179.566406 191.988281 181.222656 184.996094 C 176.066406 190.074219 169.371094 191.1875 163.484375 190.753906 Z M 163.484375 190.753906 " fill-opacity="1" fill-rule="nonzero"/><path fill="#ebc5a4" d="M 231.394531 369.355469 C 217.367188 372.886719 202.6875 374.769531 187.566406 374.769531 C 163.578125 374.769531 140.695312 370.035156 119.789062 361.472656 L 120.882812 333.082031 C 121.085938 327.859375 125.523438 323.75 130.746094 323.953125 L 223.492188 327.523438 C 228.714844 327.722656 232.824219 332.160156 232.625 337.382812 Z M 231.394531 369.355469 " fill-opacity="1" fill-rule="evenodd"/><path fill="#ebc5a4" d="M 119.789062 361.476562 C 140.691406 370.042969 163.578125 374.769531 187.566406 374.769531 C 202.6875 374.769531 217.371094 372.890625 231.394531 369.359375 L 232.625 337.382812 C 232.824219 332.160156 228.714844 327.722656 223.492188 327.523438 L 130.746094 323.953125 C 125.523438 323.75 121.085938 327.859375 120.882812 333.082031 Z M 119.789062 361.476562 " fill-opacity="1" fill-rule="evenodd"/><path fill="#ebc5a4" d="M 252.308594 230.699219 L 263.238281 235.886719 C 264.617188 236.542969 265.320312 238.101562 264.734375 239.507812 L 234.046875 313.34375 C 232.1875 317.816406 226.980469 320.007812 222.527344 318.097656 C 218.074219 316.1875 215.914062 311.058594 217.773438 306.582031 L 248.691406 232.195312 C 249.273438 230.789062 250.933594 230.046875 252.308594 230.699219 Z M 252.308594 230.699219 " fill-opacity="1" fill-rule="evenodd"/><path fill="#ed7a71" d="M 230.988281 310.648438 C 230.863281 310.949219 230.710938 311.234375 230.527344 311.503906 C 230.347656 311.773438 230.140625 312.023438 229.910156 312.253906 C 229.683594 312.480469 229.429688 312.6875 229.160156 312.867188 C 228.890625 313.046875 228.605469 313.199219 228.304688 313.324219 C 228.003906 313.449219 227.695312 313.539062 227.375 313.605469 C 227.058594 313.667969 226.734375 313.699219 226.410156 313.699219 C 226.085938 313.699219 225.761719 313.664062 225.445312 313.601562 C 225.125 313.539062 224.816406 313.445312 224.515625 313.320312 C 224.214844 313.195312 223.929688 313.042969 223.660156 312.859375 C 223.390625 312.679688 223.140625 312.472656 222.910156 312.246094 C 222.679688 312.015625 222.476562 311.765625 222.296875 311.492188 C 222.117188 311.222656 221.964844 310.9375 221.839844 310.636719 C 221.714844 310.335938 221.621094 310.027344 221.558594 309.710938 C 221.496094 309.390625 221.464844 309.066406 221.464844 308.742188 C 221.464844 308.417969 221.496094 308.097656 221.5625 307.777344 C 221.625 307.460938 221.71875 307.148438 221.84375 306.851562 C 221.96875 306.550781 222.121094 306.265625 222.300781 305.996094 C 222.484375 305.726562 222.6875 305.476562 222.917969 305.246094 C 223.148438 305.015625 223.398438 304.8125 223.667969 304.632812 C 223.941406 304.449219 224.226562 304.296875 224.527344 304.175781 C 224.828125 304.050781 225.136719 303.957031 225.453125 303.894531 C 225.773438 303.832031 226.097656 303.800781 226.421875 303.800781 C 226.746094 303.800781 227.066406 303.832031 227.386719 303.894531 C 227.707031 303.960938 228.015625 304.054688 228.316406 304.179688 C 228.613281 304.304688 228.898438 304.457031 229.171875 304.636719 C 229.441406 304.816406 229.691406 305.023438 229.917969 305.253906 C 230.148438 305.484375 230.355469 305.734375 230.535156 306.003906 C 230.714844 306.273438 230.867188 306.558594 230.992188 306.859375 C 231.113281 307.160156 231.207031 307.46875 231.273438 307.789062 C 231.335938 308.109375 231.367188 308.429688 231.367188 308.753906 C 231.363281 309.078125 231.332031 309.402344 231.269531 309.71875 C 231.207031 310.039062 231.113281 310.347656 230.988281 310.648438 Z M 230.988281 310.648438 " fill-opacity="1" fill-rule="nonzero"/><path fill="#ebc5a4" d="M 112.5625 234.660156 L 101.960938 241.117188 C 100.664062 241.910156 99.71875 243.164062 100.195312 244.609375 L 121.3125 309.003906 C 122.824219 313.609375 127.835938 316.160156 132.433594 314.628906 C 137.03125 313.097656 139.570312 308.117188 138.058594 303.515625 L 116.054688 236.425781 C 115.582031 234.980469 113.863281 233.867188 112.5625 234.660156 Z M 112.5625 234.660156 " fill-opacity="1" fill-rule="evenodd"/><path fill="#ed7a71" d="M 124.574219 306.546875 C 124.675781 306.855469 124.804688 307.152344 124.964844 307.4375 C 125.125 307.71875 125.3125 307.984375 125.523438 308.230469 C 125.734375 308.476562 125.96875 308.699219 126.222656 308.902344 C 126.480469 309.101562 126.753906 309.273438 127.042969 309.421875 C 127.332031 309.566406 127.632812 309.683594 127.945312 309.773438 C 128.261719 309.859375 128.578125 309.917969 128.902344 309.941406 C 129.226562 309.964844 129.550781 309.957031 129.875 309.917969 C 130.195312 309.878906 130.511719 309.808594 130.820312 309.707031 C 131.128906 309.605469 131.425781 309.476562 131.707031 309.316406 C 131.992188 309.15625 132.257812 308.972656 132.503906 308.761719 C 132.75 308.550781 132.972656 308.316406 133.171875 308.058594 C 133.375 307.804688 133.546875 307.53125 133.695312 307.242188 C 133.839844 306.949219 133.957031 306.648438 134.046875 306.335938 C 134.132812 306.023438 134.191406 305.703125 134.214844 305.382812 C 134.238281 305.058594 134.230469 304.734375 134.191406 304.410156 C 134.152344 304.089844 134.082031 303.773438 133.980469 303.464844 C 133.878906 303.15625 133.75 302.859375 133.589844 302.578125 C 133.429688 302.292969 133.246094 302.027344 133.035156 301.78125 C 132.820312 301.535156 132.589844 301.3125 132.332031 301.109375 C 132.078125 300.910156 131.804688 300.738281 131.511719 300.589844 C 131.222656 300.445312 130.921875 300.328125 130.609375 300.238281 C 130.296875 300.152344 129.976562 300.097656 129.652344 300.070312 C 129.328125 300.046875 129.003906 300.054688 128.683594 300.09375 C 128.359375 300.132812 128.042969 300.203125 127.734375 300.304688 C 127.425781 300.40625 127.132812 300.535156 126.847656 300.695312 C 126.566406 300.855469 126.300781 301.039062 126.054688 301.25 C 125.804688 301.464844 125.582031 301.695312 125.382812 301.953125 C 125.183594 302.207031 125.007812 302.480469 124.863281 302.769531 C 124.714844 303.0625 124.597656 303.363281 124.511719 303.675781 C 124.421875 303.988281 124.367188 304.308594 124.34375 304.632812 C 124.316406 304.953125 124.324219 305.277344 124.363281 305.601562 C 124.402344 305.921875 124.472656 306.238281 124.574219 306.546875 Z M 124.574219 306.546875 " fill-opacity="1" fill-rule="nonzero"/><path fill="#ebc5a4" d="M 131.003906 315.238281 C 130.667969 314.449219 131.035156 313.535156 131.824219 313.199219 C 132.613281 312.863281 133.527344 313.230469 133.863281 314.019531 L 140.445312 329.359375 C 140.78125 330.148438 140.414062 331.058594 139.625 331.394531 C 138.835938 331.730469 137.921875 331.363281 137.585938 330.574219 Z M 131.003906 315.238281 " fill-opacity="1" fill-rule="nonzero"/><path fill="#ebc5a4" d="M 221.152344 317.378906 C 221.550781 316.621094 222.488281 316.328125 223.246094 316.722656 C 224.003906 317.121094 224.300781 318.054688 223.902344 318.816406 L 216.160156 333.601562 C 215.761719 334.359375 214.824219 334.65625 214.066406 334.257812 C 213.308594 333.863281 213.011719 332.925781 213.410156 332.167969 Z M 221.152344 317.378906 " fill-opacity="1" fill-rule="nonzero"/><path fill="#ed7a71" d="M 198.203125 154.800781 C 197.605469 154.925781 197.046875 155.121094 196.527344 155.390625 C 196.007812 155.65625 195.566406 155.976562 195.203125 156.347656 C 194.839844 156.71875 194.582031 157.109375 194.429688 157.527344 C 194.277344 157.945312 194.246094 158.351562 194.328125 158.75 C 194.410156 159.152344 194.605469 159.511719 194.910156 159.832031 C 195.214844 160.152344 195.609375 160.410156 196.089844 160.605469 C 196.570312 160.800781 197.101562 160.917969 197.6875 160.957031 C 198.269531 160.992188 198.859375 160.949219 199.457031 160.824219 C 200.054688 160.703125 200.613281 160.507812 201.132812 160.238281 C 201.652344 159.96875 202.09375 159.652344 202.457031 159.28125 C 202.820312 158.910156 203.078125 158.519531 203.230469 158.101562 C 203.378906 157.683594 203.414062 157.277344 203.332031 156.878906 C 203.25 156.476562 203.054688 156.117188 202.75 155.796875 C 202.445312 155.476562 202.050781 155.214844 201.570312 155.023438 C 201.089844 154.828125 200.554688 154.710938 199.972656 154.671875 C 199.390625 154.636719 198.800781 154.679688 198.203125 154.800781 Z M 198.203125 154.800781 " fill-opacity="1" fill-rule="nonzero"/><path fill="#ed7a71" d="M 130.773438 155.398438 C 131.371094 155.523438 131.929688 155.71875 132.449219 155.988281 C 132.96875 156.253906 133.410156 156.574219 133.773438 156.945312 C 134.136719 157.316406 134.394531 157.707031 134.546875 158.125 C 134.699219 158.542969 134.730469 158.949219 134.648438 159.347656 C 134.566406 159.746094 134.371094 160.109375 134.066406 160.429688 C 133.761719 160.75 133.367188 161.007812 132.886719 161.203125 C 132.40625 161.398438 131.875 161.515625 131.289062 161.550781 C 130.707031 161.589844 130.117188 161.546875 129.519531 161.421875 C 128.921875 161.300781 128.363281 161.101562 127.84375 160.835938 C 127.324219 160.566406 126.882812 160.25 126.519531 159.878906 C 126.15625 159.507812 125.898438 159.113281 125.746094 158.699219 C 125.597656 158.28125 125.5625 157.875 125.644531 157.472656 C 125.726562 157.074219 125.921875 156.714844 126.226562 156.394531 C 126.53125 156.070312 126.925781 155.8125 127.40625 155.621094 C 127.886719 155.425781 128.421875 155.308594 129.003906 155.269531 C 129.585938 155.230469 130.175781 155.277344 130.773438 155.398438 Z M 130.773438 155.398438 " fill-opacity="1" fill-rule="nonzero"/></svg>