<svg xmlns="http://www.w3.org/2000/svg" xmlns:xlink="http://www.w3.org/1999/xlink" width="500" zoomAndPan="magnify" viewBox="0 0 375 374.999991" height="500" preserveAspectRatio="xMidYMid meet" version="1.0"><rect x="-37.5" width="450" fill="#ffffff" y="-37.499999" height="449.999989" fill-opacity="1"/><rect x="-37.5" width="450" fill="#ffffff" y="-37.499999" height="449.999989" fill-opacity="1"/><path fill="#ffae43" d="M 374.980469 187.488281 C 374.980469 190.558594 374.90625 193.625 374.753906 196.691406 C 374.605469 199.753906 374.378906 202.8125 374.078125 205.867188 C 373.777344 208.921875 373.402344 211.964844 372.949219 215 C 372.5 218.035156 371.976562 221.058594 371.378906 224.066406 C 370.777344 227.078125 370.105469 230.070312 369.363281 233.046875 C 368.617188 236.023438 367.796875 238.980469 366.90625 241.914062 C 366.015625 244.851562 365.054688 247.765625 364.019531 250.652344 C 362.988281 253.542969 361.882812 256.40625 360.707031 259.238281 C 359.535156 262.074219 358.292969 264.878906 356.980469 267.652344 C 355.667969 270.425781 354.289062 273.167969 352.84375 275.871094 C 351.394531 278.578125 349.882812 281.246094 348.304688 283.878906 C 346.726562 286.511719 345.085938 289.101562 343.382812 291.652344 C 341.679688 294.207031 339.910156 296.714844 338.082031 299.179688 C 336.257812 301.640625 334.367188 304.0625 332.421875 306.433594 C 330.476562 308.804688 328.472656 311.128906 326.410156 313.402344 C 324.351562 315.675781 322.234375 317.894531 320.066406 320.066406 C 317.894531 322.234375 315.675781 324.351562 313.402344 326.410156 C 311.128906 328.472656 308.804688 330.476562 306.433594 332.421875 C 304.0625 334.367188 301.640625 336.257812 299.179688 338.082031 C 296.714844 339.910156 294.207031 341.679688 291.652344 343.382812 C 289.101562 345.085938 286.511719 346.726562 283.878906 348.304688 C 281.246094 349.882812 278.578125 351.394531 275.871094 352.84375 C 273.167969 354.289062 270.425781 355.667969 267.652344 356.980469 C 264.878906 358.292969 262.074219 359.535156 259.238281 360.707031 C 256.40625 361.882812 253.542969 362.988281 250.652344 364.019531 C 247.765625 365.054688 244.851562 366.015625 241.914062 366.90625 C 238.980469 367.796875 236.023438 368.617188 233.046875 369.363281 C 230.070312 370.105469 227.078125 370.777344 224.066406 371.378906 C 221.058594 371.976562 218.035156 372.5 215 372.949219 C 211.964844 373.402344 208.921875 373.777344 205.867188 374.078125 C 202.8125 374.378906 199.753906 374.605469 196.691406 374.753906 C 193.625 374.90625 190.558594 374.980469 187.488281 374.980469 C 184.421875 374.980469 181.355469 374.90625 178.289062 374.753906 C 175.226562 374.605469 172.167969 374.378906 169.113281 374.078125 C 166.058594 373.777344 163.015625 373.402344 159.980469 372.949219 C 156.945312 372.5 153.921875 371.976562 150.914062 371.378906 C 147.902344 370.777344 144.910156 370.105469 141.933594 369.363281 C 138.957031 368.617188 136 367.796875 133.066406 366.90625 C 130.128906 366.015625 127.214844 365.054688 124.328125 364.019531 C 121.4375 362.988281 118.574219 361.882812 115.742188 360.707031 C 112.90625 359.535156 110.101562 358.292969 107.328125 356.980469 C 104.554688 355.667969 101.8125 354.289062 99.109375 352.84375 C 96.402344 351.394531 93.734375 349.882812 91.101562 348.304688 C 88.46875 346.726562 85.878906 345.085938 83.328125 343.382812 C 80.773438 341.679688 78.265625 339.910156 75.800781 338.082031 C 73.335938 336.257812 70.917969 334.367188 68.546875 332.421875 C 66.175781 330.476562 63.851562 328.472656 61.578125 326.410156 C 59.304688 324.351562 57.085938 322.234375 54.914062 320.066406 C 52.746094 317.894531 50.628906 315.675781 48.570312 313.402344 C 46.507812 311.128906 44.503906 308.804688 42.558594 306.433594 C 40.613281 304.0625 38.722656 301.640625 36.898438 299.179688 C 35.070312 296.714844 33.300781 294.207031 31.597656 291.652344 C 29.894531 289.101562 28.253906 286.511719 26.675781 283.878906 C 25.097656 281.246094 23.585938 278.578125 22.136719 275.871094 C 20.691406 273.167969 19.3125 270.425781 18 267.652344 C 16.6875 264.878906 15.445312 262.074219 14.273438 259.238281 C 13.097656 256.40625 11.992188 253.542969 10.960938 250.652344 C 9.925781 247.765625 8.964844 244.851562 8.074219 241.914062 C 7.183594 238.980469 6.363281 236.023438 5.617188 233.046875 C 4.875 230.070312 4.203125 227.078125 3.601562 224.066406 C 3.003906 221.058594 2.480469 218.035156 2.03125 215 C 1.578125 211.964844 1.203125 208.921875 0.902344 205.867188 C 0.601562 202.8125 0.375 199.753906 0.226562 196.691406 C 0.0742188 193.625 0 190.558594 0 187.488281 C 0 184.421875 0.0742188 181.355469 0.226562 178.289062 C 0.375 175.226562 0.601562 172.167969 0.902344 169.113281 C 1.203125 166.058594 1.578125 163.015625 2.03125 159.980469 C 2.480469 156.945312 3.003906 153.921875 3.601562 150.914062 C 4.203125 147.902344 4.875 144.910156 5.617188 141.933594 C 6.363281 138.957031 7.183594 136 8.074219 133.066406 C 8.964844 130.128906 9.925781 127.214844 10.960938 124.328125 C 11.992188 121.4375 13.097656 118.574219 14.273438 115.742188 C 15.445312 112.90625 16.6875 110.101562 18 107.328125 C 19.3125 104.554688 20.691406 101.8125 22.136719 99.109375 C 23.585938 96.402344 25.097656 93.734375 26.675781 91.101562 C 28.253906 88.46875 29.894531 85.878906 31.597656 83.328125 C 33.300781 80.773438 35.070312 78.265625 36.898438 75.800781 C 38.722656 73.335938 40.613281 70.917969 42.558594 68.546875 C 44.503906 66.175781 46.507812 63.851562 48.570312 61.578125 C 50.628906 59.304688 52.746094 57.085938 54.914062 54.914062 C 57.085938 52.746094 59.304688 50.628906 61.578125 48.570312 C 63.851562 46.507812 66.175781 44.503906 68.546875 42.558594 C 70.917969 40.613281 73.335938 38.722656 75.800781 36.898438 C 78.265625 35.070312 80.773438 33.300781 83.328125 31.597656 C 85.878906 29.894531 88.46875 28.253906 91.101562 26.675781 C 93.734375 25.097656 96.402344 23.585938 99.109375 22.136719 C 101.8125 20.691406 104.554688 19.3125 107.328125 18 C 110.101562 16.6875 112.90625 15.445312 115.742188 14.273438 C 118.574219 13.097656 121.4375 11.992188 124.328125 10.960938 C 127.214844 9.925781 130.128906 8.964844 133.066406 8.074219 C 136 7.183594 138.957031 6.363281 141.933594 5.617188 C 144.910156 4.875 147.902344 4.203125 150.914062 3.601562 C 153.921875 3.003906 156.945312 2.480469 159.980469 2.03125 C 163.015625 1.578125 166.058594 1.203125 169.113281 0.902344 C 172.167969 0.601562 175.226562 0.375 178.289062 0.226562 C 181.355469 0.0742188 184.421875 0 187.488281 0 C 190.558594 0 193.625 0.0742188 196.691406 0.226562 C 199.753906 0.375 202.8125 0.601562 205.867188 0.902344 C 208.921875 1.203125 211.964844 1.578125 215 2.03125 C 218.035156 2.480469 221.058594 3.003906 224.066406 3.601562 C 227.078125 4.203125 230.070312 4.875 233.046875 5.617188 C 236.023438 6.363281 238.980469 7.183594 241.914062 8.074219 C 244.851562 8.964844 247.765625 9.925781 250.652344 10.960938 C 253.542969 11.992188 256.40625 13.097656 259.238281 14.273438 C 262.074219 15.445312 264.878906 16.6875 267.652344 18 C 270.425781 19.3125 273.167969 20.691406 275.871094 22.136719 C 278.578125 23.585938 281.246094 25.097656 283.878906 26.675781 C 286.511719 28.253906 289.101562 29.894531 291.652344 31.597656 C 294.207031 33.300781 296.714844 35.070312 299.179688 36.898438 C 301.640625 38.722656 304.0625 40.613281 306.433594 42.558594 C 308.804688 44.503906 311.128906 46.507812 313.402344 48.570312 C 315.675781 50.628906 317.894531 52.746094 320.066406 54.914062 C 322.234375 57.085938 324.351562 59.304688 326.410156 61.578125 C 328.472656 63.851562 330.476562 66.175781 332.421875 68.546875 C 334.367188 70.917969 336.257812 73.335938 338.082031 75.800781 C 339.910156 78.265625 341.679688 80.773438 343.382812 83.328125 C 345.085938 85.878906 346.726562 88.46875 348.304688 91.101562 C 349.882812 93.734375 351.394531 96.402344 352.84375 99.109375 C 354.289062 101.8125 355.667969 104.554688 356.980469 107.328125 C 358.292969 110.101562 359.535156 112.90625 360.707031 115.742188 C 361.882812 118.574219 362.988281 121.4375 364.019531 124.328125 C 365.054688 127.214844 366.015625 130.128906 366.90625 133.066406 C 367.796875 136 368.617188 138.957031 369.363281 141.933594 C 370.105469 144.910156 370.777344 147.902344 371.378906 150.914062 C 371.976562 153.921875 372.5 156.945312 372.949219 159.980469 C 373.402344 163.015625 373.777344 166.058594 374.078125 169.113281 C 374.378906 172.167969 374.605469 175.226562 374.753906 178.289062 C 374.90625 181.355469 374.980469 184.421875 374.980469 187.488281 Z M 374.980469 187.488281 " fill-opacity="1" fill-rule="nonzero"/><path fill="#954744" d="M 181.109375 36.296875 C 140.347656 40.792969 107.078125 72.566406 125.359375 118.125 C 143.644531 163.683594 229.964844 158.886719 241.355469 118.421875 C 252.746094 77.960938 237.460938 38.996094 181.109375 36.296875 Z M 181.109375 36.296875 " fill-opacity="1" fill-rule="evenodd"/><path fill="#954744" d="M 178.605469 12.804688 C 157.996094 15.542969 147.871094 34.125 162.761719 49.375 C 177.652344 64.625 202.429688 53.542969 204.691406 46.636719 C 206.957031 39.726562 213.269531 11.015625 178.605469 12.804688 Z M 178.605469 12.804688 " fill-opacity="1" fill-rule="evenodd"/><path fill="#fddec2" d="M 130.960938 305.027344 C 125.910156 307.359375 120.660156 309.226562 115.316406 310.773438 C 144.417969 330.09375 173.105469 333.5625 173.105469 333.5625 L 181.589844 366.902344 L 190.070312 333.5625 C 190.070312 333.5625 218.757812 330.09375 247.859375 310.773438 C 242.691406 309.277344 237.613281 307.480469 232.710938 305.253906 C 230.621094 304.304688 230.617188 232.339844 228.601562 231.222656 C 220.1875 225.550781 201.585938 208.949219 210.222656 177.066406 C 205.359375 180.273438 199.285156 183.160156 194.929688 186.183594 C 188.207031 190.84375 179.125 190.84375 172.402344 186.183594 C 168.03125 183.148438 161.929688 180.253906 157.058594 177.035156 C 165.714844 208.9375 137.5625 220.367188 129.144531 226.042969 C 127.285156 227.070312 132.882812 304.140625 130.960938 305.027344 Z M 130.960938 305.027344 " fill-opacity="1" fill-rule="evenodd"/><path fill="#fddec2" d="M 232.203125 118.558594 C 236.304688 114.828125 240.285156 114.320312 242.902344 116.699219 C 245.980469 119.496094 245.035156 132.105469 242.269531 137.003906 C 239.503906 141.90625 237.289062 144.59375 236.972656 148.230469 C 236.695312 151.453125 231.441406 154.679688 228.214844 151.894531 C 230.835938 144.484375 232.691406 134.964844 232.417969 122.863281 C 232.386719 121.433594 232.3125 120 232.203125 118.558594 Z M 232.203125 118.558594 " fill-opacity="1" fill-rule="evenodd"/><path fill="#fddec2" d="M 192.789062 64.589844 C 182.636719 62.90625 165.335938 69.074219 161.902344 78.875 C 158.46875 88.671875 152.925781 82.378906 138.289062 90.164062 C 134.5625 92.144531 135.039062 119.792969 134.898438 123.496094 C 134.097656 144.570312 142.027344 162.03125 150.164062 170.945312 C 150.714844 171.578125 151.210938 172.128906 151.636719 172.605469 C 156.277344 177.753906 166.121094 181.828125 172.402344 186.183594 C 179.121094 190.84375 188.207031 190.84375 194.929688 186.183594 C 201.207031 181.828125 211.054688 177.753906 215.691406 172.605469 C 220.332031 167.457031 233.101562 153.320312 232.417969 122.863281 C 231.855469 97.613281 218.988281 69.882812 192.84375 64.605469 C 192.824219 64.597656 192.808594 64.59375 192.789062 64.589844 Z M 192.789062 64.589844 " fill-opacity="1" fill-rule="evenodd"/><path fill="#fddec2" d="M 136.625 118.558594 C 132.523438 114.828125 128.539062 114.320312 125.921875 116.699219 C 122.847656 119.496094 123.789062 132.105469 126.554688 137.003906 C 129.324219 141.90625 131.535156 144.59375 131.851562 148.230469 C 132.101562 151.097656 136.289062 153.96875 139.480469 152.605469 C 136.40625 144.320312 134.484375 134.390625 134.898438 123.496094 C 134.960938 121.820312 135.589844 120.226562 136.605469 118.796875 Z M 136.625 118.558594 " fill-opacity="1" fill-rule="evenodd"/><path fill="#954744" d="M 194.664062 64.644531 C 189.222656 81.621094 185.207031 103.390625 151.644531 105.984375 C 151.644531 105.984375 167.195312 93.023438 167.453125 79.160156 C 167.453125 79.160156 155.273438 108.703125 136.222656 112.203125 C 136.222656 112.203125 120.285156 88.230469 137.777344 78.25 C 155.273438 68.273438 179.476562 30.992188 202.441406 53.785156 C 225.40625 76.578125 243.785156 108.914062 242.210938 113.644531 C 240.632812 118.378906 227.363281 133.375 231.808594 142.722656 C 236.257812 152.070312 241.464844 152.429688 233 165.390625 C 224.535156 178.355469 237.488281 187.445312 237.488281 187.445312 C 237.488281 187.445312 224.789062 182.332031 226.640625 173.777344 C 228.492188 165.222656 235.8125 162.667969 234.3125 156.847656 C 232.8125 151.027344 222.25 150.378906 222.644531 141.527344 C 223.039062 132.675781 237.460938 125.277344 229.394531 110.316406 C 229.394531 110.316406 212.40625 106.476562 209.671875 89.695312 C 209.671875 89.695312 200.222656 90.0625 195.542969 78.746094 C 195.542969 78.746094 192.992188 91.847656 177.101562 99.0625 C 177.101562 99.0625 194.710938 86.886719 194.664062 64.644531 Z M 194.664062 64.644531 " fill-opacity="1" fill-rule="evenodd"/><path fill="#954744" d="M 139.007812 80.253906 C 135.730469 103.351562 144.902344 118.597656 141.988281 128.238281 C 139.074219 137.878906 126.53125 143.273438 131.050781 151.941406 C 135.570312 160.609375 144.683594 160.609375 144.683594 160.609375 C 144.683594 160.609375 129.570312 161.941406 126.605469 150.386719 C 123.640625 138.828125 134.902344 141.199219 136.753906 132.75 C 138.605469 124.304688 122.773438 108.71875 122.871094 98.039062 C 122.96875 87.359375 134.410156 76.976562 139.007812 80.253906 Z M 139.007812 80.253906 " fill-opacity="1" fill-rule="evenodd"/><path fill="#ed7a71" d="M 332.203125 306.710938 C 328.808594 288.445312 322.082031 269.980469 309.601562 253.300781 C 277.695312 210.652344 227.949219 214.589844 227.949219 214.589844 C 224.105469 232.996094 199.71875 239.097656 199.71875 239.097656 L 185.96875 265.785156 L 175.265625 239.097656 C 175.265625 239.097656 150.089844 232.953125 146.242188 214.546875 C 146.242188 214.546875 97.289062 210.652344 65.378906 253.300781 C 52.902344 269.980469 46.171875 288.445312 42.777344 306.710938 C 77.167969 348.402344 129.226562 374.984375 187.492188 374.984375 C 245.757812 374.984375 297.816406 348.402344 332.203125 306.710938 Z M 332.203125 306.710938 " fill-opacity="1" fill-rule="evenodd"/><path fill="#954744" d="M 216.484375 256.386719 C 216 264.488281 215.746094 274.203125 216.367188 286.140625 C 218.558594 328.265625 281.378906 324.371094 281.378906 324.371094 C 281.378906 324.371094 259.953125 322.910156 254.109375 296.855469 C 250.492188 280.738281 258.230469 260.21875 261.078125 242.261719 C 262.835938 231.1875 262.730469 221.085938 256.957031 213.589844 C 244.574219 197.515625 227.226562 186.183594 217.878906 170.109375 C 217.042969 171.105469 216.296875 171.929688 215.691406 172.605469 C 214.273438 174.179688 212.363281 175.65625 210.222656 177.070312 C 210.222656 177.070312 210.21875 177.070312 210.21875 177.070312 C 205.53125 194.390625 208.878906 207.203125 214.265625 216.199219 C 214.460938 216.503906 214.648438 216.8125 214.828125 217.117188 C 216.621094 220.1875 217.542969 223.34375 217.925781 226.914062 C 218.707031 234.164062 217.285156 243.101562 216.484375 256.386719 Z M 216.484375 256.386719 " fill-opacity="1" fill-rule="evenodd"/><path fill="#954744" d="M 180.449219 133.261719 C 180.011719 132.503906 180.273438 131.535156 181.03125 131.101562 C 181.789062 130.667969 182.753906 130.929688 183.1875 131.683594 C 185.117188 135.035156 187.796875 136.753906 189.824219 138.054688 C 192.507812 139.777344 194.351562 140.960938 193.53125 143.875 L 193.5 143.972656 C 192.855469 146.164062 191.371094 147.921875 189.523438 148.980469 C 187.660156 150.050781 185.417969 150.414062 183.277344 149.808594 L 183.1875 149.785156 C 182.347656 149.539062 181.867188 148.65625 182.117188 147.820312 C 182.363281 146.980469 183.242188 146.5 184.082031 146.746094 C 184.109375 146.753906 184.0625 146.742188 184.132812 146.757812 C 185.421875 147.125 186.792969 146.890625 187.949219 146.226562 C 189.117188 145.554688 190.058594 144.449219 190.460938 143.078125 C 190.46875 143.054688 190.457031 143.09375 190.480469 143.019531 C 190.664062 142.359375 189.625 141.691406 188.113281 140.722656 C 185.8125 139.246094 182.773438 137.292969 180.449219 133.261719 Z M 180.449219 133.261719 " fill-opacity="1" fill-rule="nonzero"/><path fill="#954744" d="M 191.773438 158.707031 C 192.515625 158.242188 193.492188 158.460938 193.957031 159.203125 C 194.421875 159.941406 194.203125 160.917969 193.460938 161.386719 C 193.339844 161.464844 193.214844 161.535156 193.089844 161.601562 C 191.132812 162.636719 186.742188 163.472656 182.089844 162.710938 C 177.414062 161.949219 172.382812 159.613281 169.070312 154.339844 C 168.808594 153.925781 168.5625 153.5 168.332031 153.066406 C 167.925781 152.292969 168.222656 151.332031 168.996094 150.925781 C 169.769531 150.519531 170.730469 150.816406 171.136719 151.589844 C 171.335938 151.96875 171.539062 152.320312 171.75 152.652344 C 174.488281 157.011719 178.6875 158.945312 182.597656 159.585938 C 186.535156 160.230469 190.089844 159.601562 191.613281 158.796875 C 191.679688 158.761719 191.734375 158.730469 191.773438 158.707031 Z M 191.773438 158.707031 " fill-opacity="1" fill-rule="nonzero"/><path fill="#954744" d="M 208.347656 126.28125 C 208.347656 126.8125 208.3125 127.34375 208.242188 127.867188 C 208.175781 128.390625 208.070312 128.898438 207.933594 129.390625 C 207.796875 129.882812 207.628906 130.351562 207.429688 130.796875 C 207.230469 131.238281 207.007812 131.648438 206.753906 132.027344 C 206.5 132.40625 206.226562 132.742188 205.925781 133.039062 C 205.628906 133.335938 205.316406 133.585938 204.984375 133.789062 C 204.65625 133.992188 204.3125 134.148438 203.964844 134.25 C 203.613281 134.355469 203.257812 134.40625 202.902344 134.40625 C 202.542969 134.40625 202.1875 134.355469 201.835938 134.25 C 201.488281 134.148438 201.144531 133.992188 200.816406 133.789062 C 200.484375 133.585938 200.171875 133.335938 199.875 133.039062 C 199.578125 132.742188 199.300781 132.40625 199.046875 132.027344 C 198.796875 131.648438 198.570312 131.238281 198.371094 130.796875 C 198.171875 130.351562 198.003906 129.882812 197.867188 129.390625 C 197.730469 128.898438 197.625 128.390625 197.558594 127.867188 C 197.488281 127.34375 197.453125 126.8125 197.453125 126.28125 C 197.453125 125.746094 197.488281 125.21875 197.558594 124.695312 C 197.625 124.171875 197.730469 123.664062 197.867188 123.171875 C 198.003906 122.675781 198.171875 122.210938 198.371094 121.765625 C 198.570312 121.320312 198.796875 120.910156 199.046875 120.535156 C 199.300781 120.15625 199.578125 119.820312 199.875 119.523438 C 200.171875 119.226562 200.484375 118.976562 200.816406 118.773438 C 201.144531 118.566406 201.488281 118.414062 201.835938 118.308594 C 202.1875 118.207031 202.542969 118.152344 202.902344 118.152344 C 203.257812 118.152344 203.613281 118.207031 203.964844 118.308594 C 204.3125 118.414062 204.65625 118.566406 204.984375 118.773438 C 205.316406 118.976562 205.628906 119.226562 205.925781 119.523438 C 206.226562 119.820312 206.5 120.15625 206.753906 120.535156 C 207.007812 120.910156 207.230469 121.320312 207.429688 121.765625 C 207.628906 122.210938 207.796875 122.675781 207.933594 123.171875 C 208.070312 123.664062 208.175781 124.171875 208.242188 124.695312 C 208.3125 125.21875 208.347656 125.746094 208.347656 126.28125 Z M 208.347656 126.28125 " fill-opacity="1" fill-rule="nonzero"/><path fill="#954744" d="M 212.402344 114.546875 C 213.015625 115.171875 213.007812 116.171875 212.386719 116.785156 C 211.761719 117.398438 210.761719 117.390625 210.148438 116.765625 C 208.21875 114.808594 205.972656 113.640625 203.683594 113.359375 C 201.484375 113.089844 199.222656 113.640625 197.148438 115.097656 C 196.433594 115.601562 195.445312 115.429688 194.941406 114.714844 C 194.4375 114 194.609375 113.011719 195.328125 112.507812 C 198.074219 110.570312 201.105469 109.84375 204.070312 110.207031 C 207.0625 110.578125 209.960938 112.0625 212.402344 114.546875 Z M 212.402344 114.546875 " fill-opacity="1" fill-rule="nonzero"/><path fill="#954744" d="M 169.070312 126.28125 C 169.070312 126.8125 169.035156 127.34375 168.964844 127.867188 C 168.894531 128.390625 168.792969 128.898438 168.65625 129.390625 C 168.519531 129.882812 168.351562 130.351562 168.152344 130.796875 C 167.953125 131.238281 167.726562 131.648438 167.476562 132.027344 C 167.222656 132.40625 166.945312 132.742188 166.648438 133.039062 C 166.351562 133.335938 166.039062 133.585938 165.707031 133.789062 C 165.375 133.992188 165.035156 134.148438 164.683594 134.25 C 164.335938 134.355469 163.980469 134.40625 163.621094 134.40625 C 163.265625 134.40625 162.910156 134.355469 162.558594 134.25 C 162.207031 134.148438 161.867188 133.992188 161.539062 133.789062 C 161.207031 133.585938 160.894531 133.335938 160.59375 133.039062 C 160.296875 132.742188 160.023438 132.40625 159.769531 132.027344 C 159.515625 131.648438 159.292969 131.238281 159.09375 130.796875 C 158.894531 130.351562 158.726562 129.882812 158.589844 129.390625 C 158.453125 128.898438 158.347656 128.390625 158.277344 127.867188 C 158.210938 127.34375 158.175781 126.8125 158.175781 126.28125 C 158.175781 125.746094 158.210938 125.21875 158.277344 124.695312 C 158.347656 124.171875 158.453125 123.664062 158.589844 123.171875 C 158.726562 122.675781 158.894531 122.210938 159.09375 121.765625 C 159.292969 121.320312 159.515625 120.910156 159.769531 120.535156 C 160.023438 120.15625 160.296875 119.820312 160.59375 119.523438 C 160.894531 119.226562 161.207031 118.976562 161.539062 118.773438 C 161.867188 118.566406 162.207031 118.414062 162.558594 118.308594 C 162.910156 118.207031 163.265625 118.152344 163.621094 118.152344 C 163.980469 118.152344 164.335938 118.207031 164.683594 118.308594 C 165.035156 118.414062 165.375 118.566406 165.707031 118.773438 C 166.039062 118.976562 166.351562 119.226562 166.648438 119.523438 C 166.945312 119.820312 167.222656 120.15625 167.476562 120.535156 C 167.726562 120.910156 167.953125 121.320312 168.152344 121.765625 C 168.351562 122.210938 168.519531 122.675781 168.65625 123.171875 C 168.792969 123.664062 168.894531 124.171875 168.964844 124.695312 C 169.035156 125.21875 169.070312 125.746094 169.070312 126.28125 Z M 169.070312 126.28125 " fill-opacity="1" fill-rule="nonzero"/><path fill="#954744" d="M 156.375 116.765625 C 155.761719 117.390625 154.761719 117.398438 154.136719 116.785156 C 153.515625 116.171875 153.503906 115.171875 154.117188 114.546875 C 156.5625 112.0625 159.460938 110.578125 162.453125 110.207031 C 165.417969 109.84375 168.449219 110.570312 171.195312 112.507812 C 171.910156 113.011719 172.082031 114 171.582031 114.714844 C 171.078125 115.429688 170.089844 115.601562 169.371094 115.097656 C 167.300781 113.640625 165.035156 113.089844 162.835938 113.359375 C 160.550781 113.640625 158.304688 114.808594 156.375 116.765625 Z M 156.375 116.765625 " fill-opacity="1" fill-rule="nonzero"/><path fill="#ed7a71" d="M 213.511719 141.046875 C 212.925781 141.167969 212.375 141.359375 211.863281 141.625 C 211.351562 141.890625 210.917969 142.203125 210.558594 142.570312 C 210.203125 142.933594 209.949219 143.324219 209.800781 143.734375 C 209.652344 144.144531 209.617188 144.546875 209.699219 144.941406 C 209.78125 145.335938 209.972656 145.691406 210.273438 146.011719 C 210.574219 146.328125 210.960938 146.582031 211.4375 146.777344 C 211.910156 146.96875 212.433594 147.082031 213.007812 147.121094 C 213.582031 147.160156 214.164062 147.117188 214.753906 146.996094 C 215.339844 146.871094 215.890625 146.679688 216.402344 146.414062 C 216.914062 146.152344 217.347656 145.835938 217.707031 145.472656 C 218.0625 145.105469 218.316406 144.71875 218.464844 144.304688 C 218.613281 143.894531 218.648438 143.492188 218.566406 143.097656 C 218.484375 142.703125 218.292969 142.347656 217.992188 142.027344 C 217.691406 141.710938 217.304688 141.457031 216.828125 141.265625 C 216.355469 141.070312 215.832031 140.957031 215.257812 140.917969 C 214.683594 140.878906 214.101562 140.921875 213.511719 141.046875 Z M 213.511719 141.046875 " fill-opacity="1" fill-rule="nonzero"/><path fill="#ed7a71" d="M 153.777344 141.042969 C 154.363281 141.164062 154.914062 141.359375 155.425781 141.625 C 155.9375 141.886719 156.371094 142.203125 156.730469 142.566406 C 157.089844 142.933594 157.339844 143.320312 157.492188 143.734375 C 157.640625 144.144531 157.671875 144.546875 157.589844 144.941406 C 157.507812 145.335938 157.316406 145.691406 157.015625 146.007812 C 156.714844 146.328125 156.328125 146.582031 155.855469 146.773438 C 155.378906 146.964844 154.855469 147.082031 154.28125 147.121094 C 153.707031 147.15625 153.125 147.117188 152.539062 146.992188 C 151.949219 146.871094 151.402344 146.675781 150.890625 146.414062 C 150.378906 146.148438 149.941406 145.835938 149.585938 145.46875 C 149.226562 145.105469 148.972656 144.714844 148.824219 144.304688 C 148.675781 143.894531 148.640625 143.488281 148.722656 143.09375 C 148.804688 142.699219 148.996094 142.34375 149.296875 142.027344 C 149.597656 141.710938 149.988281 141.453125 150.460938 141.261719 C 150.933594 141.070312 151.457031 140.953125 152.03125 140.917969 C 152.609375 140.878906 153.1875 140.921875 153.777344 141.042969 Z M 153.777344 141.042969 " fill-opacity="1" fill-rule="nonzero"/></svg>