<svg xmlns="http://www.w3.org/2000/svg" xmlns:xlink="http://www.w3.org/1999/xlink" width="500" zoomAndPan="magnify" viewBox="0 0 375 374.999991" height="500" preserveAspectRatio="xMidYMid meet" version="1.0"><rect x="-37.5" width="450" fill="#ffffff" y="-37.499999" height="449.999989" fill-opacity="1"/><rect x="-37.5" width="450" fill="#ffffff" y="-37.499999" height="449.999989" fill-opacity="1"/><path fill="#f4b3b3" d="M 374.980469 187.488281 C 374.980469 190.558594 374.90625 193.625 374.753906 196.691406 C 374.605469 199.753906 374.378906 202.8125 374.078125 205.867188 C 373.777344 208.921875 373.402344 211.964844 372.949219 215 C 372.5 218.035156 371.976562 221.058594 371.378906 224.066406 C 370.777344 227.078125 370.105469 230.070312 369.363281 233.046875 C 368.617188 236.023438 367.796875 238.980469 366.90625 241.914062 C 366.015625 244.851562 365.054688 247.765625 364.019531 250.652344 C 362.988281 253.542969 361.882812 256.40625 360.707031 259.238281 C 359.535156 262.074219 358.292969 264.878906 356.980469 267.652344 C 355.667969 270.425781 354.289062 273.167969 352.84375 275.871094 C 351.394531 278.578125 349.882812 281.246094 348.304688 283.878906 C 346.726562 286.511719 345.085938 289.101562 343.382812 291.652344 C 341.679688 294.207031 339.910156 296.714844 338.082031 299.179688 C 336.257812 301.640625 334.367188 304.0625 332.421875 306.433594 C 330.476562 308.804688 328.472656 311.128906 326.410156 313.402344 C 324.351562 315.675781 322.234375 317.894531 320.066406 320.066406 C 317.894531 322.234375 315.675781 324.351562 313.402344 326.410156 C 311.128906 328.472656 308.804688 330.476562 306.433594 332.421875 C 304.0625 334.367188 301.640625 336.257812 299.179688 338.082031 C 296.714844 339.910156 294.207031 341.679688 291.652344 343.382812 C 289.101562 345.085938 286.511719 346.726562 283.878906 348.304688 C 281.246094 349.882812 278.578125 351.394531 275.871094 352.84375 C 273.167969 354.289062 270.425781 355.667969 267.652344 356.980469 C 264.878906 358.292969 262.074219 359.535156 259.238281 360.707031 C 256.40625 361.882812 253.542969 362.988281 250.652344 364.019531 C 247.765625 365.054688 244.851562 366.015625 241.914062 366.90625 C 238.980469 367.796875 236.023438 368.617188 233.046875 369.363281 C 230.070312 370.105469 227.078125 370.777344 224.066406 371.378906 C 221.058594 371.976562 218.035156 372.5 215 372.949219 C 211.964844 373.402344 208.921875 373.777344 205.867188 374.078125 C 202.8125 374.378906 199.753906 374.605469 196.691406 374.753906 C 193.625 374.90625 190.558594 374.980469 187.488281 374.980469 C 184.421875 374.980469 181.355469 374.90625 178.289062 374.753906 C 175.226562 374.605469 172.167969 374.378906 169.113281 374.078125 C 166.058594 373.777344 163.015625 373.402344 159.980469 372.949219 C 156.945312 372.5 153.921875 371.976562 150.914062 371.378906 C 147.902344 370.777344 144.910156 370.105469 141.933594 369.363281 C 138.957031 368.617188 136 367.796875 133.066406 366.90625 C 130.128906 366.015625 127.214844 365.054688 124.328125 364.019531 C 121.4375 362.988281 118.574219 361.882812 115.742188 360.707031 C 112.90625 359.535156 110.101562 358.292969 107.328125 356.980469 C 104.554688 355.667969 101.8125 354.289062 99.109375 352.84375 C 96.402344 351.394531 93.734375 349.882812 91.101562 348.304688 C 88.46875 346.726562 85.878906 345.085938 83.328125 343.382812 C 80.773438 341.679688 78.265625 339.910156 75.800781 338.082031 C 73.335938 336.257812 70.917969 334.367188 68.546875 332.421875 C 66.175781 330.476562 63.851562 328.472656 61.578125 326.410156 C 59.304688 324.351562 57.085938 322.234375 54.914062 320.066406 C 52.746094 317.894531 50.628906 315.675781 48.570312 313.402344 C 46.507812 311.128906 44.503906 308.804688 42.558594 306.433594 C 40.613281 304.0625 38.722656 301.640625 36.898438 299.179688 C 35.070312 296.714844 33.300781 294.207031 31.597656 291.652344 C 29.894531 289.101562 28.253906 286.511719 26.675781 283.878906 C 25.097656 281.246094 23.585938 278.578125 22.136719 275.871094 C 20.691406 273.167969 19.3125 270.425781 18 267.652344 C 16.6875 264.878906 15.445312 262.074219 14.273438 259.238281 C 13.097656 256.40625 11.992188 253.542969 10.960938 250.652344 C 9.925781 247.765625 8.964844 244.851562 8.074219 241.914062 C 7.183594 238.980469 6.363281 236.023438 5.617188 233.046875 C 4.875 230.070312 4.203125 227.078125 3.601562 224.066406 C 3.003906 221.058594 2.480469 218.035156 2.03125 215 C 1.578125 211.964844 1.203125 208.921875 0.902344 205.867188 C 0.601562 202.8125 0.375 199.753906 0.226562 196.691406 C 0.0742188 193.625 0 190.558594 0 187.488281 C 0 184.421875 0.0742188 181.355469 0.226562 178.289062 C 0.375 175.226562 0.601562 172.167969 0.902344 169.113281 C 1.203125 166.058594 1.578125 163.015625 2.03125 159.980469 C 2.480469 156.945312 3.003906 153.921875 3.601562 150.914062 C 4.203125 147.902344 4.875 144.910156 5.617188 141.933594 C 6.363281 138.957031 7.183594 136 8.074219 133.066406 C 8.964844 130.128906 9.925781 127.214844 10.960938 124.328125 C 11.992188 121.4375 13.097656 118.574219 14.273438 115.742188 C 15.445312 112.90625 16.6875 110.101562 18 107.328125 C 19.3125 104.554688 20.691406 101.8125 22.136719 99.109375 C 23.585938 96.402344 25.097656 93.734375 26.675781 91.101562 C 28.253906 88.46875 29.894531 85.878906 31.597656 83.328125 C 33.300781 80.773438 35.070312 78.265625 36.898438 75.800781 C 38.722656 73.335938 40.613281 70.917969 42.558594 68.546875 C 44.503906 66.175781 46.507812 63.851562 48.570312 61.578125 C 50.628906 59.304688 52.746094 57.085938 54.914062 54.914062 C 57.085938 52.746094 59.304688 50.628906 61.578125 48.570312 C 63.851562 46.507812 66.175781 44.503906 68.546875 42.558594 C 70.917969 40.613281 73.335938 38.722656 75.800781 36.898438 C 78.265625 35.070312 80.773438 33.300781 83.328125 31.597656 C 85.878906 29.894531 88.46875 28.253906 91.101562 26.675781 C 93.734375 25.097656 96.402344 23.585938 99.109375 22.136719 C 101.8125 20.691406 104.554688 19.3125 107.328125 18 C 110.101562 16.6875 112.90625 15.445312 115.742188 14.273438 C 118.574219 13.097656 121.4375 11.992188 124.328125 10.960938 C 127.214844 9.925781 130.128906 8.964844 133.066406 8.074219 C 136 7.183594 138.957031 6.363281 141.933594 5.617188 C 144.910156 4.875 147.902344 4.203125 150.914062 3.601562 C 153.921875 3.003906 156.945312 2.480469 159.980469 2.03125 C 163.015625 1.578125 166.058594 1.203125 169.113281 0.902344 C 172.167969 0.601562 175.226562 0.375 178.289062 0.226562 C 181.355469 0.0742188 184.421875 0 187.488281 0 C 190.558594 0 193.625 0.0742188 196.691406 0.226562 C 199.753906 0.375 202.8125 0.601562 205.867188 0.902344 C 208.921875 1.203125 211.964844 1.578125 215 2.03125 C 218.035156 2.480469 221.058594 3.003906 224.066406 3.601562 C 227.078125 4.203125 230.070312 4.875 233.046875 5.617188 C 236.023438 6.363281 238.980469 7.183594 241.914062 8.074219 C 244.851562 8.964844 247.765625 9.925781 250.652344 10.960938 C 253.542969 11.992188 256.40625 13.097656 259.238281 14.273438 C 262.074219 15.445312 264.878906 16.6875 267.652344 18 C 270.425781 19.3125 273.167969 20.691406 275.871094 22.136719 C 278.578125 23.585938 281.246094 25.097656 283.878906 26.675781 C 286.511719 28.253906 289.101562 29.894531 291.652344 31.597656 C 294.207031 33.300781 296.714844 35.070312 299.179688 36.898438 C 301.640625 38.722656 304.0625 40.613281 306.433594 42.558594 C 308.804688 44.503906 311.128906 46.507812 313.402344 48.570312 C 315.675781 50.628906 317.894531 52.746094 320.066406 54.914062 C 322.234375 57.085938 324.351562 59.304688 326.410156 61.578125 C 328.472656 63.851562 330.476562 66.175781 332.421875 68.546875 C 334.367188 70.917969 336.257812 73.335938 338.082031 75.800781 C 339.910156 78.265625 341.679688 80.773438 343.382812 83.328125 C 345.085938 85.878906 346.726562 88.46875 348.304688 91.101562 C 349.882812 93.734375 351.394531 96.402344 352.84375 99.109375 C 354.289062 101.8125 355.667969 104.554688 356.980469 107.328125 C 358.292969 110.101562 359.535156 112.90625 360.707031 115.742188 C 361.882812 118.574219 362.988281 121.4375 364.019531 124.328125 C 365.054688 127.214844 366.015625 130.128906 366.90625 133.066406 C 367.796875 136 368.617188 138.957031 369.363281 141.933594 C 370.105469 144.910156 370.777344 147.902344 371.378906 150.914062 C 371.976562 153.921875 372.5 156.945312 372.949219 159.980469 C 373.402344 163.015625 373.777344 166.058594 374.078125 169.113281 C 374.378906 172.167969 374.605469 175.226562 374.753906 178.289062 C 374.90625 181.355469 374.980469 184.421875 374.980469 187.488281 Z M 374.980469 187.488281 " fill-opacity="1" fill-rule="nonzero"/><path fill="#354e7a" d="M 165.519531 228.230469 C 158.035156 233.289062 103.9375 253.9375 87.882812 262.5 C 79.121094 267.175781 64.84375 291.910156 52.183594 317.269531 C 86.308594 352.835938 134.3125 374.980469 187.492188 374.980469 C 240.671875 374.980469 288.675781 352.835938 322.796875 317.269531 C 310.140625 291.910156 295.863281 267.175781 287.097656 262.5 C 271.042969 253.9375 216.949219 233.289062 209.460938 228.230469 L 187.492188 230.792969 Z M 165.519531 228.230469 " fill-opacity="1" fill-rule="evenodd"/><path fill="#fddec2" d="M 187.492188 261.523438 C 187.492188 261.523438 163.699219 259.1875 161.273438 239.761719 C 158.84375 220.339844 162.484375 206.175781 162.484375 206.175781 L 187.492188 214.441406 L 212.496094 206.175781 C 212.496094 206.175781 216.136719 220.339844 213.710938 239.761719 C 211.28125 259.1875 187.492188 261.523438 187.492188 261.523438 Z M 187.492188 261.523438 " fill-opacity="1" fill-rule="evenodd"/><path fill="#fddec2" d="M 233.636719 132.488281 C 238.175781 128.359375 242.582031 127.800781 245.476562 130.433594 C 248.882812 133.53125 247.839844 147.484375 244.777344 152.90625 C 241.714844 158.332031 239.265625 161.304688 238.914062 165.332031 C 238.605469 168.898438 232.789062 172.46875 229.222656 169.386719 C 232.121094 161.1875 234.175781 150.648438 233.875 137.257812 C 233.839844 135.675781 233.757812 134.085938 233.636719 132.492188 Z M 233.636719 132.488281 " fill-opacity="1" fill-rule="evenodd"/><path fill="#fddec2" d="M 137.367188 132.488281 C 132.828125 128.359375 128.421875 127.800781 125.523438 130.433594 C 122.121094 133.53125 123.164062 147.484375 126.226562 152.90625 C 129.289062 158.332031 131.738281 161.304688 132.085938 165.332031 C 132.363281 168.507812 136.996094 171.679688 140.53125 170.171875 C 137.125 161.003906 135 150.015625 135.457031 137.957031 C 135.53125 136.101562 136.226562 134.335938 137.347656 132.753906 Z M 137.367188 132.488281 " fill-opacity="1" fill-rule="evenodd"/><path fill="#954744" d="M 136.039062 49.703125 C 120.238281 71.132812 128.722656 107.769531 132.136719 121.574219 C 135.554688 135.378906 133.785156 162.808594 136.605469 182.574219 C 139.429688 202.335938 154.675781 220.03125 185.546875 218.527344 C 216.417969 217.019531 228.839844 210.996094 232.417969 180.503906 C 235.996094 150.007812 234.027344 107.25 236.515625 98.785156 C 236.515625 98.785156 243.292969 104.980469 248.761719 100.273438 C 254.230469 95.5625 243.75 83.566406 243.445312 80.984375 C 243.445312 80.984375 252.730469 83.757812 255.945312 88.96875 C 259.15625 94.179688 261.65625 85.796875 257.289062 77.988281 C 252.925781 70.179688 245.328125 67.769531 245.328125 67.769531 C 245.328125 67.769531 248.8125 66.496094 255.121094 66.941406 C 261.433594 67.386719 262.546875 59.890625 256.53125 56.847656 C 250.519531 53.800781 235.597656 53.578125 231.960938 55.957031 C 231.960938 55.957031 235.128906 51.003906 242.519531 48.210938 C 249.910156 45.414062 244.320312 35.425781 230.335938 41.316406 C 230.335938 41.316406 252.960938 20.859375 203.058594 28.199219 C 203.058594 28.199219 215.703125 19.84375 196.171875 21.765625 C 176.636719 23.683594 139.425781 37.976562 136.042969 49.703125 Z M 136.039062 49.703125 " fill-opacity="1" fill-rule="evenodd"/><path fill="#fddec2" d="M 149.503906 83.109375 C 164.132812 98.128906 175.8125 102.15625 180.332031 99.898438 C 184.847656 97.640625 179.25 86.347656 179.25 86.347656 C 179.25 86.347656 193.09375 105.984375 202.714844 103.332031 C 212.335938 100.683594 206.640625 89.488281 206.640625 89.488281 C 206.640625 89.488281 216.753906 102.84375 224.117188 102.84375 C 224.117188 102.84375 222.957031 116.738281 231.398438 122.628906 C 231.398438 122.628906 229.296875 148.878906 228.109375 162.703125 C 226.925781 176.527344 221.789062 192.71875 213.695312 194.695312 C 213.695312 194.695312 215.710938 175.660156 214.320312 170.621094 C 212.929688 165.582031 210.761719 162.890625 204.679688 162.804688 C 198.601562 162.71875 193.824219 164.28125 187.394531 164.453125 C 180.96875 164.628906 166.636719 161.414062 161.339844 165.496094 C 156.042969 169.578125 160.929688 194.886719 160.929688 194.886719 C 160.929688 194.886719 146.496094 193.414062 143.453125 168.671875 C 140.40625 143.929688 140.453125 116.398438 140.453125 116.398438 C 140.453125 116.398438 152.511719 114.125 149.503906 83.109375 Z M 149.503906 83.109375 " fill-opacity="1" fill-rule="evenodd"/><path fill="#fddec2" d="M 187.199219 180.273438 C 181.664062 180.273438 166.324219 177.261719 164.65625 167.886719 C 169.292969 168.855469 178.320312 170.25 187.199219 170.25 C 196.082031 170.25 205.105469 168.855469 209.742188 167.886719 C 208.074219 177.261719 192.738281 180.273438 187.199219 180.273438 Z M 187.199219 180.273438 " fill-opacity="1" fill-rule="evenodd"/><path fill="#954744" d="M 182.675781 138.246094 C 182.238281 137.488281 182.5 136.523438 183.257812 136.089844 C 184.015625 135.652344 184.980469 135.914062 185.414062 136.671875 C 187.410156 140.128906 190.171875 141.90625 192.265625 143.25 C 195.007812 145.007812 196.898438 146.222656 196.058594 149.1875 L 196.03125 149.289062 C 195.367188 151.53125 193.847656 153.332031 191.957031 154.417969 C 190.046875 155.511719 187.753906 155.886719 185.558594 155.265625 L 185.46875 155.242188 C 184.628906 154.992188 184.148438 154.113281 184.394531 153.273438 C 184.644531 152.4375 185.523438 151.957031 186.363281 152.203125 C 186.386719 152.210938 186.355469 152.199219 186.414062 152.214844 C 187.753906 152.59375 189.179688 152.355469 190.378906 151.664062 C 191.597656 150.96875 192.570312 149.820312 192.992188 148.394531 C 193 148.367188 192.992188 148.394531 193.007812 148.332031 C 193.210938 147.621094 192.125 146.925781 190.554688 145.914062 C 188.1875 144.394531 185.0625 142.386719 182.675781 138.246094 Z M 182.675781 138.246094 " fill-opacity="1" fill-rule="nonzero"/><path fill="#954744" d="M 211.367188 131.082031 C 211.367188 131.632812 211.328125 132.175781 211.257812 132.714844 C 211.1875 133.253906 211.078125 133.777344 210.9375 134.285156 C 210.796875 134.792969 210.625 135.273438 210.421875 135.730469 C 210.214844 136.1875 209.984375 136.613281 209.722656 137 C 209.460938 137.390625 209.179688 137.734375 208.871094 138.039062 C 208.566406 138.347656 208.242188 138.605469 207.902344 138.8125 C 207.5625 139.023438 207.210938 139.183594 206.851562 139.289062 C 206.488281 139.398438 206.125 139.453125 205.753906 139.453125 C 205.386719 139.453125 205.023438 139.398438 204.660156 139.289062 C 204.300781 139.183594 203.949219 139.023438 203.609375 138.8125 C 203.269531 138.605469 202.945312 138.347656 202.636719 138.039062 C 202.332031 137.734375 202.050781 137.390625 201.789062 137 C 201.527344 136.613281 201.296875 136.1875 201.089844 135.730469 C 200.886719 135.273438 200.714844 134.792969 200.570312 134.285156 C 200.429688 133.777344 200.324219 133.253906 200.253906 132.714844 C 200.179688 132.175781 200.144531 131.632812 200.144531 131.082031 C 200.144531 130.53125 200.179688 129.988281 200.253906 129.449219 C 200.324219 128.910156 200.429688 128.386719 200.570312 127.878906 C 200.714844 127.371094 200.886719 126.890625 201.089844 126.433594 C 201.296875 125.976562 201.527344 125.550781 201.789062 125.164062 C 202.050781 124.773438 202.332031 124.429688 202.636719 124.121094 C 202.945312 123.816406 203.269531 123.558594 203.609375 123.347656 C 203.949219 123.140625 204.300781 122.980469 204.660156 122.875 C 205.023438 122.765625 205.386719 122.710938 205.753906 122.710938 C 206.125 122.710938 206.488281 122.765625 206.851562 122.875 C 207.210938 122.980469 207.5625 123.140625 207.902344 123.347656 C 208.242188 123.558594 208.566406 123.816406 208.871094 124.121094 C 209.179688 124.429688 209.460938 124.773438 209.722656 125.164062 C 209.984375 125.550781 210.214844 125.976562 210.421875 126.433594 C 210.625 126.890625 210.796875 127.371094 210.9375 127.878906 C 211.078125 128.386719 211.1875 128.910156 211.257812 129.449219 C 211.328125 129.988281 211.367188 130.53125 211.367188 131.082031 Z M 211.367188 131.082031 " fill-opacity="1" fill-rule="nonzero"/><path fill="#954744" d="M 215.507812 119.035156 C 216.121094 119.65625 216.113281 120.660156 215.488281 121.273438 C 214.867188 121.886719 213.863281 121.875 213.25 121.253906 C 211.257812 119.226562 208.933594 118.023438 206.566406 117.730469 C 204.292969 117.449219 201.949219 118.019531 199.804688 119.53125 C 199.089844 120.035156 198.101562 119.863281 197.597656 119.144531 C 197.09375 118.429688 197.265625 117.441406 197.984375 116.9375 C 200.804688 114.953125 203.910156 114.203125 206.953125 114.578125 C 210.023438 114.957031 212.996094 116.484375 215.507812 119.035156 Z M 215.507812 119.035156 " fill-opacity="1" fill-rule="nonzero"/><path fill="#954744" d="M 170.917969 131.082031 C 170.917969 131.632812 170.882812 132.175781 170.808594 132.714844 C 170.738281 133.253906 170.632812 133.777344 170.488281 134.285156 C 170.347656 134.792969 170.175781 135.273438 169.972656 135.730469 C 169.765625 136.1875 169.535156 136.613281 169.273438 137 C 169.011719 137.390625 168.730469 137.734375 168.421875 138.039062 C 168.117188 138.347656 167.792969 138.605469 167.453125 138.8125 C 167.113281 139.023438 166.761719 139.183594 166.402344 139.289062 C 166.039062 139.398438 165.675781 139.453125 165.308594 139.453125 C 164.9375 139.453125 164.574219 139.398438 164.210938 139.289062 C 163.851562 139.183594 163.5 139.023438 163.160156 138.8125 C 162.820312 138.605469 162.496094 138.347656 162.191406 138.039062 C 161.882812 137.734375 161.601562 137.390625 161.339844 137 C 161.078125 136.613281 160.847656 136.1875 160.640625 135.730469 C 160.4375 135.273438 160.265625 134.792969 160.125 134.285156 C 159.984375 133.777344 159.875 133.253906 159.804688 132.714844 C 159.730469 132.175781 159.695312 131.632812 159.695312 131.082031 C 159.695312 130.53125 159.730469 129.988281 159.804688 129.449219 C 159.875 128.910156 159.984375 128.386719 160.125 127.878906 C 160.265625 127.371094 160.4375 126.890625 160.640625 126.433594 C 160.847656 125.976562 161.078125 125.550781 161.339844 125.164062 C 161.601562 124.773438 161.882812 124.429688 162.191406 124.121094 C 162.496094 123.816406 162.820312 123.558594 163.160156 123.347656 C 163.5 123.140625 163.851562 122.980469 164.210938 122.875 C 164.574219 122.765625 164.9375 122.710938 165.308594 122.710938 C 165.675781 122.710938 166.039062 122.765625 166.402344 122.875 C 166.761719 122.980469 167.113281 123.140625 167.453125 123.347656 C 167.792969 123.558594 168.117188 123.816406 168.421875 124.121094 C 168.730469 124.429688 169.011719 124.773438 169.273438 125.164062 C 169.535156 125.550781 169.765625 125.976562 169.972656 126.433594 C 170.175781 126.890625 170.347656 127.371094 170.488281 127.878906 C 170.632812 128.386719 170.738281 128.910156 170.808594 129.449219 C 170.882812 129.988281 170.917969 130.53125 170.917969 131.082031 Z M 170.917969 131.082031 " fill-opacity="1" fill-rule="nonzero"/><path fill="#954744" d="M 157.8125 121.253906 C 157.199219 121.875 156.195312 121.886719 155.574219 121.273438 C 154.949219 120.660156 154.941406 119.65625 155.554688 119.035156 C 158.066406 116.484375 161.039062 114.957031 164.109375 114.578125 C 167.152344 114.203125 170.257812 114.953125 173.078125 116.9375 C 173.796875 117.441406 173.96875 118.429688 173.464844 119.144531 C 172.960938 119.863281 171.972656 120.035156 171.257812 119.53125 C 169.113281 118.019531 166.769531 117.449219 164.496094 117.730469 C 162.128906 118.023438 159.804688 119.226562 157.8125 121.253906 Z M 157.8125 121.253906 " fill-opacity="1" fill-rule="nonzero"/><path fill="#82b9be" d="M 160.535156 230.882812 C 160.535156 230.882812 162.464844 258.625 187.492188 258.625 C 212.515625 258.625 214.449219 230.882812 214.449219 230.882812 L 224.664062 235.457031 C 217.027344 270.203125 187.492188 269.527344 187.492188 269.527344 C 187.492188 269.527344 157.957031 270.203125 150.316406 235.457031 Z M 160.535156 230.882812 " fill-opacity="1" fill-rule="evenodd"/><path fill="#2f456c" d="M 214.195312 236.398438 C 213.789062 236.230469 213.597656 235.769531 213.765625 235.363281 C 213.933594 234.960938 214.398438 234.769531 214.800781 234.9375 C 221.214844 237.601562 222.992188 238.972656 223 238.976562 C 223.347656 239.242188 223.414062 239.738281 223.148438 240.085938 C 222.882812 240.433594 222.386719 240.5 222.039062 240.234375 C 222.03125 240.230469 220.417969 238.984375 214.195312 236.398438 Z M 214.195312 236.398438 " fill-opacity="1" fill-rule="nonzero"/><path fill="#2f456c" d="M 212.445312 242.636719 C 212.058594 242.4375 211.902344 241.960938 212.105469 241.570312 C 212.304688 241.183594 212.78125 241.027344 213.171875 241.230469 C 216.671875 243.027344 220.402344 244.964844 220.414062 244.972656 C 220.800781 245.171875 220.953125 245.648438 220.753906 246.039062 C 220.554688 246.425781 220.074219 246.578125 219.6875 246.378906 C 219.675781 246.375 215.945312 244.433594 212.445312 242.636719 Z M 212.445312 242.636719 " fill-opacity="1" fill-rule="nonzero"/><path fill="#2f456c" d="M 209.554688 248.382812 C 209.164062 248.183594 209.011719 247.707031 209.207031 247.316406 C 209.40625 246.929688 209.882812 246.777344 210.273438 246.972656 C 214.019531 248.898438 217.125 251.164062 217.132812 251.171875 C 217.488281 251.425781 217.5625 251.921875 217.308594 252.273438 C 217.050781 252.625 216.554688 252.703125 216.203125 252.449219 C 216.195312 252.441406 213.191406 250.25 209.554688 248.382812 Z M 209.554688 248.382812 " fill-opacity="1" fill-rule="nonzero"/><path fill="#2f456c" d="M 205.640625 252.953125 C 205.320312 252.65625 205.300781 252.15625 205.597656 251.835938 C 205.894531 251.519531 206.394531 251.5 206.714844 251.792969 C 208.597656 253.535156 212.941406 256.164062 212.953125 256.171875 C 213.328125 256.394531 213.445312 256.882812 213.21875 257.253906 C 212.992188 257.628906 212.507812 257.746094 212.136719 257.523438 C 212.121094 257.515625 207.644531 254.808594 205.640625 252.953125 Z M 205.640625 252.953125 " fill-opacity="1" fill-rule="nonzero"/><path fill="#2f456c" d="M 200.285156 257.234375 C 199.933594 256.976562 199.855469 256.484375 200.113281 256.128906 C 200.371094 255.777344 200.863281 255.699219 201.214844 255.957031 C 204.628906 258.445312 207.335938 261.15625 207.34375 261.164062 C 207.652344 261.472656 207.652344 261.972656 207.347656 262.28125 C 207.039062 262.59375 206.535156 262.59375 206.226562 262.285156 C 206.21875 262.277344 203.582031 259.636719 200.285156 257.234375 Z M 200.285156 257.234375 " fill-opacity="1" fill-rule="nonzero"/><path fill="#2f456c" d="M 193.894531 259.941406 C 193.632812 259.589844 193.703125 259.09375 194.050781 258.832031 C 194.402344 258.570312 194.898438 258.640625 195.160156 258.992188 C 197.691406 262.359375 199.492188 265.75 199.496094 265.761719 C 199.703125 266.144531 199.554688 266.625 199.171875 266.832031 C 198.785156 267.035156 198.308594 266.890625 198.101562 266.503906 C 198.097656 266.496094 196.351562 263.210938 193.894531 259.941406 Z M 193.894531 259.941406 " fill-opacity="1" fill-rule="nonzero"/><path fill="#2f456c" d="M 186.761719 260.230469 C 186.738281 259.792969 187.074219 259.421875 187.511719 259.398438 C 187.949219 259.375 188.320312 259.710938 188.34375 260.148438 C 188.558594 264.355469 188.15625 268.175781 188.15625 268.1875 C 188.109375 268.621094 187.722656 268.9375 187.289062 268.894531 C 186.851562 268.847656 186.535156 268.460938 186.582031 268.023438 C 186.582031 268.015625 186.972656 264.3125 186.761719 260.230469 Z M 186.761719 260.230469 " fill-opacity="1" fill-rule="nonzero"/><path fill="#2f456c" d="M 159.933594 234.9375 C 160.335938 234.769531 160.800781 234.960938 160.96875 235.363281 C 161.136719 235.769531 160.945312 236.230469 160.542969 236.398438 C 154.316406 238.984375 152.703125 240.230469 152.699219 240.234375 C 152.351562 240.5 151.851562 240.433594 151.589844 240.085938 C 151.324219 239.738281 151.390625 239.242188 151.738281 238.976562 C 151.742188 238.972656 153.519531 237.601562 159.933594 234.9375 Z M 159.933594 234.9375 " fill-opacity="1" fill-rule="nonzero"/><path fill="#2f456c" d="M 161.566406 241.230469 C 161.953125 241.027344 162.429688 241.183594 162.632812 241.570312 C 162.832031 241.960938 162.679688 242.4375 162.289062 242.636719 C 158.792969 244.433594 155.058594 246.375 155.046875 246.378906 C 154.660156 246.578125 154.183594 246.425781 153.980469 246.039062 C 153.78125 245.648438 153.933594 245.171875 154.324219 244.972656 C 154.332031 244.964844 158.066406 243.027344 161.566406 241.230469 Z M 161.566406 241.230469 " fill-opacity="1" fill-rule="nonzero"/><path fill="#2f456c" d="M 164.464844 246.972656 C 164.851562 246.777344 165.328125 246.929688 165.527344 247.316406 C 165.726562 247.707031 165.570312 248.183594 165.183594 248.382812 C 161.542969 250.25 158.542969 252.441406 158.53125 252.449219 C 158.179688 252.703125 157.683594 252.625 157.429688 252.273438 C 157.171875 251.921875 157.25 251.425781 157.601562 251.171875 C 157.609375 251.164062 160.714844 248.898438 164.464844 246.972656 Z M 164.464844 246.972656 " fill-opacity="1" fill-rule="nonzero"/><path fill="#2f456c" d="M 168.023438 251.792969 C 168.34375 251.5 168.84375 251.519531 169.140625 251.835938 C 169.433594 252.15625 169.414062 252.65625 169.09375 252.953125 C 167.089844 254.808594 162.613281 257.515625 162.601562 257.523438 C 162.226562 257.746094 161.742188 257.628906 161.515625 257.253906 C 161.289062 256.882812 161.410156 256.394531 161.78125 256.167969 C 161.796875 256.164062 166.140625 253.535156 168.023438 251.792969 Z M 168.023438 251.792969 " fill-opacity="1" fill-rule="nonzero"/><path fill="#2f456c" d="M 173.519531 255.957031 C 173.871094 255.699219 174.367188 255.777344 174.625 256.128906 C 174.878906 256.484375 174.800781 256.976562 174.449219 257.234375 C 171.152344 259.636719 168.515625 262.277344 168.507812 262.285156 C 168.199219 262.59375 167.699219 262.59375 167.390625 262.28125 C 167.082031 261.972656 167.082031 261.472656 167.394531 261.164062 C 167.402344 261.15625 170.105469 258.445312 173.519531 255.957031 Z M 173.519531 255.957031 " fill-opacity="1" fill-rule="nonzero"/><path fill="#2f456c" d="M 179.578125 258.992188 C 179.839844 258.640625 180.335938 258.570312 180.683594 258.832031 C 181.035156 259.09375 181.105469 259.589844 180.84375 259.941406 C 178.382812 263.210938 176.640625 266.496094 176.632812 266.503906 C 176.429688 266.890625 175.949219 267.035156 175.566406 266.832031 C 175.179688 266.625 175.035156 266.144531 175.238281 265.761719 C 175.246094 265.75 177.046875 262.359375 179.578125 258.992188 Z M 179.578125 258.992188 " fill-opacity="1" fill-rule="nonzero"/><path fill="#2f456c" d="M 186.394531 260.148438 C 186.417969 259.710938 186.789062 259.375 187.226562 259.398438 C 187.660156 259.421875 187.996094 259.792969 187.976562 260.230469 C 187.765625 264.3125 188.15625 268.015625 188.15625 268.023438 C 188.199219 268.460938 187.882812 268.847656 187.449219 268.894531 C 187.011719 268.9375 186.625 268.621094 186.582031 268.1875 C 186.578125 268.175781 186.175781 264.355469 186.394531 260.148438 Z M 186.394531 260.148438 " fill-opacity="1" fill-rule="nonzero"/></svg>