<svg xmlns="http://www.w3.org/2000/svg" xmlns:xlink="http://www.w3.org/1999/xlink" width="500" zoomAndPan="magnify" viewBox="0 0 375 374.999991" height="500" preserveAspectRatio="xMidYMid meet" version="1.0"><rect x="-37.5" width="450" fill="#ffffff" y="-37.499999" height="449.999989" fill-opacity="1"/><rect x="-37.5" width="450" fill="#ffffff" y="-37.499999" height="449.999989" fill-opacity="1"/><path fill="#ebc5a4" d="M 16.839844 204.304688 C 17.027344 207.101562 17.28125 209.890625 17.601562 212.671875 C 17.925781 215.453125 18.316406 218.226562 18.777344 220.988281 C 19.234375 223.75 19.761719 226.5 20.355469 229.238281 C 20.949219 231.972656 21.609375 234.695312 22.335938 237.398438 C 23.0625 240.101562 23.859375 242.789062 24.71875 245.453125 C 25.578125 248.117188 26.5 250.761719 27.492188 253.382812 C 28.480469 256.003906 29.53125 258.597656 30.648438 261.164062 C 31.765625 263.734375 32.945312 266.273438 34.1875 268.785156 C 35.429688 271.292969 36.730469 273.773438 38.09375 276.21875 C 39.457031 278.667969 40.878906 281.078125 42.363281 283.457031 C 43.84375 285.832031 45.382812 288.171875 46.980469 290.472656 C 48.578125 292.773438 50.230469 295.035156 51.9375 297.253906 C 53.644531 299.476562 55.40625 301.652344 57.222656 303.785156 C 59.035156 305.921875 60.902344 308.007812 62.820312 310.050781 C 64.738281 312.09375 66.703125 314.089844 68.71875 316.035156 C 70.734375 317.980469 72.796875 319.875 74.90625 321.71875 C 77.015625 323.566406 79.167969 325.355469 81.363281 327.097656 C 83.5625 328.835938 85.796875 330.519531 88.078125 332.148438 C 90.359375 333.777344 92.675781 335.351562 95.03125 336.867188 C 97.390625 338.382812 99.78125 339.839844 102.210938 341.238281 C 104.636719 342.636719 107.097656 343.972656 109.59375 345.25 C 112.085938 346.527344 114.609375 347.742188 117.164062 348.898438 C 119.71875 350.050781 122.300781 351.140625 124.90625 352.167969 C 127.511719 353.195312 130.144531 354.160156 132.800781 355.054688 C 135.453125 355.953125 138.128906 356.785156 140.824219 357.554688 C 143.519531 358.320312 146.234375 359.019531 148.960938 359.65625 C 151.691406 360.289062 154.4375 360.855469 157.195312 361.351562 C 159.953125 361.851562 162.71875 362.285156 165.5 362.648438 C 168.277344 363.011719 171.0625 363.304688 173.855469 363.53125 C 176.652344 363.757812 179.449219 363.917969 182.25 364.003906 C 185.050781 364.09375 187.851562 364.117188 190.65625 364.066406 C 193.457031 364.019531 196.257812 363.902344 199.050781 363.71875 C 201.847656 363.53125 204.640625 363.277344 207.421875 362.957031 C 210.207031 362.632812 212.980469 362.242188 215.746094 361.785156 C 218.511719 361.328125 221.261719 360.800781 224 360.207031 C 226.742188 359.613281 229.464844 358.953125 232.171875 358.226562 C 234.875 357.5 237.5625 356.707031 240.230469 355.847656 C 242.898438 354.988281 245.542969 354.066406 248.164062 353.078125 C 250.789062 352.089844 253.382812 351.035156 255.953125 349.917969 C 258.523438 348.804688 261.066406 347.625 263.578125 346.386719 C 266.09375 345.144531 268.574219 343.84375 271.019531 342.480469 C 273.46875 341.117188 275.882812 339.695312 278.261719 338.214844 C 280.640625 336.734375 282.980469 335.195312 285.285156 333.601562 C 287.589844 332.003906 289.851562 330.355469 292.074219 328.648438 C 294.296875 326.941406 296.472656 325.179688 298.609375 323.367188 C 300.746094 321.554688 302.835938 319.691406 304.878906 317.773438 C 306.921875 315.859375 308.917969 313.894531 310.867188 311.878906 C 312.8125 309.863281 314.710938 307.804688 316.554688 305.699219 C 318.402344 303.589844 320.195312 301.4375 321.9375 299.246094 C 323.675781 297.050781 325.363281 294.8125 326.992188 292.535156 C 328.625 290.257812 330.199219 287.941406 331.714844 285.585938 C 333.230469 283.230469 334.6875 280.839844 336.089844 278.414062 C 337.488281 275.988281 338.828125 273.527344 340.105469 271.039062 C 341.382812 268.546875 342.601562 266.023438 343.753906 263.472656 C 344.910156 260.917969 346 258.339844 347.027344 255.734375 C 348.054688 253.128906 349.019531 250.5 349.917969 247.847656 C 350.816406 245.195312 351.648438 242.523438 352.417969 239.832031 C 353.183594 237.136719 353.886719 234.425781 354.519531 231.699219 C 355.152344 228.96875 355.722656 226.230469 356.21875 223.472656 C 356.71875 220.71875 357.152344 217.953125 357.515625 215.175781 C 357.878906 212.398438 358.175781 209.613281 358.402344 206.824219 C 358.628906 204.03125 358.785156 201.234375 358.875 198.4375 C 358.964844 195.636719 358.984375 192.839844 358.9375 190.039062 C 358.890625 187.238281 358.773438 184.441406 358.585938 181.648438 C 358.402344 178.851562 358.148438 176.066406 357.824219 173.28125 C 357.5 170.5 357.109375 167.730469 356.652344 164.964844 C 356.195312 162.203125 355.667969 159.453125 355.074219 156.71875 C 354.480469 153.980469 353.820312 151.257812 353.089844 148.554688 C 352.363281 145.851562 351.570312 143.164062 350.710938 140.5 C 349.851562 137.835938 348.925781 135.191406 347.9375 132.570312 C 346.949219 129.953125 345.894531 127.355469 344.777344 124.789062 C 343.660156 122.21875 342.480469 119.679688 341.242188 117.167969 C 340 114.660156 338.695312 112.179688 337.332031 109.734375 C 335.96875 107.285156 334.546875 104.875 333.066406 102.5 C 331.582031 100.121094 330.042969 97.78125 328.445312 95.480469 C 326.851562 93.179688 325.199219 90.917969 323.488281 88.699219 C 321.78125 86.476562 320.019531 84.300781 318.207031 82.167969 C 316.390625 80.03125 314.523438 77.945312 312.605469 75.902344 C 310.691406 73.859375 308.722656 71.867188 306.707031 69.917969 C 304.691406 67.972656 302.628906 66.078125 300.519531 64.234375 C 298.414062 62.390625 296.261719 60.597656 294.0625 58.859375 C 291.867188 57.117188 289.628906 55.433594 287.347656 53.804688 C 285.070312 52.175781 282.753906 50.601562 280.394531 49.085938 C 278.039062 47.570312 275.644531 46.113281 273.21875 44.714844 C 270.789062 43.320312 268.328125 41.980469 265.835938 40.703125 C 263.339844 39.425781 260.816406 38.210938 258.261719 37.054688 C 255.710938 35.902344 253.128906 34.8125 250.519531 33.785156 C 247.914062 32.757812 245.28125 31.796875 242.628906 30.898438 C 239.972656 30 237.300781 29.167969 234.601562 28.398438 C 231.90625 27.632812 229.195312 26.933594 226.464844 26.300781 C 223.734375 25.664062 220.992188 25.097656 218.234375 24.601562 C 215.476562 24.101562 212.707031 23.667969 209.929688 23.304688 C 207.148438 22.941406 204.363281 22.648438 201.570312 22.421875 C 198.777344 22.195312 195.980469 22.039062 193.179688 21.949219 C 190.378906 21.859375 187.574219 21.835938 184.773438 21.886719 C 181.972656 21.933594 179.171875 22.050781 176.375 22.234375 C 173.578125 22.421875 170.789062 22.675781 168.003906 22.996094 C 165.21875 23.320312 162.445312 23.710938 159.679688 24.167969 C 156.917969 24.628906 154.164062 25.152344 151.425781 25.746094 C 148.6875 26.339844 145.964844 27 143.257812 27.726562 C 140.550781 28.453125 137.863281 29.246094 135.195312 30.105469 C 132.527344 30.964844 129.882812 31.886719 127.261719 32.878906 C 124.640625 33.867188 122.042969 34.917969 119.472656 36.035156 C 116.902344 37.148438 114.359375 38.328125 111.847656 39.570312 C 109.335938 40.808594 106.855469 42.109375 104.40625 43.472656 C 101.957031 44.835938 99.542969 46.257812 97.164062 47.738281 C 94.785156 49.21875 92.445312 50.757812 90.140625 52.351562 C 87.839844 53.949219 85.578125 55.597656 83.355469 57.304688 C 81.132812 59.011719 78.953125 60.773438 76.816406 62.585938 C 74.683594 64.398438 72.59375 66.265625 70.546875 68.179688 C 68.503906 70.097656 66.507812 72.0625 64.5625 74.074219 C 62.613281 76.089844 60.71875 78.148438 58.871094 80.257812 C 57.023438 82.363281 55.230469 84.515625 53.492188 86.710938 C 51.75 88.902344 50.066406 91.140625 48.433594 93.417969 C 46.804688 95.695312 45.230469 98.011719 43.714844 100.367188 C 42.195312 102.722656 40.738281 105.113281 39.339844 107.539062 C 37.941406 109.964844 36.601562 112.425781 35.324219 114.917969 C 34.042969 117.410156 32.828125 119.929688 31.671875 122.480469 C 30.519531 125.035156 29.425781 127.613281 28.398438 130.21875 C 27.371094 132.824219 26.40625 135.453125 25.507812 138.105469 C 24.609375 140.757812 23.777344 143.429688 23.011719 146.125 C 22.242188 148.816406 21.542969 151.527344 20.90625 154.253906 C 20.273438 156.984375 19.707031 159.726562 19.207031 162.480469 C 18.707031 165.234375 18.277344 168.003906 17.914062 170.777344 C 17.550781 173.554688 17.253906 176.339844 17.027344 179.132812 C 16.800781 181.921875 16.640625 184.71875 16.550781 187.515625 C 16.464844 190.316406 16.441406 193.113281 16.492188 195.914062 C 16.539062 198.714844 16.65625 201.511719 16.839844 204.304688 Z M 16.839844 204.304688 " fill-opacity="1" fill-rule="nonzero"/><path fill="#fddec2" d="M 196.828125 181.554688 L 208.230469 214.105469 L 216.839844 258.160156 L 167.699219 255.117188 L 145.90625 211.574219 L 151.015625 172.683594 Z M 196.828125 181.554688 " fill-opacity="1" fill-rule="evenodd"/><path fill="#ebc5a4" d="M 147.339844 200.671875 L 150.972656 173.023438 C 170.3125 177.433594 213.960938 194.523438 203.597656 208.894531 C 193.234375 223.261719 171.769531 214.640625 147.339844 200.671875 Z M 147.339844 200.671875 " fill-opacity="1" fill-rule="evenodd"/><path fill="#fddec2" d="M 239.917969 118.949219 C 240.074219 123.527344 240.429688 127.503906 241.882812 134.503906 C 243.898438 144.230469 246.175781 157.324219 239.214844 177.132812 C 232.253906 196.941406 226.320312 206.542969 200.960938 209.640625 C 175.601562 212.734375 149.511719 189.335938 134.984375 180.472656 C 130.636719 164.242188 124.328125 121.875 127.199219 112.421875 C 130.070312 102.964844 149.128906 80.9375 174.160156 68.609375 C 197.832031 56.953125 219.527344 74.007812 236.839844 107.230469 C 238.816406 111.03125 239.773438 114.667969 239.917969 118.949219 Z M 239.917969 118.949219 " fill-opacity="1" fill-rule="evenodd"/><path fill="#954744" d="M 237.417969 112.664062 C 238.394531 113.449219 238.550781 114.875 237.765625 115.847656 C 236.980469 116.824219 235.554688 116.980469 234.578125 116.195312 C 233.789062 115.558594 233.023438 115.003906 232.28125 114.519531 C 228.582031 112.105469 225.265625 111.304688 222.660156 111.398438 C 220.371094 111.476562 218.757812 112.207031 218.074219 113.058594 C 218.035156 113.105469 218.003906 113.144531 217.988281 113.171875 C 217.304688 114.21875 215.902344 114.515625 214.855469 113.835938 C 213.804688 113.15625 213.507812 111.753906 214.1875 110.707031 C 214.304688 110.53125 214.421875 110.367188 214.542969 110.21875 C 215.945312 108.480469 218.796875 107.003906 222.519531 106.875 C 225.929688 106.753906 230.171875 107.742188 234.75 110.722656 C 235.636719 111.300781 236.527344 111.949219 237.417969 112.664062 Z M 237.417969 112.664062 " fill-opacity="1" fill-rule="nonzero"/><path fill="#954744" d="M 204.65625 113.171875 C 205.710938 113.839844 206.019531 115.238281 205.347656 116.292969 C 204.675781 117.34375 203.277344 117.65625 202.226562 116.984375 C 201.921875 116.792969 201.609375 116.605469 201.28125 116.429688 C 197.371094 114.304688 192.925781 114.078125 189.171875 114.808594 C 185.566406 115.511719 182.742188 117 181.8125 118.453125 C 181.792969 118.484375 181.773438 118.519531 181.746094 118.566406 C 181.148438 119.664062 179.773438 120.066406 178.675781 119.46875 C 177.578125 118.871094 177.175781 117.5 177.773438 116.402344 C 177.835938 116.285156 177.910156 116.160156 177.996094 116.023438 C 179.539062 113.613281 183.511719 111.292969 188.300781 110.359375 C 192.941406 109.453125 198.484375 109.761719 203.445312 112.457031 C 203.84375 112.671875 204.25 112.910156 204.65625 113.171875 Z M 204.65625 113.171875 " fill-opacity="1" fill-rule="nonzero"/><path fill="#954744" d="M 222.113281 136.734375 C 222.171875 137.265625 222.265625 137.785156 222.394531 138.292969 C 222.519531 138.804688 222.675781 139.296875 222.863281 139.769531 C 223.050781 140.246094 223.265625 140.691406 223.503906 141.109375 C 223.746094 141.527344 224.007812 141.90625 224.292969 142.253906 C 224.578125 142.597656 224.878906 142.902344 225.199219 143.164062 C 225.515625 143.425781 225.84375 143.640625 226.183594 143.804688 C 226.523438 143.972656 226.867188 144.085938 227.214844 144.152344 C 227.5625 144.214844 227.90625 144.226562 228.25 144.1875 C 228.59375 144.148438 228.925781 144.058594 229.25 143.917969 C 229.574219 143.777344 229.882812 143.585938 230.175781 143.347656 C 230.46875 143.109375 230.738281 142.828125 230.992188 142.5 C 231.242188 142.171875 231.46875 141.808594 231.667969 141.40625 C 231.867188 141.007812 232.035156 140.574219 232.175781 140.113281 C 232.3125 139.652344 232.421875 139.171875 232.496094 138.667969 C 232.570312 138.164062 232.613281 137.648438 232.621094 137.121094 C 232.628906 136.597656 232.601562 136.070312 232.539062 135.539062 C 232.480469 135.011719 232.386719 134.492188 232.257812 133.980469 C 232.132812 133.46875 231.976562 132.976562 231.789062 132.503906 C 231.601562 132.03125 231.386719 131.585938 231.148438 131.167969 C 230.90625 130.75 230.644531 130.367188 230.359375 130.023438 C 230.074219 129.675781 229.773438 129.371094 229.453125 129.113281 C 229.136719 128.851562 228.808594 128.636719 228.46875 128.472656 C 228.128906 128.304688 227.785156 128.1875 227.4375 128.125 C 227.089844 128.058594 226.742188 128.046875 226.402344 128.085938 C 226.058594 128.125 225.726562 128.214844 225.402344 128.359375 C 225.078125 128.5 224.769531 128.691406 224.476562 128.929688 C 224.183594 129.167969 223.910156 129.449219 223.660156 129.777344 C 223.410156 130.101562 223.183594 130.464844 222.984375 130.867188 C 222.785156 131.269531 222.617188 131.699219 222.476562 132.160156 C 222.339844 132.625 222.230469 133.105469 222.15625 133.609375 C 222.082031 134.113281 222.039062 134.628906 222.03125 135.152344 C 222.023438 135.679688 222.050781 136.207031 222.113281 136.734375 Z M 222.113281 136.734375 " fill-opacity="1" fill-rule="nonzero"/><path fill="#954744" d="M 188.550781 140.421875 C 188.609375 140.953125 188.703125 141.472656 188.828125 141.984375 C 188.957031 142.492188 189.113281 142.984375 189.300781 143.457031 C 189.488281 143.933594 189.699219 144.378906 189.941406 144.796875 C 190.183594 145.214844 190.445312 145.59375 190.730469 145.941406 C 191.015625 146.289062 191.316406 146.589844 191.632812 146.851562 C 191.953125 147.113281 192.28125 147.328125 192.621094 147.492188 C 192.960938 147.660156 193.304688 147.773438 193.652344 147.839844 C 194 147.902344 194.34375 147.914062 194.6875 147.875 C 195.027344 147.835938 195.363281 147.746094 195.6875 147.605469 C 196.011719 147.464844 196.320312 147.273438 196.613281 147.035156 C 196.90625 146.796875 197.175781 146.515625 197.425781 146.1875 C 197.679688 145.863281 197.902344 145.496094 198.101562 145.097656 C 198.300781 144.695312 198.472656 144.261719 198.609375 143.800781 C 198.75 143.339844 198.859375 142.859375 198.933594 142.355469 C 199.007812 141.851562 199.046875 141.335938 199.054688 140.808594 C 199.0625 140.285156 199.035156 139.757812 198.976562 139.226562 C 198.914062 138.699219 198.820312 138.179688 198.695312 137.667969 C 198.570312 137.15625 198.414062 136.664062 198.226562 136.191406 C 198.039062 135.71875 197.824219 135.273438 197.582031 134.855469 C 197.34375 134.4375 197.082031 134.054688 196.796875 133.710938 C 196.511719 133.363281 196.207031 133.058594 195.890625 132.800781 C 195.570312 132.539062 195.242188 132.324219 194.902344 132.160156 C 194.5625 131.992188 194.21875 131.878906 193.871094 131.8125 C 193.523438 131.746094 193.179688 131.734375 192.839844 131.773438 C 192.496094 131.8125 192.164062 131.902344 191.839844 132.046875 C 191.515625 132.1875 191.207031 132.378906 190.914062 132.617188 C 190.621094 132.855469 190.347656 133.136719 190.097656 133.464844 C 189.847656 133.789062 189.621094 134.152344 189.421875 134.554688 C 189.222656 134.957031 189.054688 135.386719 188.914062 135.847656 C 188.773438 136.3125 188.667969 136.792969 188.59375 137.296875 C 188.515625 137.800781 188.476562 138.316406 188.46875 138.839844 C 188.460938 139.367188 188.488281 139.894531 188.550781 140.421875 Z M 188.550781 140.421875 " fill-opacity="1" fill-rule="nonzero"/><path fill="#456685" d="M 208.230469 214.105469 C 211.394531 235.972656 209.570312 247.230469 200.199219 247.449219 C 190.832031 247.664062 152.742188 225.546875 145.90625 211.574219 L 145.6875 358.894531 C 162.675781 363.1875 180.621094 364.929688 199.054688 363.710938 C 230.746094 361.609375 259.847656 351.015625 284.292969 334.304688 C 273.964844 305.382812 253.59375 249.960938 246.285156 241.632812 C 236.332031 230.28125 208.230469 214.105469 208.230469 214.105469 Z M 208.230469 214.105469 " fill-opacity="1" fill-rule="evenodd"/><path fill="#2f456c" d="M 208.230469 214.105469 C 253.589844 253.390625 259.820312 304.601562 266.164062 345.121094 C 283.367188 336.253906 298.8125 324.574219 311.945312 310.734375 C 304.910156 287.578125 296.183594 260.6875 291.917969 254.636719 C 284.109375 243.566406 278.699219 241.65625 260.96875 237.738281 C 243.242188 233.816406 245.066406 232.863281 240.488281 226.691406 C 235.914062 220.515625 217.070312 213.09375 208.230469 214.105469 Z M 208.230469 214.105469 " fill-opacity="1" fill-rule="evenodd"/><path fill="#2f456c" d="M 145.90625 211.574219 C 145.90625 211.574219 160.429688 303.019531 177.074219 363.765625 C 124.511719 360.5625 77.742188 333.402344 48.417969 292.507812 C 48.859375 289.429688 49.378906 287.253906 49.996094 286.289062 C 55.289062 278.015625 100.34375 256.902344 106.378906 248.226562 C 112.414062 239.546875 125.980469 223.492188 145.90625 211.574219 Z M 145.90625 211.574219 " fill-opacity="1" fill-rule="evenodd"/><path fill="#954744" d="M 118.441406 120.1875 C 94.699219 139.765625 90.796875 155.871094 143.003906 185.328125 C 143.003906 185.328125 163.085938 157.261719 147.484375 125.980469 C 147.484375 125.980469 184.128906 115.738281 170.699219 81.949219 C 170.699219 81.949219 247.761719 86.953125 268.273438 50.933594 C 288.78125 14.917969 227.734375 -0.0742188 215.105469 9.328125 C 202.476562 18.730469 218.328125 39.339844 195.390625 45.488281 C 172.449219 51.640625 71.242188 73.636719 118.441406 120.1875 Z M 118.441406 120.1875 " fill-opacity="1" fill-rule="evenodd"/><path fill="#fddec2" d="M 150.730469 135.402344 C 144.546875 133.890625 139.066406 137.457031 140.921875 145.484375 C 142.40625 151.917969 146.472656 157.878906 150.730469 160.878906 C 153.414062 162.769531 157.21875 161.011719 157.515625 157.816406 C 158.058594 151.953125 157.347656 145.75 156.070312 141.316406 C 154.980469 137.542969 152.742188 135.894531 150.730469 135.402344 Z M 150.730469 135.402344 " fill-opacity="1" fill-rule="evenodd"/><path fill="#954744" d="M 212.296875 140.011719 C 211.898438 139.273438 212.175781 138.359375 212.910156 137.964844 C 213.644531 137.570312 214.5625 137.84375 214.957031 138.578125 C 219.441406 146.882812 222.542969 153.550781 223.371094 157.550781 C 224.589844 163.445312 222.515625 165.289062 215.859375 161.511719 C 215.132812 161.101562 214.878906 160.179688 215.289062 159.453125 C 215.703125 158.730469 216.625 158.476562 217.347656 158.886719 C 219.917969 160.34375 220.777344 159.925781 220.414062 158.152344 C 219.65625 154.484375 216.65625 148.082031 212.296875 140.011719 Z M 212.296875 140.011719 " fill-opacity="1" fill-rule="nonzero"/><path fill="#954744" d="M 219.195312 181.714844 C 220.011719 181.527344 220.820312 182.035156 221.007812 182.847656 C 221.195312 183.664062 220.683594 184.472656 219.871094 184.660156 C 213.371094 186.144531 208.730469 186.695312 204.394531 185.621094 C 200.039062 184.539062 196.164062 181.867188 191.238281 176.914062 C 190.652344 176.324219 190.652344 175.367188 191.246094 174.78125 C 191.835938 174.191406 192.792969 174.195312 193.382812 174.785156 C 197.898438 179.328125 201.359375 181.753906 205.117188 182.6875 C 208.894531 183.625 213.148438 183.097656 219.195312 181.714844 Z M 219.195312 181.714844 " fill-opacity="1" fill-rule="nonzero"/></svg>