<svg xmlns="http://www.w3.org/2000/svg" xmlns:xlink="http://www.w3.org/1999/xlink" width="500" zoomAndPan="magnify" viewBox="0 0 375 374.999991" height="500" preserveAspectRatio="xMidYMid meet" version="1.0"><rect x="-37.5" width="450" fill="#ffffff" y="-37.499999" height="449.999989" fill-opacity="1"/><rect x="-37.5" width="450" fill="#ffffff" y="-37.499999" height="449.999989" fill-opacity="1"/><path fill="#ffae43" d="M 374.835938 187.417969 C 374.835938 190.484375 374.761719 193.550781 374.613281 196.613281 C 374.460938 199.679688 374.234375 202.738281 373.933594 205.789062 C 373.632812 208.839844 373.257812 211.886719 372.808594 214.917969 C 372.359375 217.953125 371.835938 220.972656 371.238281 223.984375 C 370.636719 226.992188 369.964844 229.984375 369.222656 232.957031 C 368.476562 235.933594 367.65625 238.886719 366.765625 241.824219 C 365.878906 244.757812 364.914062 247.671875 363.882812 250.558594 C 362.847656 253.445312 361.746094 256.308594 360.570312 259.140625 C 359.398438 261.976562 358.15625 264.777344 356.84375 267.550781 C 355.53125 270.324219 354.152344 273.0625 352.707031 275.765625 C 351.261719 278.472656 349.75 281.140625 348.171875 283.769531 C 346.597656 286.402344 344.957031 288.992188 343.25 291.542969 C 341.546875 294.09375 339.78125 296.601562 337.953125 299.0625 C 336.128906 301.527344 334.242188 303.945312 332.296875 306.316406 C 330.351562 308.6875 328.347656 311.007812 326.285156 313.28125 C 324.226562 315.554688 322.113281 317.773438 319.945312 319.945312 C 317.773438 322.113281 315.554688 324.226562 313.28125 326.285156 C 311.007812 328.347656 308.6875 330.351562 306.316406 332.296875 C 303.945312 334.242188 301.527344 336.128906 299.0625 337.953125 C 296.601562 339.78125 294.09375 341.546875 291.542969 343.25 C 288.992188 344.957031 286.402344 346.597656 283.769531 348.171875 C 281.140625 349.75 278.472656 351.261719 275.765625 352.707031 C 273.0625 354.152344 270.324219 355.53125 267.550781 356.84375 C 264.777344 358.15625 261.976562 359.398438 259.140625 360.570312 C 256.308594 361.746094 253.445312 362.847656 250.558594 363.882812 C 247.671875 364.914062 244.757812 365.878906 241.824219 366.765625 C 238.886719 367.65625 235.933594 368.476562 232.957031 369.222656 C 229.984375 369.964844 226.992188 370.636719 223.984375 371.238281 C 220.972656 371.835938 217.953125 372.359375 214.917969 372.808594 C 211.886719 373.257812 208.839844 373.632812 205.789062 373.933594 C 202.738281 374.234375 199.679688 374.460938 196.613281 374.613281 C 193.550781 374.761719 190.484375 374.835938 187.417969 374.835938 C 184.351562 374.835938 181.285156 374.761719 178.222656 374.613281 C 175.160156 374.460938 172.101562 374.234375 169.046875 373.933594 C 165.996094 373.632812 162.953125 373.257812 159.917969 372.808594 C 156.882812 372.359375 153.863281 371.835938 150.855469 371.238281 C 147.847656 370.636719 144.855469 369.964844 141.878906 369.222656 C 138.90625 368.476562 135.949219 367.65625 133.015625 366.765625 C 130.078125 365.878906 127.167969 364.914062 124.28125 363.882812 C 121.390625 362.847656 118.53125 361.746094 115.695312 360.570312 C 112.863281 359.398438 110.058594 358.15625 107.285156 356.84375 C 104.515625 355.53125 101.773438 354.152344 99.070312 352.707031 C 96.363281 351.261719 93.695312 349.75 91.066406 348.171875 C 88.433594 346.597656 85.84375 344.957031 83.292969 343.25 C 80.746094 341.546875 78.238281 339.78125 75.773438 337.953125 C 73.308594 336.128906 70.894531 334.242188 68.523438 332.296875 C 66.152344 330.351562 63.828125 328.347656 61.554688 326.285156 C 59.285156 324.226562 57.0625 322.113281 54.894531 319.945312 C 52.726562 317.773438 50.609375 315.554688 48.550781 313.28125 C 46.492188 311.007812 44.488281 308.6875 42.542969 306.316406 C 40.597656 303.945312 38.710938 301.527344 36.882812 299.0625 C 35.054688 296.601562 33.289062 294.09375 31.585938 291.542969 C 29.882812 288.992188 28.242188 286.402344 26.664062 283.769531 C 25.085938 281.140625 23.574219 278.472656 22.128906 275.765625 C 20.683594 273.0625 19.304688 270.324219 17.996094 267.550781 C 16.683594 264.777344 15.441406 261.976562 14.265625 259.140625 C 13.09375 256.308594 11.988281 253.445312 10.957031 250.558594 C 9.921875 247.671875 8.960938 244.757812 8.070312 241.824219 C 7.179688 238.886719 6.363281 235.933594 5.617188 232.957031 C 4.871094 229.984375 4.199219 226.992188 3.601562 223.984375 C 3.003906 220.972656 2.480469 217.953125 2.027344 214.917969 C 1.578125 211.886719 1.203125 208.839844 0.902344 205.789062 C 0.601562 202.738281 0.375 199.679688 0.226562 196.613281 C 0.0742188 193.550781 0 190.484375 0 187.417969 C 0 184.351562 0.0742188 181.285156 0.226562 178.222656 C 0.375 175.160156 0.601562 172.101562 0.902344 169.046875 C 1.203125 165.996094 1.578125 162.953125 2.027344 159.917969 C 2.480469 156.882812 3.003906 153.863281 3.601562 150.855469 C 4.199219 147.847656 4.871094 144.855469 5.617188 141.878906 C 6.363281 138.90625 7.179688 135.949219 8.070312 133.015625 C 8.960938 130.078125 9.921875 127.167969 10.957031 124.28125 C 11.988281 121.390625 13.09375 118.53125 14.265625 115.695312 C 15.441406 112.863281 16.683594 110.058594 17.996094 107.285156 C 19.304688 104.515625 20.683594 101.773438 22.128906 99.070312 C 23.574219 96.363281 25.085938 93.695312 26.664062 91.066406 C 28.242188 88.433594 29.882812 85.84375 31.585938 83.292969 C 33.289062 80.746094 35.054688 78.238281 36.882812 75.773438 C 38.710938 73.308594 40.597656 70.894531 42.542969 68.523438 C 44.488281 66.152344 46.492188 63.828125 48.550781 61.554688 C 50.609375 59.285156 52.726562 57.0625 54.894531 54.894531 C 57.0625 52.726562 59.285156 50.609375 61.554688 48.550781 C 63.828125 46.492188 66.152344 44.488281 68.523438 42.542969 C 70.894531 40.597656 73.308594 38.710938 75.773438 36.882812 C 78.238281 35.054688 80.746094 33.289062 83.292969 31.585938 C 85.84375 29.882812 88.433594 28.242188 91.066406 26.664062 C 93.695312 25.085938 96.363281 23.574219 99.070312 22.128906 C 101.773438 20.683594 104.515625 19.304688 107.285156 17.996094 C 110.058594 16.683594 112.863281 15.441406 115.695312 14.265625 C 118.53125 13.09375 121.390625 11.988281 124.28125 10.957031 C 127.167969 9.921875 130.078125 8.960938 133.015625 8.070312 C 135.949219 7.179688 138.90625 6.363281 141.878906 5.617188 C 144.855469 4.871094 147.847656 4.199219 150.855469 3.601562 C 153.863281 3.003906 156.882812 2.480469 159.917969 2.027344 C 162.953125 1.578125 165.996094 1.203125 169.046875 0.902344 C 172.101562 0.601562 175.160156 0.375 178.222656 0.226562 C 181.285156 0.0742188 184.351562 0 187.417969 0 C 190.484375 0 193.550781 0.0742188 196.613281 0.226562 C 199.679688 0.375 202.738281 0.601562 205.789062 0.902344 C 208.839844 1.203125 211.886719 1.578125 214.917969 2.027344 C 217.953125 2.480469 220.972656 3.003906 223.984375 3.601562 C 226.992188 4.199219 229.984375 4.871094 232.957031 5.617188 C 235.933594 6.363281 238.886719 7.179688 241.824219 8.070312 C 244.757812 8.960938 247.671875 9.921875 250.558594 10.957031 C 253.445312 11.988281 256.308594 13.09375 259.140625 14.265625 C 261.976562 15.441406 264.777344 16.683594 267.550781 17.996094 C 270.324219 19.304688 273.0625 20.683594 275.765625 22.128906 C 278.472656 23.574219 281.140625 25.085938 283.769531 26.664062 C 286.402344 28.242188 288.992188 29.882812 291.542969 31.585938 C 294.09375 33.289062 296.601562 35.054688 299.0625 36.882812 C 301.527344 38.710938 303.945312 40.597656 306.316406 42.542969 C 308.6875 44.488281 311.007812 46.492188 313.28125 48.550781 C 315.554688 50.609375 317.773438 52.726562 319.945312 54.894531 C 322.113281 57.0625 324.226562 59.285156 326.285156 61.554688 C 328.347656 63.828125 330.351562 66.152344 332.296875 68.523438 C 334.242188 70.894531 336.128906 73.308594 337.953125 75.773438 C 339.78125 78.238281 341.546875 80.746094 343.25 83.292969 C 344.957031 85.84375 346.597656 88.433594 348.171875 91.066406 C 349.75 93.695312 351.261719 96.363281 352.707031 99.070312 C 354.152344 101.773438 355.53125 104.515625 356.84375 107.285156 C 358.15625 110.058594 359.398438 112.863281 360.570312 115.695312 C 361.746094 118.53125 362.847656 121.390625 363.882812 124.28125 C 364.914062 127.167969 365.878906 130.078125 366.765625 133.015625 C 367.65625 135.949219 368.476562 138.90625 369.222656 141.878906 C 369.964844 144.855469 370.636719 147.847656 371.238281 150.855469 C 371.835938 153.863281 372.359375 156.882812 372.808594 159.917969 C 373.257812 162.953125 373.632812 165.996094 373.933594 169.046875 C 374.234375 172.101562 374.460938 175.160156 374.613281 178.222656 C 374.761719 181.285156 374.835938 184.351562 374.835938 187.417969 Z M 374.835938 187.417969 " fill-opacity="1" fill-rule="nonzero"/><path fill="#2f456c" d="M 58.089844 323.054688 C 59.5 297.800781 75.09375 256.671875 94.21875 248.628906 C 116.585938 239.226562 120.980469 243.8125 120.980469 243.8125 C 120.980469 243.8125 100.523438 215.167969 187.417969 216.386719 C 274.316406 215.167969 253.859375 243.8125 253.859375 243.8125 C 253.859375 243.8125 258.253906 239.226562 280.621094 248.628906 C 299.746094 256.671875 315.339844 297.800781 316.75 323.054688 C 283.117188 355.136719 237.570312 374.839844 187.421875 374.839844 C 137.269531 374.839844 91.722656 355.136719 58.089844 323.054688 Z M 58.089844 323.054688 " fill-opacity="1" fill-rule="evenodd"/><path fill="#456685" d="M 166.773438 328.683594 C 166.550781 329.527344 165.683594 330.03125 164.839844 329.808594 C 163.996094 329.585938 163.488281 328.722656 163.710938 327.875 L 178.597656 271.570312 C 169.757812 270.890625 133.199219 266.964844 120.046875 247.925781 C 118.230469 245.300781 117.101562 242.816406 116.609375 240.476562 C 116.601562 240.449219 116.597656 240.425781 116.59375 240.402344 C 115.628906 235.730469 117.117188 231.714844 120.644531 228.328125 C 123.960938 225.136719 129.128906 222.542969 135.761719 220.515625 C 148.417969 216.652344 166.570312 214.800781 187.417969 214.800781 C 208.269531 214.800781 226.421875 216.652344 239.078125 220.515625 C 245.710938 222.542969 250.875 225.136719 254.195312 228.328125 C 257.738281 231.730469 259.226562 235.769531 258.230469 240.46875 L 258.230469 240.476562 C 257.734375 242.816406 256.609375 245.300781 254.792969 247.925781 C 241.640625 266.964844 205.082031 270.890625 196.242188 271.570312 L 211.128906 327.875 C 211.351562 328.722656 210.84375 329.589844 210 329.8125 C 209.152344 330.035156 208.289062 329.527344 208.066406 328.683594 L 192.6875 270.519531 C 192.660156 270.414062 192.644531 270.304688 192.636719 270.191406 C 192.597656 269.320312 193.269531 268.578125 194.144531 268.535156 C 194.269531 268.53125 238.101562 266.523438 252.191406 246.128906 C 253.757812 243.859375 254.71875 241.761719 255.132812 239.820312 C 255.878906 236.292969 254.726562 233.226562 252 230.609375 C 249.050781 227.773438 244.3125 225.421875 238.160156 223.542969 C 225.835938 219.777344 207.996094 217.972656 187.417969 217.972656 C 166.839844 217.972656 149.003906 219.777344 136.679688 223.542969 C 130.523438 225.421875 125.789062 227.773438 122.835938 230.609375 C 120.125 233.214844 118.972656 236.265625 119.695312 239.769531 L 119.707031 239.820312 C 120.117188 241.761719 121.082031 243.863281 122.648438 246.128906 C 136.480469 266.152344 178.980469 268.453125 180.640625 268.535156 C 180.765625 268.535156 180.894531 268.550781 181.023438 268.585938 C 181.867188 268.808594 182.371094 269.675781 182.148438 270.519531 Z M 166.773438 328.683594 " fill-opacity="1" fill-rule="nonzero"/><path fill="#ebc5a4" d="M 187.417969 261.421875 C 187.417969 261.421875 163.636719 259.089844 161.210938 239.671875 C 158.785156 220.253906 162.425781 206.097656 162.425781 206.097656 L 187.417969 214.359375 L 212.414062 206.097656 C 212.414062 206.097656 216.054688 220.257812 213.628906 239.671875 C 211.203125 259.089844 187.417969 261.421875 187.417969 261.421875 Z M 187.417969 261.421875 " fill-opacity="1" fill-rule="evenodd"/><path fill="#456685" d="M 144.882812 241.96875 C 144.382812 242.6875 143.394531 242.867188 142.675781 242.367188 C 141.957031 241.867188 141.78125 240.878906 142.28125 240.160156 C 143.898438 237.835938 146.175781 235.972656 148.714844 234.917969 C 150.449219 234.199219 152.304688 233.855469 154.164062 233.988281 C 156.050781 234.125 157.929688 234.746094 159.675781 235.960938 C 161.851562 237.472656 163.8125 239.910156 165.292969 243.480469 C 167.710938 249.3125 169.765625 253.472656 172.898438 256.078125 C 176 258.648438 180.335938 259.84375 187.421875 259.84375 L 187.421875 259.835938 C 194.507812 259.835938 198.847656 258.644531 201.941406 256.078125 C 205.074219 253.472656 207.128906 249.3125 209.546875 243.480469 C 211.027344 239.910156 212.988281 237.472656 215.164062 235.960938 C 216.910156 234.746094 218.789062 234.125 220.675781 233.988281 C 222.535156 233.855469 224.390625 234.199219 226.125 234.917969 C 228.664062 235.972656 230.941406 237.835938 232.558594 240.160156 C 233.058594 240.878906 232.882812 241.867188 232.164062 242.367188 C 231.445312 242.867188 230.457031 242.6875 229.957031 241.96875 C 228.679688 240.132812 226.890625 238.664062 224.90625 237.84375 C 223.621094 237.308594 222.253906 237.050781 220.898438 237.148438 C 219.566406 237.246094 218.230469 237.691406 216.976562 238.5625 C 215.269531 239.75 213.703125 241.730469 212.472656 244.695312 C 209.878906 250.957031 207.625 255.464844 203.960938 258.507812 C 200.257812 261.582031 195.308594 263.011719 187.421875 263.011719 L 187.421875 263.003906 C 179.527344 263.003906 174.578125 261.578125 170.878906 258.507812 C 167.21875 255.464844 164.964844 250.957031 162.367188 244.695312 C 161.136719 241.730469 159.574219 239.75 157.867188 238.5625 C 156.613281 237.691406 155.277344 237.246094 153.941406 237.148438 C 152.585938 237.050781 151.21875 237.308594 149.933594 237.84375 C 147.949219 238.664062 146.164062 240.132812 144.886719 241.96875 Z M 144.882812 241.96875 " fill-opacity="1" fill-rule="nonzero"/><path fill="#ebc5a4" d="M 113.398438 149.515625 C 114.535156 183.988281 135.367188 218.078125 186.882812 219.214844 C 238.398438 220.351562 264.15625 189.667969 264.914062 155.578125 C 265.671875 121.488281 278.929688 66.941406 234.992188 65.804688 C 191.050781 64.667969 134.613281 36.257812 123.25 89.667969 C 111.886719 143.078125 117.1875 110.125 113.398438 149.515625 Z M 113.398438 149.515625 " fill-opacity="1" fill-rule="evenodd"/><path fill="#3b351d" d="M 114.382812 134.363281 C 143.65625 119.726562 136.464844 118.183594 136.207031 107.65625 C 135.953125 97.128906 147.765625 95.585938 155.46875 100.980469 C 163.171875 106.371094 172.953125 95.820312 187.136719 95.652344 C 201.320312 95.480469 205.371094 108.484375 218.878906 103.753906 C 232.386719 99.027344 240.492188 92.613281 243.867188 109.496094 C 247.242188 126.378906 252.785156 139.265625 256.605469 135.738281 C 260.421875 132.214844 270.699219 136.066406 273.191406 131.085938 C 275.679688 126.109375 281.320312 127.933594 277.007812 115.820312 C 272.691406 103.703125 274.28125 103.597656 278.359375 89.078125 C 282.441406 74.558594 269.945312 77.847656 270.882812 67.144531 C 271.824219 56.441406 267.472656 62.558594 268.53125 53.738281 C 269.589844 44.917969 262.828125 46.300781 259.03125 39.242188 C 255.230469 32.183594 257.21875 31.640625 250.617188 32.183594 C 244.011719 32.726562 244.734375 32.636719 240.300781 27.84375 C 235.867188 23.046875 236.59375 31.28125 226.730469 28.386719 C 216.871094 25.488281 219.464844 23.789062 213.429688 21.746094 C 207.394531 19.699219 204.226562 26.960938 198.703125 22.050781 C 193.179688 17.140625 194.304688 26.140625 184.386719 21.847656 C 174.464844 17.550781 171.601562 27.882812 166.28125 26.039062 C 160.964844 24.199219 156.226562 34.859375 149.992188 31.683594 C 143.757812 28.507812 140.113281 29.800781 136.703125 36.976562 C 133.292969 44.148438 135.445312 50.039062 126.742188 48.507812 C 118.039062 46.980469 122.832031 55.796875 116.988281 63.101562 C 111.144531 70.40625 106.128906 66.65625 104.726562 73.675781 C 103.320312 80.699219 111.84375 84.351562 110.625 90.53125 C 109.40625 96.710938 102.859375 94 102.203125 99.054688 C 101.546875 104.113281 107.632812 109.449219 104.917969 114.316406 C 102.203125 119.1875 99.300781 118.15625 102.296875 126.207031 C 105.292969 134.261719 109.789062 137.164062 114.378906 134.363281 Z M 114.382812 134.363281 " fill-opacity="1" fill-rule="evenodd"/><path fill="#ebc5a4" d="M 119.632812 138.996094 C 116.292969 126.625 105.195312 120.042969 97.734375 128.980469 C 90.269531 137.917969 104.902344 160.308594 110.597656 160.308594 C 116.292969 160.308594 117.667969 158.640625 119.632812 138.996094 Z M 119.632812 138.996094 " fill-opacity="1" fill-rule="evenodd"/><path fill="#ebc5a4" d="M 254.773438 138.996094 C 258.113281 126.625 269.210938 120.042969 276.675781 128.980469 C 284.140625 137.917969 269.507812 160.308594 263.808594 160.308594 C 258.113281 160.308594 256.738281 158.640625 254.773438 138.996094 Z M 254.773438 138.996094 " fill-opacity="1" fill-rule="evenodd"/><path fill="#3b351d" d="M 142.28125 139.492188 C 141.101562 140.058594 139.683594 139.558594 139.121094 138.378906 C 138.554688 137.195312 139.054688 135.78125 140.234375 135.214844 C 140.832031 134.929688 141.460938 134.613281 142.128906 134.277344 C 149.605469 130.527344 161.527344 124.546875 170.855469 134.695312 C 171.742188 135.660156 171.679688 137.164062 170.714844 138.050781 C 169.75 138.941406 168.246094 138.878906 167.359375 137.914062 C 160.449219 130.390625 150.492188 135.386719 144.25 138.519531 C 143.546875 138.871094 142.882812 139.203125 142.28125 139.492188 Z M 142.28125 139.492188 " fill-opacity="1" fill-rule="nonzero"/><path fill="#3b351d" d="M 163.3125 152.496094 C 163.3125 153.09375 163.273438 153.6875 163.195312 154.277344 C 163.117188 154.863281 163 155.433594 162.847656 155.984375 C 162.691406 156.539062 162.503906 157.066406 162.28125 157.5625 C 162.058594 158.058594 161.800781 158.519531 161.519531 158.945312 C 161.234375 159.367188 160.921875 159.746094 160.589844 160.078125 C 160.253906 160.410156 159.898438 160.691406 159.527344 160.921875 C 159.15625 161.148438 158.773438 161.324219 158.375 161.441406 C 157.980469 161.558594 157.582031 161.613281 157.179688 161.613281 C 156.777344 161.613281 156.378906 161.558594 155.984375 161.441406 C 155.589844 161.324219 155.203125 161.148438 154.832031 160.921875 C 154.460938 160.691406 154.105469 160.410156 153.773438 160.078125 C 153.4375 159.746094 153.128906 159.367188 152.84375 158.945312 C 152.558594 158.519531 152.304688 158.058594 152.078125 157.5625 C 151.855469 157.066406 151.667969 156.539062 151.511719 155.984375 C 151.359375 155.433594 151.242188 154.863281 151.164062 154.277344 C 151.085938 153.6875 151.046875 153.09375 151.046875 152.496094 C 151.046875 151.898438 151.085938 151.304688 151.164062 150.71875 C 151.242188 150.132812 151.359375 149.5625 151.511719 149.007812 C 151.667969 148.453125 151.855469 147.929688 152.078125 147.429688 C 152.304688 146.933594 152.558594 146.472656 152.84375 146.050781 C 153.128906 145.625 153.4375 145.25 153.773438 144.914062 C 154.105469 144.582031 154.460938 144.300781 154.832031 144.074219 C 155.203125 143.84375 155.589844 143.671875 155.984375 143.554688 C 156.378906 143.4375 156.777344 143.378906 157.179688 143.378906 C 157.582031 143.378906 157.980469 143.4375 158.375 143.554688 C 158.773438 143.671875 159.15625 143.84375 159.527344 144.074219 C 159.898438 144.300781 160.253906 144.582031 160.589844 144.914062 C 160.921875 145.25 161.234375 145.625 161.519531 146.050781 C 161.800781 146.472656 162.058594 146.933594 162.28125 147.429688 C 162.503906 147.929688 162.691406 148.453125 162.847656 149.007812 C 163 149.5625 163.117188 150.132812 163.195312 150.71875 C 163.273438 151.304688 163.3125 151.898438 163.3125 152.496094 Z M 163.3125 152.496094 " fill-opacity="1" fill-rule="nonzero"/><path fill="#3b351d" d="M 234.605469 135.214844 C 235.785156 135.78125 236.285156 137.195312 235.71875 138.378906 C 235.15625 139.558594 233.738281 140.058594 232.558594 139.492188 C 231.957031 139.203125 231.292969 138.871094 230.589844 138.519531 C 224.347656 135.386719 214.390625 130.390625 207.480469 137.914062 C 206.589844 138.878906 205.089844 138.941406 204.125 138.050781 C 203.15625 137.164062 203.097656 135.660156 203.984375 134.695312 C 213.308594 124.546875 225.234375 130.527344 232.707031 134.277344 C 233.378906 134.613281 234.007812 134.929688 234.605469 135.214844 Z M 234.605469 135.214844 " fill-opacity="1" fill-rule="nonzero"/><path fill="#3b351d" d="M 223.796875 152.496094 C 223.796875 153.09375 223.757812 153.6875 223.679688 154.277344 C 223.601562 154.863281 223.484375 155.433594 223.328125 155.984375 C 223.175781 156.539062 222.988281 157.066406 222.761719 157.5625 C 222.539062 158.058594 222.285156 158.519531 222 158.945312 C 221.714844 159.367188 221.40625 159.746094 221.070312 160.078125 C 220.734375 160.410156 220.382812 160.691406 220.007812 160.921875 C 219.636719 161.148438 219.253906 161.324219 218.859375 161.441406 C 218.464844 161.558594 218.066406 161.613281 217.664062 161.613281 C 217.257812 161.613281 216.859375 161.558594 216.464844 161.441406 C 216.070312 161.324219 215.6875 161.148438 215.316406 160.921875 C 214.941406 160.691406 214.589844 160.410156 214.253906 160.078125 C 213.917969 159.746094 213.609375 159.367188 213.324219 158.945312 C 213.039062 158.519531 212.785156 158.058594 212.5625 157.5625 C 212.339844 157.066406 212.148438 156.539062 211.996094 155.984375 C 211.839844 155.433594 211.722656 154.863281 211.644531 154.277344 C 211.566406 153.6875 211.527344 153.09375 211.527344 152.496094 C 211.527344 151.898438 211.566406 151.304688 211.644531 150.71875 C 211.722656 150.132812 211.839844 149.5625 211.996094 149.007812 C 212.148438 148.453125 212.339844 147.929688 212.5625 147.429688 C 212.785156 146.933594 213.039062 146.472656 213.324219 146.050781 C 213.609375 145.625 213.917969 145.25 214.253906 144.914062 C 214.589844 144.582031 214.941406 144.300781 215.316406 144.074219 C 215.6875 143.84375 216.070312 143.671875 216.464844 143.554688 C 216.859375 143.4375 217.257812 143.378906 217.664062 143.378906 C 218.066406 143.378906 218.464844 143.4375 218.859375 143.554688 C 219.253906 143.671875 219.636719 143.84375 220.007812 144.074219 C 220.382812 144.300781 220.734375 144.582031 221.070312 144.914062 C 221.40625 145.25 221.714844 145.625 222 146.050781 C 222.285156 146.472656 222.539062 146.933594 222.761719 147.429688 C 222.988281 147.929688 223.175781 148.453125 223.328125 149.007812 C 223.484375 149.5625 223.601562 150.132812 223.679688 150.71875 C 223.757812 151.304688 223.796875 151.898438 223.796875 152.496094 Z M 223.796875 152.496094 " fill-opacity="1" fill-rule="nonzero"/><path fill="#332c2b" d="M 180.898438 159.855469 C 181.320312 158.613281 182.667969 157.945312 183.910156 158.367188 C 185.152344 158.789062 185.820312 160.136719 185.398438 161.378906 C 184.730469 163.339844 184.003906 165.347656 183.324219 167.230469 C 181.554688 172.113281 180.125 176.066406 180.125 178.378906 C 180.125 179.113281 180.515625 179.523438 181.542969 179.523438 C 182.859375 179.523438 183.921875 180.585938 183.921875 181.902344 C 183.921875 183.214844 182.859375 184.28125 181.542969 184.28125 C 177.0625 184.28125 175.363281 182.164062 175.363281 178.378906 C 175.363281 175.273438 176.929688 170.949219 178.863281 165.609375 C 179.496094 163.855469 180.175781 161.980469 180.898438 159.855469 Z M 180.898438 159.855469 " fill-opacity="1" fill-rule="nonzero"/><path fill="#332c2b" d="M 185.558594 197.136719 C 184.316406 196.710938 183.652344 195.359375 184.082031 194.117188 C 184.507812 192.875 185.859375 192.210938 187.101562 192.636719 C 191.933594 194.300781 196.359375 194.265625 199.996094 193.253906 C 204.257812 192.070312 207.390625 189.582031 208.734375 186.980469 C 209.335938 185.816406 210.765625 185.355469 211.933594 185.957031 C 213.097656 186.558594 213.554688 187.992188 212.953125 189.15625 C 211.0625 192.824219 206.855469 196.273438 201.257812 197.828125 C 196.777344 199.078125 191.375 199.136719 185.558594 197.136719 Z M 185.558594 197.136719 " fill-opacity="1" fill-rule="nonzero"/></svg>