<svg xmlns="http://www.w3.org/2000/svg" xmlns:xlink="http://www.w3.org/1999/xlink" width="500" zoomAndPan="magnify" viewBox="0 0 375 374.999991" height="500" preserveAspectRatio="xMidYMid meet" version="1.0"><rect x="-37.5" width="450" fill="#ffffff" y="-37.499999" height="449.999989" fill-opacity="1"/><rect x="-37.5" width="450" fill="#ffffff" y="-37.499999" height="449.999989" fill-opacity="1"/><path fill="#ffae43" d="M 375.007812 187.503906 C 375.007812 190.570312 374.929688 193.640625 374.78125 196.703125 C 374.628906 199.769531 374.40625 202.828125 374.105469 205.882812 C 373.804688 208.9375 373.425781 211.980469 372.976562 215.015625 C 372.527344 218.050781 372.003906 221.074219 371.402344 224.082031 C 370.804688 227.09375 370.132812 230.085938 369.386719 233.0625 C 368.640625 236.039062 367.824219 238.996094 366.933594 241.933594 C 366.042969 244.867188 365.078125 247.78125 364.046875 250.671875 C 363.011719 253.558594 361.90625 256.421875 360.734375 259.257812 C 359.558594 262.09375 358.316406 264.898438 357.003906 267.671875 C 355.691406 270.445312 354.3125 273.183594 352.867188 275.890625 C 351.417969 278.597656 349.90625 281.265625 348.332031 283.898438 C 346.753906 286.53125 345.113281 289.121094 343.40625 291.675781 C 341.703125 294.226562 339.933594 296.734375 338.105469 299.199219 C 336.28125 301.664062 334.390625 304.082031 332.445312 306.453125 C 330.5 308.824219 328.496094 311.148438 326.433594 313.421875 C 324.375 315.695312 322.257812 317.917969 320.089844 320.089844 C 317.917969 322.257812 315.695312 324.375 313.421875 326.433594 C 311.148438 328.496094 308.824219 330.5 306.453125 332.445312 C 304.082031 334.390625 301.664062 336.28125 299.199219 338.105469 C 296.734375 339.933594 294.226562 341.703125 291.675781 343.40625 C 289.121094 345.113281 286.53125 346.753906 283.898438 348.332031 C 281.265625 349.90625 278.597656 351.417969 275.890625 352.867188 C 273.183594 354.3125 270.445312 355.691406 267.671875 357.003906 C 264.898438 358.316406 262.09375 359.558594 259.257812 360.734375 C 256.421875 361.90625 253.558594 363.011719 250.671875 364.046875 C 247.78125 365.078125 244.867188 366.042969 241.933594 366.933594 C 238.996094 367.824219 236.039062 368.640625 233.0625 369.386719 C 230.085938 370.132812 227.09375 370.804688 224.082031 371.402344 C 221.074219 372.003906 218.050781 372.527344 215.015625 372.976562 C 211.980469 373.425781 208.9375 373.804688 205.882812 374.105469 C 202.828125 374.40625 199.769531 374.628906 196.703125 374.78125 C 193.640625 374.929688 190.570312 375.007812 187.503906 375.007812 C 184.433594 375.007812 181.367188 374.929688 178.304688 374.78125 C 175.238281 374.628906 172.179688 374.40625 169.125 374.105469 C 166.070312 373.804688 163.027344 373.425781 159.992188 372.976562 C 156.957031 372.527344 153.933594 372.003906 150.921875 371.402344 C 147.914062 370.804688 144.921875 370.132812 141.945312 369.386719 C 138.96875 368.640625 136.011719 367.824219 133.074219 366.933594 C 130.136719 366.042969 127.222656 365.078125 124.335938 364.046875 C 121.445312 363.011719 118.582031 361.90625 115.75 360.734375 C 112.914062 359.558594 110.109375 358.316406 107.335938 357.003906 C 104.5625 355.691406 101.820312 354.3125 99.113281 352.867188 C 96.410156 351.417969 93.738281 349.90625 91.105469 348.332031 C 88.476562 346.753906 85.882812 345.113281 83.332031 343.40625 C 80.78125 341.703125 78.273438 339.933594 75.808594 338.105469 C 73.34375 336.28125 70.925781 334.390625 68.550781 332.445312 C 66.179688 330.5 63.859375 328.496094 61.582031 326.433594 C 59.308594 324.375 57.089844 322.257812 54.917969 320.089844 C 52.75 317.917969 50.632812 315.695312 48.574219 313.421875 C 46.511719 311.148438 44.507812 308.824219 42.5625 306.453125 C 40.613281 304.082031 38.726562 301.664062 36.898438 299.199219 C 35.070312 296.734375 33.304688 294.226562 31.601562 291.675781 C 29.894531 289.121094 28.253906 286.53125 26.675781 283.898438 C 25.097656 281.265625 23.585938 278.597656 22.140625 275.890625 C 20.695312 273.183594 19.3125 270.445312 18.003906 267.671875 C 16.691406 264.898438 15.445312 262.09375 14.273438 259.257812 C 13.097656 256.421875 11.996094 253.558594 10.960938 250.671875 C 9.925781 247.78125 8.964844 244.867188 8.074219 241.933594 C 7.183594 238.996094 6.363281 236.039062 5.621094 233.0625 C 4.875 230.085938 4.203125 227.09375 3.601562 224.082031 C 3.003906 221.074219 2.480469 218.050781 2.03125 215.015625 C 1.578125 211.980469 1.203125 208.9375 0.902344 205.882812 C 0.601562 202.828125 0.375 199.769531 0.226562 196.703125 C 0.0742188 193.640625 0 190.570312 0 187.503906 C 0 184.433594 0.0742188 181.367188 0.226562 178.304688 C 0.375 175.238281 0.601562 172.179688 0.902344 169.125 C 1.203125 166.070312 1.578125 163.027344 2.03125 159.992188 C 2.480469 156.957031 3.003906 153.933594 3.601562 150.921875 C 4.203125 147.914062 4.875 144.921875 5.621094 141.945312 C 6.363281 138.96875 7.183594 136.011719 8.074219 133.074219 C 8.964844 130.136719 9.925781 127.222656 10.960938 124.335938 C 11.996094 121.445312 13.097656 118.582031 14.273438 115.75 C 15.445312 112.914062 16.691406 110.109375 18.003906 107.335938 C 19.3125 104.5625 20.695312 101.820312 22.140625 99.113281 C 23.585938 96.410156 25.097656 93.738281 26.675781 91.105469 C 28.253906 88.476562 29.894531 85.882812 31.601562 83.332031 C 33.304688 80.78125 35.070312 78.273438 36.898438 75.808594 C 38.726562 73.34375 40.613281 70.925781 42.5625 68.550781 C 44.507812 66.179688 46.511719 63.859375 48.574219 61.582031 C 50.632812 59.308594 52.75 57.089844 54.917969 54.917969 C 57.089844 52.75 59.308594 50.632812 61.582031 48.574219 C 63.859375 46.511719 66.179688 44.507812 68.550781 42.5625 C 70.925781 40.613281 73.34375 38.726562 75.808594 36.898438 C 78.273438 35.070312 80.78125 33.304688 83.332031 31.601562 C 85.882812 29.894531 88.476562 28.253906 91.105469 26.675781 C 93.738281 25.097656 96.410156 23.585938 99.113281 22.140625 C 101.820312 20.695312 104.5625 19.3125 107.335938 18.003906 C 110.109375 16.691406 112.914062 15.445312 115.75 14.273438 C 118.582031 13.097656 121.445312 11.996094 124.335938 10.960938 C 127.222656 9.925781 130.136719 8.964844 133.074219 8.074219 C 136.011719 7.183594 138.96875 6.363281 141.945312 5.621094 C 144.921875 4.875 147.914062 4.203125 150.921875 3.601562 C 153.933594 3.003906 156.957031 2.480469 159.992188 2.03125 C 163.027344 1.578125 166.070312 1.203125 169.125 0.902344 C 172.179688 0.601562 175.238281 0.375 178.304688 0.226562 C 181.367188 0.0742188 184.433594 0 187.503906 0 C 190.570312 0 193.640625 0.0742188 196.703125 0.226562 C 199.769531 0.375 202.828125 0.601562 205.882812 0.902344 C 208.9375 1.203125 211.980469 1.578125 215.015625 2.03125 C 218.050781 2.480469 221.074219 3.003906 224.082031 3.601562 C 227.09375 4.203125 230.085938 4.875 233.0625 5.621094 C 236.039062 6.363281 238.996094 7.183594 241.933594 8.074219 C 244.867188 8.964844 247.78125 9.925781 250.671875 10.960938 C 253.558594 11.996094 256.421875 13.097656 259.257812 14.273438 C 262.09375 15.445312 264.898438 16.691406 267.671875 18.003906 C 270.445312 19.3125 273.183594 20.695312 275.890625 22.140625 C 278.597656 23.585938 281.265625 25.097656 283.898438 26.675781 C 286.53125 28.253906 289.121094 29.894531 291.675781 31.601562 C 294.226562 33.304688 296.734375 35.070312 299.199219 36.898438 C 301.664062 38.726562 304.082031 40.613281 306.453125 42.5625 C 308.824219 44.507812 311.148438 46.511719 313.421875 48.574219 C 315.695312 50.632812 317.917969 52.75 320.089844 54.917969 C 322.257812 57.089844 324.375 59.308594 326.433594 61.582031 C 328.496094 63.859375 330.5 66.179688 332.445312 68.550781 C 334.390625 70.925781 336.28125 73.34375 338.105469 75.808594 C 339.933594 78.273438 341.703125 80.78125 343.40625 83.332031 C 345.113281 85.882812 346.753906 88.476562 348.332031 91.105469 C 349.90625 93.738281 351.417969 96.410156 352.867188 99.113281 C 354.3125 101.820312 355.691406 104.5625 357.003906 107.335938 C 358.316406 110.109375 359.558594 112.914062 360.734375 115.75 C 361.90625 118.582031 363.011719 121.445312 364.046875 124.335938 C 365.078125 127.222656 366.042969 130.136719 366.933594 133.074219 C 367.824219 136.011719 368.640625 138.96875 369.386719 141.945312 C 370.132812 144.921875 370.804688 147.914062 371.402344 150.921875 C 372.003906 153.933594 372.527344 156.957031 372.976562 159.992188 C 373.425781 163.027344 373.804688 166.070312 374.105469 169.125 C 374.40625 172.179688 374.628906 175.238281 374.78125 178.304688 C 374.929688 181.367188 375.007812 184.433594 375.007812 187.503906 Z M 375.007812 187.503906 " fill-opacity="1" fill-rule="nonzero"/><path fill="#fddec2" d="M 168.667969 186.476562 L 166.625 212.089844 L 160.414062 260.886719 L 213.882812 253.996094 L 234.535156 204.804688 L 237.460938 154.734375 Z M 168.667969 186.476562 " fill-opacity="1" fill-rule="evenodd"/><path fill="#954744" d="M 144.992188 95.503906 C 159.984375 66.367188 179.402344 48.816406 200.410156 58.667969 C 223.539062 69.515625 236.816406 94.734375 236.890625 107.675781 C 236.964844 120.617188 222.796875 176.28125 222.796875 176.28125 C 222.796875 176.28125 228.839844 184.996094 252.398438 159.253906 C 275.957031 133.515625 307.746094 62.363281 256.335938 61.699219 C 256.335938 61.699219 243.226562 15.699219 185.140625 21.613281 C 132.691406 26.949219 114.785156 56.777344 131.019531 91.777344 C 134.613281 99.515625 139.449219 106.277344 144.992188 95.5 Z M 144.992188 95.503906 " fill-opacity="1" fill-rule="evenodd"/><path fill="#fddec2" d="M 141.664062 100.230469 C 141.632812 107.292969 141.789062 110.820312 140.128906 119.683594 C 138.472656 128.550781 136.636719 140.480469 143.300781 158.34375 C 149.964844 176.207031 177.382812 192.078125 190.050781 186.886719 C 202.71875 181.699219 211.300781 178.480469 224.324219 170.179688 C 227.980469 155.367188 236.949219 117.980469 236.890625 107.675781 C 236.816406 94.734375 223.542969 69.519531 200.410156 58.667969 C 177.691406 48.011719 157.125 66.273438 141.664062 100.230469 Z M 141.664062 100.230469 " fill-opacity="1" fill-rule="evenodd"/><path fill="#954744" d="M 237.636719 105.261719 C 227.304688 139.597656 211.257812 156.234375 190.289062 153.902344 C 169.320312 151.570312 141.550781 143.640625 140.296875 147.503906 C 139.046875 151.367188 118.574219 199.179688 174.4375 202.503906 C 230.300781 205.828125 234.929688 175.746094 237.636719 105.261719 Z M 237.636719 105.261719 " fill-opacity="1" fill-rule="evenodd"/><path fill="#fddec2" d="M 237.3125 122.980469 C 246.296875 115.78125 257.605469 120.035156 254.734375 131.113281 C 251.867188 142.191406 241.195312 155.070312 234.824219 154.28125 C 234.515625 154.242188 234.242188 154.132812 234.003906 153.960938 C 235.277344 145.503906 236.101562 135.898438 236.71875 125.117188 C 237.078125 123.777344 237.3125 122.980469 237.3125 122.980469 Z M 237.3125 122.980469 " fill-opacity="1" fill-rule="evenodd"/><path fill="#fddec2" d="M 150.890625 152.777344 C 168.5 158.886719 180.082031 154.96875 182.726562 155.902344 C 185.375 156.835938 176.730469 170.933594 162.832031 170.882812 C 148.933594 170.832031 150.890625 152.777344 150.890625 152.777344 Z M 150.890625 152.777344 " fill-opacity="1" fill-rule="evenodd"/><path fill="#954744" d="M 146.640625 103.179688 C 145.632812 104.023438 144.132812 103.890625 143.289062 102.882812 C 142.449219 101.875 142.582031 100.375 143.589844 99.535156 C 144.367188 98.882812 145.175781 98.273438 146.003906 97.707031 C 150.167969 94.878906 154.0625 93.894531 157.214844 93.941406 C 160.695312 93.996094 163.398438 95.335938 164.753906 96.949219 C 164.851562 97.066406 164.964844 97.222656 165.097656 97.414062 C 165.832031 98.5 165.546875 99.972656 164.464844 100.707031 C 163.378906 101.441406 161.90625 101.160156 161.171875 100.074219 C 161.164062 100.0625 161.15625 100.0625 161.105469 100 C 160.519531 99.300781 159.132812 98.71875 157.15625 98.6875 C 154.847656 98.652344 151.917969 99.421875 148.664062 101.632812 C 148.035156 102.0625 147.359375 102.574219 146.640625 103.179688 Z M 146.640625 103.179688 " fill-opacity="1" fill-rule="nonzero"/><path fill="#954744" d="M 175.976562 103.351562 C 174.882812 104.078125 173.40625 103.777344 172.683594 102.683594 C 171.957031 101.589844 172.257812 100.113281 173.351562 99.390625 C 173.699219 99.160156 174.070312 98.933594 174.457031 98.710938 C 178.980469 96.136719 184.082031 95.753906 188.371094 96.507812 C 192.816406 97.285156 196.542969 99.378906 198.03125 101.601562 L 198.035156 101.601562 C 198.078125 101.667969 198.152344 101.789062 198.253906 101.96875 C 198.902344 103.109375 198.503906 104.558594 197.363281 105.207031 C 196.222656 105.851562 194.773438 105.453125 194.125 104.3125 C 194.105469 104.28125 194.125 104.320312 194.074219 104.242188 L 194.078125 104.238281 L 194.074219 104.234375 C 193.246094 102.992188 190.746094 101.753906 187.550781 101.195312 C 184.195312 100.605469 180.242188 100.882812 176.800781 102.839844 C 176.539062 102.992188 176.261719 103.160156 175.976562 103.351562 Z M 175.976562 103.351562 " fill-opacity="1" fill-rule="nonzero"/><path fill="#954744" d="M 158.035156 121.359375 C 157.988281 121.835938 157.914062 122.304688 157.808594 122.765625 C 157.707031 123.226562 157.574219 123.671875 157.414062 124.101562 C 157.257812 124.53125 157.074219 124.9375 156.863281 125.316406 C 156.65625 125.695312 156.429688 126.042969 156.179688 126.359375 C 155.929688 126.675781 155.664062 126.953125 155.386719 127.195312 C 155.105469 127.4375 154.816406 127.632812 154.515625 127.789062 C 154.214844 127.945312 153.910156 128.054688 153.597656 128.117188 C 153.289062 128.183594 152.980469 128.199219 152.675781 128.171875 C 152.367188 128.140625 152.070312 128.066406 151.777344 127.945312 C 151.484375 127.824219 151.207031 127.660156 150.941406 127.449219 C 150.675781 127.238281 150.425781 126.992188 150.195312 126.703125 C 149.96875 126.414062 149.761719 126.089844 149.574219 125.730469 C 149.390625 125.375 149.230469 124.988281 149.097656 124.578125 C 148.964844 124.164062 148.863281 123.734375 148.785156 123.28125 C 148.710938 122.832031 148.664062 122.367188 148.652344 121.894531 C 148.636719 121.421875 148.648438 120.949219 148.695312 120.472656 C 148.742188 119.996094 148.816406 119.527344 148.921875 119.0625 C 149.023438 118.601562 149.15625 118.15625 149.316406 117.726562 C 149.472656 117.296875 149.65625 116.894531 149.867188 116.515625 C 150.074219 116.132812 150.300781 115.785156 150.550781 115.46875 C 150.800781 115.152344 151.066406 114.875 151.34375 114.636719 C 151.625 114.394531 151.914062 114.195312 152.214844 114.042969 C 152.515625 113.886719 152.820312 113.777344 153.132812 113.710938 C 153.441406 113.648438 153.75 113.628906 154.054688 113.660156 C 154.363281 113.6875 154.660156 113.761719 154.953125 113.886719 C 155.246094 114.007812 155.523438 114.171875 155.789062 114.382812 C 156.054688 114.589844 156.304688 114.839844 156.535156 115.128906 C 156.761719 115.417969 156.96875 115.742188 157.15625 116.097656 C 157.339844 116.457031 157.5 116.839844 157.632812 117.253906 C 157.765625 117.664062 157.867188 118.097656 157.945312 118.546875 C 158.019531 119 158.0625 119.460938 158.078125 119.933594 C 158.09375 120.40625 158.082031 120.882812 158.035156 121.359375 Z M 158.035156 121.359375 " fill-opacity="1" fill-rule="nonzero"/><path fill="#954744" d="M 188.546875 124.113281 C 188.503906 124.589844 188.429688 125.058594 188.324219 125.523438 C 188.21875 125.984375 188.089844 126.429688 187.929688 126.859375 C 187.769531 127.285156 187.585938 127.691406 187.378906 128.070312 C 187.171875 128.453125 186.941406 128.800781 186.691406 129.117188 C 186.445312 129.433594 186.179688 129.710938 185.898438 129.949219 C 185.621094 130.191406 185.328125 130.390625 185.027344 130.542969 C 184.726562 130.699219 184.421875 130.808594 184.113281 130.875 C 183.804688 130.9375 183.496094 130.957031 183.1875 130.925781 C 182.882812 130.898438 182.582031 130.824219 182.289062 130.699219 C 182 130.578125 181.71875 130.414062 181.453125 130.203125 C 181.1875 129.996094 180.941406 129.746094 180.710938 129.457031 C 180.480469 129.167969 180.273438 128.84375 180.089844 128.488281 C 179.902344 128.128906 179.746094 127.746094 179.613281 127.332031 C 179.480469 126.921875 179.375 126.488281 179.300781 126.039062 C 179.226562 125.585938 179.179688 125.125 179.164062 124.652344 C 179.148438 124.175781 179.164062 123.703125 179.210938 123.226562 C 179.253906 122.75 179.328125 122.28125 179.433594 121.820312 C 179.539062 121.359375 179.667969 120.914062 179.828125 120.484375 C 179.988281 120.054688 180.171875 119.648438 180.378906 119.269531 C 180.585938 118.890625 180.816406 118.542969 181.066406 118.226562 C 181.3125 117.910156 181.578125 117.628906 181.859375 117.390625 C 182.140625 117.148438 182.429688 116.953125 182.730469 116.796875 C 183.03125 116.640625 183.335938 116.53125 183.644531 116.46875 C 183.953125 116.402344 184.261719 116.386719 184.570312 116.414062 C 184.875 116.441406 185.175781 116.519531 185.46875 116.640625 C 185.757812 116.761719 186.039062 116.925781 186.304688 117.136719 C 186.570312 117.347656 186.816406 117.59375 187.046875 117.882812 C 187.277344 118.171875 187.484375 118.496094 187.667969 118.855469 C 187.855469 119.210938 188.011719 119.597656 188.144531 120.007812 C 188.277344 120.421875 188.382812 120.851562 188.457031 121.304688 C 188.53125 121.753906 188.578125 122.21875 188.59375 122.691406 C 188.609375 123.164062 188.59375 123.636719 188.546875 124.113281 Z M 188.546875 124.113281 " fill-opacity="1" fill-rule="nonzero"/><path fill="#456685" d="M 166.625 212.089844 C 164.753906 236.230469 167.5625 248.410156 177.816406 247.964844 C 188.066406 247.523438 228.078125 220.578125 234.535156 204.804688 L 245.460938 365.863281 C 227.207031 371.789062 207.730469 375.007812 187.503906 375.007812 C 152.722656 375.007812 120.164062 365.523438 92.242188 349.023438 C 101.429688 316.652344 119.664062 254.582031 127.039062 244.949219 C 137.09375 231.816406 166.625 212.089844 166.625 212.089844 Z M 166.625 212.089844 " fill-opacity="1" fill-rule="evenodd"/><path fill="#2f456c" d="M 166.625 212.089844 C 119.917969 258.332031 116.824219 314.769531 112.832031 359.535156 C 93.394531 351.085938 75.667969 339.4375 60.316406 325.257812 C 66.324219 299.433594 73.90625 269.398438 78.128906 262.476562 C 85.855469 249.804688 91.628906 247.324219 110.714844 241.753906 C 129.800781 236.183594 127.738281 235.269531 132.289062 228.191406 C 136.839844 221.109375 156.890625 211.625 166.625 212.089844 Z M 166.625 212.089844 " fill-opacity="1" fill-rule="evenodd"/><path fill="#2f456c" d="M 234.535156 204.804688 C 234.535156 204.804688 225.300781 305.851562 211.523438 373.480469 C 268.71875 366.167969 317.847656 333.078125 346.921875 286.234375 C 346.214844 282.902344 345.488281 280.554688 344.742188 279.546875 C 338.359375 270.882812 287.601562 251.066406 280.378906 242.015625 C 273.15625 232.964844 257.167969 216.390625 234.535156 204.804688 Z M 234.535156 204.804688 " fill-opacity="1" fill-rule="evenodd"/></svg>